<?xml version="1.0" encoding="UTF-8" standalone="no"?>
<!-- Created with Inkscape (http://www.inkscape.org/) -->

<svg
   width="297mm"
   height="210mm"
   viewBox="0 0 297 210"
   version="1.1"
   id="svg5"
   inkscape:version="1.1.2 (0a00cf5339, 2022-02-04)"
   sodipodi:docname="Bamboo Eye.svg"
   xmlns:inkscape="http://www.inkscape.org/namespaces/inkscape"
   xmlns:sodipodi="http://sodipodi.sourceforge.net/DTD/sodipodi-0.dtd"
   xmlns="http://www.w3.org/2000/svg"
   xmlns:svg="http://www.w3.org/2000/svg">
  <sodipodi:namedview
     id="namedview7"
     pagecolor="#ffffff"
     bordercolor="#666666"
     borderopacity="1.0"
     inkscape:pageshadow="2"
     inkscape:pageopacity="0.0"
     inkscape:pagecheckerboard="0"
     inkscape:document-units="mm"
     showgrid="false"
     inkscape:zoom="0.41802946"
     inkscape:cx="422.21905"
     inkscape:cy="394.70903"
     inkscape:window-width="1336"
     inkscape:window-height="685"
     inkscape:window-x="0"
     inkscape:window-y="31"
     inkscape:window-maximized="1"
     inkscape:current-layer="layer1" />
  <defs
     id="defs2">
    <inkscape:path-effect
       effect="powerstroke"
       id="path-effect2674"
       is_visible="true"
       lpeversion="1"
       offset_points="3,0.050000001"
       not_jump="false"
       sort_points="true"
       interpolator_type="CentripetalCatmullRom"
       interpolator_beta="0.2"
       start_linecap_type="zerowidth"
       linejoin_type="round"
       miter_limit="4"
       scale_width="1"
       end_linecap_type="zerowidth" />
    <inkscape:path-effect
       effect="bend_path"
       id="path-effect2653"
       is_visible="true"
       lpeversion="1"
       bendpath="M 166.16572,127.8517 H 208.6028"
       prop_scale="1"
       scale_y_rel="false"
       vertical="false"
       hide_knot="false" />
    <inkscape:path-effect
       effect="fillet_chamfer"
       id="path-effect2649"
       is_visible="true"
       lpeversion="1"
       satellites_param="F,0,0,1,0,2.4164413,0,1 @ F,0,0,1,0,4.3935296,0,1 @ F,0,0,1,0,0,0,1 @ F,0,0,1,0,0,0,1"
       unit="px"
       method="auto"
       mode="F"
       radius="0"
       chamfer_steps="1"
       flexible="false"
       use_knot_distance="true"
       apply_no_radius="true"
       apply_with_radius="true"
       only_selected="false"
       hide_knots="false" />
    <inkscape:path-effect
       effect="bend_path"
       id="path-effect2431"
       is_visible="true"
       lpeversion="1"
       bendpath="M 162.43122,123.45817 H 204.8683"
       prop_scale="1"
       scale_y_rel="false"
       vertical="false"
       hide_knot="false" />
    <inkscape:path-effect
       effect="fillet_chamfer"
       id="path-effect2330"
       is_visible="true"
       lpeversion="1"
       satellites_param="F,0,0,1,0,2.4164413,0,1 @ F,0,0,1,0,4.3935296,0,1 @ F,0,0,1,0,0,0,1 @ F,0,0,1,0,0,0,1"
       unit="px"
       method="auto"
       mode="F"
       radius="0"
       chamfer_steps="1"
       flexible="false"
       use_knot_distance="true"
       apply_no_radius="true"
       apply_with_radius="true"
       only_selected="false"
       hide_knots="false" />
    <inkscape:path-effect
       effect="fillet_chamfer"
       id="path-effect1385"
       is_visible="true"
       lpeversion="1"
       satellites_param="F,0,0,1,0,2.0568085,0,1 @ F,0,0,1,0,12.631398,0,1 @ F,0,0,1,0,15.487192,0,1 @ F,0,0,1,0,17.793795,0,1"
       unit="px"
       method="auto"
       mode="F"
       radius="0"
       chamfer_steps="1"
       flexible="false"
       use_knot_distance="true"
       apply_no_radius="true"
       apply_with_radius="true"
       only_selected="false"
       hide_knots="false" />
    <inkscape:path-effect
       effect="fillet_chamfer"
       id="path-effect1280"
       is_visible="true"
       lpeversion="1"
       satellites_param="F,0,0,1,0,0,0,1 @ F,0,0,1,0,10.544471,0,1 @ F,0,0,1,0,16.483773,0,1 @ F,0,0,1,0,19.33153,0,1"
       unit="px"
       method="auto"
       mode="F"
       radius="0"
       chamfer_steps="1"
       flexible="false"
       use_knot_distance="true"
       apply_no_radius="true"
       apply_with_radius="true"
       only_selected="false"
       hide_knots="false" />
  </defs>
  <g
     inkscape:label="Layer 1"
     inkscape:groupmode="layer"
     id="layer1">
    <rect
       style="fill:#ffffff;stroke:#000500;stroke-width:0.2;stroke-opacity:0.996723;paint-order:markers fill stroke"
       id="rect1272"
       width="299.29797"
       height="209.60143"
       x="-0.13965097"
       y="0.3190532" />
    <a
       id="a6591"
       transform="translate(-487.17889,17.960512)" />
    <g
       id="g3928"
       transform="matrix(1.2535392,0,0,1.2535392,13.949224,-45.603677)" />
    <g
       id="g3930"
       transform="matrix(1.2535392,0,0,1.2535392,13.949224,-45.603677)" />
    <g
       id="g3932"
       transform="matrix(1.2535392,0,0,1.2535392,13.949224,-45.603677)" />
    <g
       id="g3934"
       transform="matrix(1.2535392,0,0,1.2535392,13.949224,-45.603677)" />
    <g
       id="g3936"
       transform="matrix(1.2535392,0,0,1.2535392,13.949224,-45.603677)" />
    <g
       id="g3938"
       transform="matrix(1.2535392,0,0,1.2535392,13.949224,-45.603677)" />
    <g
       id="g3940"
       transform="matrix(1.2535392,0,0,1.2535392,13.949224,-45.603677)" />
    <g
       id="g3942"
       transform="matrix(1.2535392,0,0,1.2535392,13.949224,-45.603677)" />
    <g
       id="g3944"
       transform="matrix(1.2535392,0,0,1.2535392,13.949224,-45.603677)" />
    <g
       id="g3946"
       transform="matrix(1.2535392,0,0,1.2535392,13.949224,-45.603677)" />
    <g
       id="g3948"
       transform="matrix(1.2535392,0,0,1.2535392,13.949224,-45.603677)" />
    <g
       id="g3950"
       transform="matrix(1.2535392,0,0,1.2535392,13.949224,-45.603677)" />
    <g
       id="g3952"
       transform="matrix(1.2535392,0,0,1.2535392,13.949224,-45.603677)" />
    <g
       id="g3954"
       transform="matrix(1.2535392,0,0,1.2535392,13.949224,-45.603677)" />
    <g
       id="g3956"
       transform="matrix(1.2535392,0,0,1.2535392,13.949224,-45.603677)" />
    <a
       id="a7246"
       transform="matrix(-1,0,0,1,-351.18821,17.960512)" />
    <path
       d="M 241.14062,122.9764 Z"
       style="fill:#000000;fill-opacity:1;fill-rule:nonzero;stroke:#000000;stroke-width:0.230719;stroke-linecap:butt;stroke-linejoin:miter;stroke-miterlimit:4;stroke-dasharray:none;stroke-opacity:1"
       id="path66" />
    <path
       d="m 241.14062,122.9764 v 0"
       style="fill:#000000;fill-opacity:1;fill-rule:nonzero;stroke:#000000;stroke-width:0.230719;stroke-linecap:butt;stroke-linejoin:miter;stroke-miterlimit:4;stroke-dasharray:none;stroke-opacity:1"
       id="path68" />
    <g
       id="g1412"
       transform="translate(9.0419532,20.121665)">
      <g
         id="g2836"
         transform="matrix(0.70642064,0,0,0.70958188,-51.386412,16.309394)">
        <path
           id="rect7911"
           style="fill:#000000;stroke:#000000;stroke-width:0.1;stroke-miterlimit:4;stroke-dasharray:none;stroke-opacity:0.965035"
           d="m 116.29818,108.51049 c 0.55178,0.008 0.80328,0.0205 1.33274,0.006 0.52943,-0.0148 1.04738,-0.0406 1.55493,-0.077 0.50755,-0.0364 1.00425,-0.0833 1.49037,-0.14005 0.4861,-0.0567 0.96163,-0.12308 1.42677,-0.19895 0.46514,-0.0759 0.92017,-0.16096 1.36477,-0.25477 0.44464,-0.0938 0.87924,-0.19641 1.30382,-0.30695 0.42455,-0.11054 0.83888,-0.22896 1.24383,-0.35502 0.40497,-0.12606 0.80018,-0.2596 1.18599,-0.39998 0.38579,-0.14037 0.76253,-0.28783 1.12964,-0.44131 0.36711,-0.15348 0.72496,-0.31315 1.07384,-0.47853 0.34888,-0.16538 0.68847,-0.33655 1.01957,-0.51263 0.3311,-0.17607 0.6536,-0.35704 0.9674,-0.5426 0.31377,-0.18556 0.61878,-0.37564 0.91569,-0.56947 0.29692,-0.19383 0.58558,-0.39132 0.86609,-0.59222 0.28054,-0.2009 0.55295,-0.40508 0.81754,-0.61184 0.26455,-0.20677 0.52141,-0.41646 0.77049,-0.62787 0.24908,-0.21142 0.49046,-0.4249 0.72451,-0.63976 0.23405,-0.21486 0.46056,-0.43092 0.68006,-0.64802 0.21947,-0.2171 0.4318,-0.43506 0.63717,-0.65319 0.20537,-0.21813 0.40412,-0.43627 0.59581,-0.654216 0.19172,-0.21795 0.3765,-0.43559 0.55502,-0.65216 0.17849,-0.21657 0.35049,-0.43198 0.51625,-0.64596 0.3315,-0.42795 0.6381,-0.84953 0.92139,-1.25987 0.28326,-0.41033 0.54316,-0.80963 0.78187,-1.19269 0.23868,-0.38306 0.4559,-0.74993 0.65371,-1.09606 0.19777,-0.34612 0.37639,-0.67147 0.53691,-0.97099 0.16053,-0.29953 0.30303,-0.57322 0.42995,-0.81649 0.10449,-0.200304 0.21273,-0.420974 0.32348,-0.658875 0.11076,-0.2379 0.22416,-0.492963 0.33952,-0.763262 0.23074,-0.540594 0.46908,-1.141256 0.7085,-1.780251 0.23939,-0.638995 0.47966,-1.316474 0.71466,-2.012281 0.23501,-0.695806 0.46464,-1.409777 0.68215,-2.120799 0.21749,-0.711028 0.42336,-1.419088 0.61029,-2.10375 0.18693,-0.68466 0.35488,-1.345964 0.49816,-1.962671 0.0717,-0.308351 0.13708,-0.605269 0.19534,-0.888833 0.0583,-0.283565 0.10969,-0.553607 0.15295,-0.807186 0.0433,-0.253579 0.0783,-0.491122 0.10491,-0.709517 0.0266,-0.218398 0.0449,-0.417817 0.0532,-0.595831 l 1e-5,-5.6e-5 c -0.17815,0.510252 -0.37389,1.036439 -0.58653,1.575099 -0.21267,0.538658 -0.44231,1.089774 -0.68781,1.651061 -0.24554,0.56129 -0.50724,1.132351 -0.78394,1.710492 -0.27673,0.578141 -0.56861,1.163648 -0.8749,1.752864 -0.30625,0.589214 -0.627,1.18264 -0.96117,1.777151 -0.33415,0.594513 -0.68141,1.189839 -1.0418,1.783871 -0.36039,0.594032 -0.73382,1.186278 -1.11879,1.774052 -0.38497,0.587775 -0.78171,1.171443 -1.18959,1.747182 -0.40789,0.57574 -0.82659,1.14378 -1.25574,1.70171 -0.42913,0.55792 -0.86847,1.10535 -1.31723,1.63968 -0.22437,0.26717 -0.45109,0.53098 -0.68006,0.79117 -0.22897,0.26018 -0.46016,0.51698 -0.6935,0.76946 -0.23334,0.25248 -0.46889,0.5006 -0.70641,0.74466 -0.23752,0.24406 -0.47733,0.48391 -0.71882,0.71882 -0.24149,0.23491 -0.48495,0.46536 -0.7302,0.69039 -0.24524,0.22505 -0.49223,0.444946 -0.74104,0.659396 -0.24879,0.21444 -0.49922,0.42318 -0.75137,0.62632 -0.25214,0.20313 -0.50591,0.40059 -0.7612,0.59169 -0.2553,0.1911 -0.51226,0.37563 -0.7705,0.55397 -0.25823,0.17834 -0.51781,0.35036 -0.77874,0.51521 -0.26096,0.16486 -0.52306,0.32271 -0.78653,0.47336 -0.26347,0.15066 -0.52848,0.29422 -0.79425,0.42995 -0.19056,0.09 -0.38502,0.17714 -0.58344,0.26148 -0.19841,0.0843 -0.40079,0.16578 -0.60669,0.24443 -0.41177,0.15731 -0.83809,0.30312 -1.27743,0.4377 -0.43934,0.13458 -0.89173,0.25815 -1.35549,0.37 -0.46373,0.11186 -0.93866,0.21215 -1.42367,0.30128 -0.485,0.0891 -0.98001,0.16665 -1.48312,0.23306 -0.5031,0.0664 -1.01412,0.12166 -1.5322,0.16536 -0.51808,0.0437 -1.04315,0.0762 -1.57303,0.0972 -0.52988,0.021 -0.94095,0.0307 -1.47951,0.0289 -0.35719,0.01 -1.09522,0.0546 -1.84792,0.0321 -0.87832,-0.0262 -1.77662,-0.12315 -2.11311,-0.15355 -0.64677,-0.0584 -2.46786,-0.40075 -3.03695,-0.5031 -0.56912,-0.10235 -1.13496,-0.21766 -1.69551,-0.3452 -0.56057,-0.12753 -1.11614,-0.2674 -1.66452,-0.42013 -0.54835,-0.15272 -1.0896,-0.31816 -1.6221,-0.49609 -0.5325,-0.17793 -1.05593,-0.3684 -1.5689,-0.57154 -0.25649,-0.10157 -0.51028,-0.20632 -0.76121,-0.31419 -0.2509,-0.10788 -0.49922,-0.21913 -0.74414,-0.33332 -0.2449,-0.11418 -0.4866,-0.23142 -0.72501,-0.35191 -0.23842,-0.12049 -0.473395,-0.24424 -0.704879,-0.37104 -0.231457,-0.1268 -0.459581,-0.25653 -0.683657,-0.38964 -0.224102,-0.13311 -0.444209,-0.26934 -0.660426,-0.40876 -0.216244,-0.13942 -0.428228,-0.28215 -0.636138,-0.42788 -0.207936,-0.14573 -0.411665,-0.29444 -0.610817,-0.44649 -0.199152,-0.152036 -0.394017,-0.307236 -0.583962,-0.465596 -0.189918,-0.15836 -0.375258,-0.32005 -0.555519,-0.48473 -0.180234,-0.16467 -0.355441,-0.33233 -0.525542,-0.50332 -0.1701,-0.171 -0.335042,-0.34514 -0.494533,-0.52245 -0.159517,-0.17732 -0.313531,-0.35794 -0.461988,-0.54157 -0.148458,-0.18364 -0.291465,-0.37022 -0.428414,-0.56017 -0.136922,-0.18996 -0.267758,-0.38302 -0.392721,-0.5793 -0.124989,-0.19627 -0.244025,-0.39581 -0.356579,-0.59841 -0.159993,-0.28796 -0.315833,-0.58532 -0.46818,-0.8909 -0.152347,-0.30559 -0.30099,-0.6198 -0.445452,-0.94155 -0.144459,-0.32168 -0.28482,-0.65106 -0.42116,-0.98748 -0.13634,-0.336418 -0.268923,-0.67977 -0.396875,-1.029393 -0.127979,-0.349633 -0.251672,-0.705257 -0.371052,-1.066612 -0.119353,-0.361355 -0.234183,-0.728062 -0.344673,-1.099674 -0.11049,-0.371616 -0.216402,-0.748216 -0.317817,-1.128615 -0.101388,-0.380397 -0.198358,-0.764675 -0.290407,-1.152385 -0.09208,-0.387707 -0.179546,-0.778989 -0.262017,-1.172538 -0.08247,-0.393546 -0.159887,-0.789612 -0.232542,-1.187524 -0.07263,-0.397909 -0.139991,-0.797573 -0.202565,-1.198375 -0.06257,-0.400804 -0.120332,-0.802875 -0.172588,-1.205095 -0.05226,-0.402219 -0.0994,-0.804481 -0.141075,-1.206645 -0.0417,-0.402161 -0.07816,-0.803944 -0.109035,-1.204577 -0.0309,-0.400634 -0.05614,-0.800232 -0.07599,-1.197861 -0.01984,-0.397629 -0.03381,-0.793337 -0.04236,-1.186489 -0.0085,-0.393153 -0.01164,-0.783786 -0.0087,-1.170988 0.0029,-0.387202 0.01217,-0.771057 0.02686,-1.150834 0.01482,-0.379778 0.03524,-0.75515 0.06202,-1.12603 0.0268,-0.370882 0.05966,-0.737097 0.09872,-1.097608 0.03905,-0.360511 0.08435,-0.715351 0.13589,-1.064017 0.05157,-0.348665 0.109326,-0.691464 0.173646,-1.02681 0.06432,-0.335349 0.13507,-0.663366 0.212381,-0.98392 0.07731,-0.320556 0.161131,-0.63364 0.251672,-0.937926 0.09054,-0.304292 0.187933,-0.5997 0.291967,-0.886251 0.104035,-0.286552 0.215054,-0.564134 0.332793,-0.831475 0.117766,-0.26734 0.242412,-0.524359 0.374148,-0.771014 0.131709,-0.24665 0.270563,-0.482955 0.416507,-0.707448 0.145944,-0.224497 0.299005,-0.437343 0.459396,-0.638204 0.160417,-0.200864 0.327713,-0.389586 0.502814,-0.565341 0.175101,-0.175757 0.357743,-0.338648 0.547767,-0.487825 0.19005,-0.149178 0.387509,-0.284539 0.592746,-0.40566 0.178937,-0.105611 0.38481,-0.209494 0.615447,-0.310575 0.230664,-0.101082 0.486145,-0.199554 0.765334,-0.29559 0.279215,-0.09604 0.581819,-0.189614 0.906409,-0.280085 0.324591,-0.09047 0.671381,-0.177607 1.038172,-0.262001 0.366819,-0.08439 0.753772,-0.165601 1.159616,-0.243396 0.405871,-0.07779 0.830527,-0.152561 1.272276,-0.223242 0.441774,-0.07068 0.900642,-0.137456 1.375122,-0.200504 0.47447,-0.06305 0.96459,-0.122351 1.46865,-0.17725 0.50403,-0.0549 1.02192,-0.10518 1.55236,-0.151413 0.53044,-0.04623 1.0736,-0.08801 1.62729,-0.125058 0.55367,-0.03705 1.11813,-0.0698 1.69188,-0.09715 0.57375,-0.02735 1.15655,-0.04953 1.74718,-0.06667 0.59065,-0.01714 1.1888,-0.02926 1.79318,-0.03565 0.60437,-0.0064 1.21489,-0.0069 1.82986,-0.0021 0.61495,0.0048 1.23436,0.01542 1.85672,0.03204 0.62238,0.01662 1.24769,0.0393 1.8743,0.06821 v -0.0016 c 0.62228,0.02882 1.24585,0.0639 1.86915,0.105421 0.62331,0.04152 1.24632,0.08946 1.86759,0.144176 0.62127,0.05471 1.24113,0.116078 1.85724,0.184486 0.61614,0.06841 1.2287,0.143743 1.83658,0.226343 0.60788,0.0826 1.21108,0.172458 1.80764,0.269751 0.59658,0.09729 1.18676,0.201708 1.76889,0.314193 0.58214,0.112482 1.15621,0.233042 1.72083,0.361217 0.56462,0.128175 1.11945,0.264398 1.66346,0.40876 l -0.008,-0.02532 c 0,0 0.18322,0.06645 0.24392,0.08888 0.41621,0.112959 0.82584,0.230537 1.22782,0.353465 0.40199,0.122934 0.79648,0.250854 1.18288,0.383958 0.38639,0.133104 0.7643,0.271481 1.13379,0.414962 0.36946,0.143478 0.73038,0.292428 1.08159,0.446485 0.64556,0.21215 1.3389,0.450352 2.06859,0.705381 0.72972,0.25503 1.4958,0.526855 2.28616,0.805635 0.79036,0.278781 1.60488,0.564605 2.43242,0.848011 0.82754,0.283406 1.6682,0.564121 2.50941,0.833025 0.84122,0.268904 1.68318,0.525917 2.51458,0.761193 0.41571,0.117639 0.82881,0.229735 1.23764,0.33538 0.40886,0.105646 0.81328,0.204846 1.21235,0.296106 0.39904,0.09126 0.7929,0.174594 1.17925,0.249082 0.38632,0.07448 0.76517,0.140015 1.13585,0.195336 0.37066,0.05532 0.73314,0.100592 1.08519,0.134358 0.0949,0.0091 0.18259,0.01016 0.27596,0.01757 0.26517,0.01455 0.50925,0.01992 0.74724,5.29e-4 0.0935,-0.0074 0.18148,-0.009 0.27646,-0.0181 0.35208,-0.03377 0.71403,-0.07904 1.08469,-0.134358 0.37068,-0.05532 0.75004,-0.120851 1.13638,-0.195336 0.38632,-0.07449 0.77968,-0.157819 1.17872,-0.249082 0.39907,-0.09126 0.80402,-0.19046 1.21285,-0.296106 0.40886,-0.105645 0.82196,-0.217741 1.23767,-0.33538 0.8314,-0.235276 1.67336,-0.492289 2.51457,-0.761193 0.84119,-0.268904 1.68135,-0.549619 2.50889,-0.833025 0.82754,-0.283406 1.64256,-0.56923 2.43292,-0.848011 0.79037,-0.27878 1.55594,-0.550605 2.28566,-0.805635 0.72969,-0.255029 1.42354,-0.493231 2.06912,-0.705381 0.35118,-0.154057 0.7116,-0.303007 1.08106,-0.446485 0.36946,-0.143481 0.7479,-0.281858 1.1343,-0.414962 0.38639,-0.133104 0.78089,-0.261024 1.18287,-0.383958 0.40201,-0.122928 0.81161,-0.240506 1.22785,-0.353465 0.0607,-0.02244 0.24389,-0.08888 0.24389,-0.08888 l -0.008,0.02532 c 0.54401,-0.144362 1.09934,-0.280585 1.66397,-0.40876 0.56464,-0.128175 1.13868,-0.248735 1.72082,-0.361217 0.58216,-0.112485 1.17234,-0.2169 1.7689,-0.314193 0.59655,-0.09729 1.19975,-0.18715 1.80763,-0.269751 0.60791,-0.0826 1.22047,-0.157937 1.83658,-0.226343 0.61613,-0.06841 1.23547,-0.129773 1.85674,-0.184486 0.62127,-0.05471 1.24428,-0.102658 1.86759,-0.144176 0.6233,-0.04152 1.24687,-0.0766 1.86915,-0.105421 v 0.0016 c 0.62661,-0.02891 1.25193,-0.05159 1.87428,-0.06821 0.62238,-0.01662 1.24179,-0.02719 1.85674,-0.03204 0.61497,-0.0048 1.2255,-0.0043 1.82986,0.0021 0.60438,0.0064 1.20306,0.01852 1.79369,0.03565 0.59065,0.01714 1.17345,0.03932 1.74717,0.06667 0.57375,0.02735 1.13824,0.0601 1.69191,0.09715 0.55366,0.03705 1.09632,0.07882 1.62676,0.125058 0.53044,0.04623 1.04884,0.09651 1.55289,0.151413 0.50403,0.0549 0.99365,0.1142 1.46812,0.17725 0.47448,0.06305 0.93388,0.129823 1.37562,0.200504 0.44175,0.07068 0.86591,0.145447 1.27175,0.223242 0.40587,0.0778 0.79333,0.159004 1.16015,0.243396 0.36681,0.08439 0.71307,0.171526 1.03767,0.262001 0.32459,0.09047 0.62719,0.184049 0.90641,0.280085 0.27918,0.09604 0.53517,0.194508 0.76583,0.29559 0.23067,0.101081 0.43601,0.204964 0.61495,0.310575 0.20523,0.121121 0.40319,0.256482 0.59324,0.40566 0.19006,0.149177 0.37217,0.312068 0.54727,0.487825 0.17507,0.175755 0.34293,0.364477 0.50332,0.565341 0.16039,0.200861 0.31347,0.413707 0.45939,0.638204 0.14595,0.224493 0.2848,0.460798 0.41654,0.707448 0.13171,0.246655 0.25638,0.503674 0.37412,0.771014 0.11776,0.267341 0.22876,0.544923 0.33279,0.831475 0.10403,0.286551 0.20092,0.581959 0.29146,0.886251 0.0905,0.304286 0.17436,0.61737 0.25168,0.937926 0.0773,0.320554 0.14806,0.648571 0.21238,0.98392 0.0643,0.335346 0.12258,0.678145 0.17415,1.02681 0.0516,0.348666 0.0963,0.703506 0.13538,1.064017 0.0391,0.360511 0.0719,0.726726 0.0987,1.097608 0.0268,0.37088 0.0478,0.746252 0.0625,1.12603 0.0148,0.379777 0.0233,0.763632 0.0265,1.150834 0.003,0.387202 0,0.777835 -0.008,1.170988 -0.008,0.393152 -0.0225,0.78886 -0.0424,1.186489 -0.0198,0.397629 -0.0456,0.797227 -0.0765,1.197861 -0.0309,0.400633 -0.0673,0.802416 -0.10904,1.204577 -0.0417,0.402164 -0.0883,0.804426 -0.14054,1.206645 -0.0523,0.40222 -0.11004,0.804291 -0.17262,1.205095 -0.0626,0.400802 -0.12991,0.800466 -0.20256,1.198375 -0.0727,0.397912 -0.15058,0.793978 -0.23307,1.187524 -0.0825,0.393549 -0.16992,0.784831 -0.26199,1.172538 -0.0921,0.38771 -0.18849,0.771988 -0.28991,1.152385 -0.10139,0.380399 -0.2073,0.756999 -0.31781,1.128615 -0.11049,0.371612 -0.22585,0.738319 -0.34518,1.099674 -0.11938,0.361355 -0.24307,0.716979 -0.37105,1.066602 -0.12798,0.349623 -0.26001,0.692975 -0.39635,1.029393 -0.13634,0.336421 -0.2767,0.665801 -0.42116,0.987541 -0.14446,0.32174 -0.29311,0.63595 -0.44545,0.94154 -0.15235,0.30558 -0.30875,0.60294 -0.46871,0.8909 -0.11256,0.2026 -0.23109,0.40214 -0.35605,0.59841 -0.12499,0.19628 -0.25633,0.38934 -0.39325,0.5793 -0.13695,0.18995 -0.27943,0.37653 -0.42789,0.56017 -0.14846,0.18363 -0.303,0.36425 -0.46252,0.54157 -0.15949,0.17731 -0.32443,0.35145 -0.49453,0.52245 -0.1701,0.17099 -0.34533,0.33865 -0.52554,0.50332 -0.18026,0.16468 -0.3651,0.32637 -0.55502,0.48473 -0.18991,0.15836 -0.38478,0.31356 -0.58393,0.465596 -0.19915,0.15205 -0.40291,0.30076 -0.61082,0.44649 -0.20794,0.14573 -0.41992,0.28846 -0.63614,0.42788 -0.21624,0.13942 -0.43685,0.27565 -0.66095,0.40876 -0.22408,0.13311 -0.45167,0.26284 -0.68316,0.38964 -0.23148,0.1268 -0.46646,0.25055 -0.70487,0.37104 -0.23842,0.12049 -0.48062,0.23773 -0.72554,0.35191 -0.2449,0.11419 -0.49268,0.22544 -0.74361,0.33332 -0.25094,0.10787 -0.5047,0.21262 -0.76121,0.31419 -0.51298,0.20314 -1.0369,0.39361 -1.5694,0.57154 -0.5325,0.17793 -1.07376,0.34337 -1.62214,0.49609 -0.54835,0.15273 -1.10342,0.2926 -1.66396,0.42013 -0.56057,0.12754 -1.12641,0.24285 -1.69551,0.3452 -0.56911,0.10235 -1.14167,0.19204 -1.71566,0.26924 -0.2813,0.0378 -1.40207,0.23384 -2.5399,0.32323 -1.1839,0.093 -2.38627,0.0788 -2.68077,0.081 -0.27492,0.002 -1.38515,-0.0251 -2.47587,-0.10776 -0.97172,-0.0737 -1.93477,-0.20154 -2.17181,-0.23281 -0.50313,-0.0664 -0.99759,-0.14392 -1.48259,-0.23306 -0.48501,-0.0891 -0.96047,-0.18942 -1.4242,-0.30127 -0.46377,-0.11186 -0.91615,-0.23542 -1.35549,-0.37 -0.43934,-0.13458 -0.86566,-0.28039 -1.27744,-0.4377 -0.20589,-0.0786 -0.40774,-0.1601 -0.60616,-0.24443 -0.19841,-0.0843 -0.3934,-0.17147 -0.58396,-0.26148 -0.26577,-0.13574 -0.53028,-0.2793 -0.79375,-0.42995 -0.26347,-0.15066 -0.52554,-0.3085 -0.7865,-0.47336 -0.26096,-0.16486 -0.52054,-0.33688 -0.77877,-0.51521 -0.25824,-0.17834 -0.5152,-0.36288 -0.7705,-0.55397 -0.25529,-0.1911 -0.50903,-0.38857 -0.76118,-0.5917 -0.25217,-0.20313 -0.50257,-0.41187 -0.75139,-0.62632 -0.24881,-0.21445 -0.4963,-0.434346 -0.74154,-0.659386 -0.24527,-0.22504 -0.48872,-0.45549 -0.7302,-0.6904 -0.24149,-0.23491 -0.48078,-0.47476 -0.71829,-0.71882 -0.23754,-0.24405 -0.47308,-0.49217 -0.70644,-0.74465 -0.23333,-0.25248 -0.46453,-0.50928 -0.69347,-0.76946 -0.22897,-0.26019 -0.45569,-0.524 -0.68009,-0.79117 -0.44873,-0.53448 -0.88807,-1.08191 -1.31723,-1.63983 -0.42913,-0.55792 -0.84786,-1.12597 -1.25574,-1.701706 -0.40788,-0.575738 -0.80512,-1.159406 -1.19009,-1.747181 -0.38497,-0.587774 -0.7579,-1.18002 -1.11829,-1.774052 -0.36039,-0.594032 -0.70816,-1.189358 -1.0423,-1.783871 -0.33417,-0.594511 -0.65492,-1.187937 -0.96118,-1.777151 -0.30628,-0.589216 -0.59817,-1.174723 -0.8749,-1.752865 -0.27672,-0.578141 -0.53789,-1.149201 -0.7834,-1.710491 -0.24551,-0.561287 -0.47517,-1.112404 -0.68781,-1.651061 -0.21267,-0.53866 -0.40841,-1.064847 -0.58653,-1.575099 l 1e-5,1.5e-5 c 0.008,0.178015 0.0262,0.377434 0.0527,0.595832 0.0266,0.218395 0.0622,0.455937 0.10541,0.709517 0.0433,0.253579 0.0942,0.523621 0.15245,0.807185 0.0583,0.283565 0.12369,0.580483 0.19534,0.888834 0.14328,0.616706 0.31174,1.278011 0.49866,1.962671 0.18696,0.684662 0.39228,1.392721 0.60979,2.103749 0.21751,0.711023 0.44715,1.424993 0.68215,2.1208 0.235,0.695806 0.47577,1.373285 0.71519,2.01228 0.23942,0.638996 0.47774,1.239658 0.70848,1.780252 0.11538,0.270298 0.22878,0.525362 0.33951,0.763262 0.11076,0.2379 0.21849,0.458571 0.32298,0.65887 0.12692,0.24327 0.26995,0.51697 0.43048,0.81649 0.16052,0.29953 0.33861,0.62488 0.53639,0.971 0.19777,0.34612 0.41502,0.713 0.6537,1.09606 0.23871,0.38306 0.49911,0.78235 0.7824,1.19269 0.28326,0.41033 0.58936,0.83192 0.92086,1.25987 0.16576,0.21398 0.33827,0.42939 0.51678,0.64596 0.17846,0.21656 0.3633,0.4342 0.55499,0.65215 0.19172,0.217946 0.38994,0.436096 0.59531,0.654226 0.20537,0.21813 0.4177,0.43609 0.63717,0.65319 0.21947,0.21709 0.44601,0.43316 0.68006,0.64802 0.23405,0.21486 0.47593,0.42834 0.72504,0.63975 0.24908,0.21142 0.50538,0.42111 0.76996,0.62787 0.26458,0.20676 0.537,0.41095 0.81754,0.61185 0.28051,0.2009 0.56917,0.39838 0.86608,0.59221 0.29692,0.19383 0.60243,0.38392 0.91623,0.56948 0.31377,0.18555 0.63577,0.36653 0.96687,0.5426 0.3311,0.17607 0.67122,0.34725 1.02007,0.51263 0.34891,0.16538 0.70673,0.32504 1.07384,0.47852 0.36714,0.15348 0.74335,0.30094 1.12914,0.44132 0.38581,0.14037 0.78102,0.27391 1.18596,0.39997 0.40497,0.12607 0.81982,0.24448 1.24439,0.35502 0.42455,0.11054 0.85918,0.21315 1.30379,0.30696 0.44463,0.0938 0.89911,0.17889 1.36427,0.25477 0.46514,0.0759 0.94065,0.14222 1.42677,0.19895 0.48611,0.0567 0.98279,0.10367 1.49034,0.14004 0.50755,0.0364 1.02606,0.0622 1.55546,0.077 0.52946,0.0148 1.06982,0.0189 1.62252,0.0109 0.41454,-0.006 0.83435,-0.0181 1.26022,-0.0372 0.4259,-0.0191 0.85784,-0.0448 1.29657,-0.078 0.62539,-0.0472 1.23616,-0.10133 1.83192,-0.16174 0.59579,-0.0604 1.17666,-0.1272 1.74358,-0.20051 0.56692,-0.0733 1.11945,-0.15334 1.6583,-0.23926 0.53882,-0.0859 1.06408,-0.17771 1.57559,-0.27595 0.51155,-0.0983 1.00952,-0.20287 1.4945,-0.31316 0.48498,-0.11029 0.95724,-0.22625 1.41645,-0.3483 0.45921,-0.12205 0.90525,-0.2499 1.33945,-0.38344 0.43421,-0.13354 0.85662,-0.27281 1.26659,-0.41754 0.41,-0.14474 0.80772,-0.29497 1.19425,-0.45062 0.38653,-0.15566 0.76168,-0.31688 1.12551,-0.48318 0.36383,-0.16629 0.71641,-0.33753 1.05833,-0.51418 0.34193,-0.17665 0.67297,-0.35846 0.99373,-0.54518 0.32078,-0.18673 0.63134,-0.37865 0.93173,-0.57516 0.3004,-0.19652 0.591,-0.39756 0.8718,-0.60358 0.28077,-0.20603 0.55195,-0.41675 0.81388,-0.63201 0.26197,-0.21525 0.51472,-0.43519 0.75862,-0.65939 0.24389,-0.2242 0.47879,-0.45287 0.70538,-0.68575 0.22661,-0.23287 0.44468,-0.46981 0.65473,-0.71106 0.21008,-0.241256 0.41185,-0.487026 0.60619,-0.736386 0.19431,-0.24936 0.38134,-0.50247 0.56068,-0.75965 0.17933,-0.25717 0.35113,-0.51818 0.51625,-0.78289 0.16513,-0.26472 0.32322,-0.53315 0.4749,-0.80512 0.15169,-0.27198 0.29713,-0.54736 0.43614,-0.82631 0.13902,-0.27894 0.27184,-0.56133 0.39894,-0.84698 0.12713,-0.28564 0.24834,-0.57455 0.36433,-0.86661 0.116,-0.29205 0.22667,-0.58754 0.33227,-0.88573 0.10565,-0.29819 0.20627,-0.59927 0.30231,-0.903306 0.096,-0.304032 0.1877,-0.610753 0.27493,-0.920355 0.0872,-0.309603 0.16989,-0.622007 0.24908,-0.936895 0.0792,-0.314886 0.15496,-0.632505 0.22685,-0.952397 0.1438,-0.639781 0.27342,-1.289061 0.39275,-1.947167 0.30493,-1.35696 0.60108,-2.660626 0.88315,-3.911907 0.28205,-1.251278 0.54999,-2.450319 0.79841,-3.598746 0.24842,-1.148426 0.47757,-2.245971 0.68159,-3.294372 0.10202,-0.5242 0.19791,-1.0361 0.28681,-1.535824 0.0889,-0.499724 0.1705,-0.987359 0.24495,-1.46296 0.0744,-0.475602 0.14134,-0.939295 0.2,-1.391129 0.0586,-0.451835 0.10938,-0.891916 0.15089,-1.320332 0.0415,-0.428419 0.0741,-0.845214 0.0972,-1.250572 0.023,-0.405354 0.0361,-0.799192 0.0393,-1.181838 0.003,-0.382648 -0.004,-0.753853 -0.0217,-1.114144 -0.018,-0.360291 -0.0468,-0.709708 -0.0873,-1.047999 -0.0405,-0.338291 -0.0927,-0.665726 -0.15711,-0.982369 -0.0644,-0.316643 -0.1414,-0.622424 -0.23099,-0.917773 -0.0896,-0.295347 -0.19184,-0.580321 -0.308,-0.854729 -0.0581,-0.137202 -0.11951,-0.271557 -0.18446,-0.403592 -0.065,-0.132035 -0.13367,-0.261697 -0.20569,-0.388607 -0.072,-0.12691 -0.14761,-0.251275 -0.22685,-0.373102 -0.0793,-0.12183 -0.16193,-0.240811 -0.24858,-0.357603 -0.0866,-0.116793 -0.17709,-0.231331 -0.27128,-0.34313 -0.0942,-0.1118 -0.19261,-0.221295 -0.29456,-0.328147 -0.10194,-0.106852 -0.20746,-0.211209 -0.31729,-0.313159 -0.10985,-0.101949 -0.22368,-0.201083 -0.3416,-0.298172 -0.1179,-0.09709 -0.23971,-0.191947 -0.36587,-0.28422 -0.12612,-0.09227 -0.25664,-0.182251 -0.39118,-0.269751 -0.13454,-0.0875 -0.2734,-0.172508 -0.41651,-0.255283 -0.14311,-0.08277 -0.29051,-0.163238 -0.44236,-0.241329 -0.30369,-0.156184 -0.62513,-0.303083 -0.9648,-0.440799 -0.33965,-0.137718 -0.69739,-0.266419 -1.07434,-0.386024 -0.37698,-0.119603 -0.77295,-0.229918 -1.18856,-0.331761 -0.41561,-0.101844 -0.85077,-0.195133 -1.30638,-0.27957 -0.45561,-0.08444 -0.93192,-0.159991 -1.42886,-0.227377 -0.49694,-0.06738 -1.01481,-0.126564 -1.55442,-0.17725 -0.53962,-0.05069 -1.10102,-0.0933 -1.68466,-0.12764 -0.58364,-0.03434 -1.18946,-0.0602 -1.81848,-0.07855 -0.62902,-0.01834 -1.28127,-0.02881 -1.95699,-0.03152 -0.55922,-0.0021 -1.13493,5.29e-4 -1.72704,0.0088 -0.59209,0.0082 -1.20055,0.0218 -1.82624,0.04031 -0.62568,0.01852 -1.26851,0.04219 -1.92857,0.0708 -0.66003,0.02861 -1.33728,0.06225 -2.03242,0.100769 -1.28538,-0.0026 -2.56347,0.009 -3.8194,0.03772 -0.62799,0.01434 -1.25047,0.03287 -1.86552,0.05581 -0.61505,0.02294 -1.22267,0.0506 -1.82108,0.08268 -0.88124,0.04889 -1.74617,0.105201 -2.58228,0.174152 -0.78745,0.06473 -1.59461,0.143478 -2.41741,0.234608 -0.82283,0.09113 -1.66148,0.194453 -2.51098,0.307994 -0.84947,0.113538 -1.71016,0.237527 -2.57762,0.369485 -0.86741,0.131958 -1.74168,0.271672 -2.61843,0.418063 -0.87675,0.146391 -1.75609,0.299463 -2.63345,0.456303 -0.87733,0.156837 -1.75278,0.31781 -2.62204,0.481108 -1.73853,0.326593 -3.45213,0.662133 -5.10614,0.990637 -1.65405,0.328501 -3.24859,0.649748 -4.74856,0.948261 -1.5,0.298514 -2.90523,0.574178 -4.18166,0.810805 -0.63823,0.118311 -1.24402,0.226634 -1.81332,0.323493 -0.56931,0.09686 -1.10205,0.182314 -1.59369,0.253733 -0.49171,0.07142 -0.94237,0.129056 -1.34774,0.171048 -0.66527,0.05448 -0.94993,0.05403 -1.62213,0 -0.40537,-0.04199 -0.85604,-0.09963 -1.34771,-0.171048 -0.49168,-0.07142 -1.02441,-0.156872 -1.59369,-0.253733 -0.56931,-0.09686 -1.17512,-0.205182 -1.81335,-0.323493 -1.27643,-0.236627 -2.68219,-0.512291 -4.18217,-0.810805 -1.5,-0.298513 -3.09454,-0.61976 -4.74855,-0.948261 -1.65402,-0.328504 -3.36762,-0.664044 -5.10614,-0.990637 -0.86927,-0.163298 -1.74472,-0.324271 -2.62208,-0.481108 -0.87733,-0.15684 -1.75667,-0.309912 -2.63342,-0.456303 -0.87675,-0.146391 -1.75099,-0.286105 -2.61845,-0.418063 -0.86746,-0.131958 -1.72815,-0.255947 -2.5776,-0.369485 -0.8495,-0.113541 -1.68764,-0.216861 -2.51044,-0.307994 -0.82283,-0.09113 -1.63002,-0.169873 -2.41742,-0.234608 -0.83614,-0.06895 -1.70106,-0.125265 -2.58228,-0.174152 -0.59841,-0.03208 -1.20603,-0.05974 -1.82108,-0.08268 -0.61505,-0.02294 -1.23756,-0.04148 -1.86552,-0.05581 -1.25595,-0.02866 -2.53402,-0.04032 -3.81942,-0.03772 -0.69511,-0.03851 -1.37239,-0.07216 -2.03242,-0.100769 -0.66003,-0.02861 -1.30286,-0.05228 -1.92858,-0.0708 -0.62568,-0.01852 -1.23465,-0.03208 -1.82676,-0.04031 -0.59208,-0.0082 -1.16726,-0.01103 -1.72649,-0.0088 l -0.001,-5.1e-5 c -0.67571,0.0027 -1.327437,0.01318 -1.956457,0.03152 -0.62902,0.01836 -1.235366,0.04421 -1.81901,0.07855 -0.583645,0.03434 -1.144508,0.07695 -1.684153,0.12764 -0.539617,0.05069 -1.057989,0.109866 -1.554929,0.17725 -0.496941,0.06739 -0.972741,0.142938 -1.428354,0.227377 -0.455586,0.08444 -0.890746,0.177726 -1.30638,0.27957 -0.415607,0.101843 -0.811583,0.212158 -1.188535,0.331761 -0.376978,0.119605 -0.735224,0.248306 -1.074869,0.386024 -0.339672,0.137716 -0.660585,0.284615 -0.964301,0.440799 -0.151844,0.07809 -0.29927,0.158554 -0.44233,0.241329 -0.143113,0.08277 -0.281993,0.16778 -0.416534,0.255283 -0.13454,0.0875 -0.265033,0.177477 -0.391186,0.269751 -0.126127,0.09227 -0.247968,0.187131 -0.365866,0.28422 -0.117898,0.09709 -0.231748,0.196223 -0.341577,0.298172 -0.109829,0.10195 -0.215874,0.206307 -0.317817,0.313159 -0.101944,0.106852 -0.199814,0.216347 -0.294032,0.328147 -0.09422,0.111799 -0.184653,0.226337 -0.271304,0.34313 -0.08665,0.116792 -0.169307,0.235773 -0.248576,0.357603 -0.07924,0.121827 -0.154834,0.246192 -0.226853,0.373102 -0.07202,0.12691 -0.140706,0.256572 -0.205661,0.388607 -0.06498,0.132035 -0.126418,0.26639 -0.184494,0.403592 -0.116152,0.274408 -0.218916,0.559382 -0.308504,0.854729 -0.08962,0.295349 -0.166079,0.60113 -0.230479,0.917773 -0.0644,0.316643 -0.116575,0.644078 -0.157083,0.982369 -0.04053,0.338291 -0.06935,0.687708 -0.08734,1.047999 -0.01799,0.360291 -0.0254,0.731496 -0.02223,1.114144 0.0032,0.382646 0.01667,0.776484 0.03979,1.181838 0.02302,0.405358 0.05564,0.822153 0.09716,1.250572 0.04149,0.428416 0.09173,0.868497 0.150363,1.320332 0.05866,0.451834 0.125545,0.915527 0.199999,1.391129 0.07443,0.475601 0.156554,0.963236 0.245454,1.46296 0.0889,0.499724 0.184785,1.011624 0.286808,1.535824 0.20402,1.048401 0.432673,2.145946 0.68109,3.294372 0.248418,1.148427 0.516361,2.347468 0.798407,3.598746 0.282046,1.251281 0.578221,2.554947 0.883153,3.911907 0.119327,0.658106 0.249449,1.307386 0.39325,1.947167 0.07191,0.319892 0.147161,0.637511 0.226351,0.952397 0.07916,0.314888 0.162401,0.627292 0.249581,0.936895 0.08723,0.309602 0.178383,0.616323 0.274426,0.920355 0.09602,0.304037 0.196665,0.605117 0.302287,0.903307 0.105648,0.29819 0.216297,0.59368 0.33229,0.88573 0.115993,0.29206 0.237728,0.58097 0.364834,0.86661 0.127106,0.28565 0.259927,0.56804 0.398939,0.84698 0.139012,0.27895 0.283951,0.55433 0.435636,0.82631 0.151686,0.27197 0.309774,0.5404 0.474901,0.80512 0.165126,0.26471 0.337423,0.52572 0.516757,0.78289 0.179361,0.25718 0.365866,0.51029 0.560176,0.75965 0.194337,0.24936 0.396611,0.49513 0.60669,0.736386 0.210079,0.24125 0.428149,0.47819 0.654738,0.71106 0.226589,0.23288 0.461486,0.46155 0.705379,0.68575 0.243893,0.2242 0.496649,0.44414 0.758613,0.65939 0.261964,0.21526 0.533109,0.42598 0.813911,0.63201 0.280776,0.20602 0.571395,0.40706 0.871776,0.60358 0.300408,0.19651 0.610447,0.38843 0.931201,0.57516 0.320781,0.18672 0.652357,0.36853 0.994278,0.54518 0.341894,0.17665 0.694478,0.34789 1.058333,0.51418 0.363829,0.1663 0.738452,0.32752 1.124982,0.48318 0.386531,0.15565 0.784781,0.30588 1.194751,0.45062 0.41,0.14473 0.83188,0.284 1.26609,0.41754 0.4342,0.13354 0.88074,0.26139 1.33995,0.38344 0.45924,0.12205 0.93096,0.23801 1.41595,0.3483 0.48498,0.11029 0.98348,0.21491 1.495,0.31316 0.51152,0.0982 1.03626,0.19003 1.57509,0.27595 0.53885,0.0859 1.09138,0.16596 1.6583,0.23926 0.56692,0.0733 1.14829,0.14009 1.74408,0.20051 0.59576,0.0604 1.20603,0.1145 1.83142,0.16174 0.43873,0.0332 0.87119,0.0589 1.29707,0.078 0.42587,0.0191 1.13561,0.0151 1.54926,0.0207"
           sodipodi:nodetypes="csssssssssssssssssssssssssssssssssssssccssssssssssssssssssssscsssssssscssssssssssssssssssssssssssssssssssssssssssssssssssssssssssssssssssssssccssssssscccssscssssssssssccsssssssssscssscccsssssssccssssssssssssssssssssssssssssssssssssssssssssssssssssssssssssssssssssssssssssscssssssssssssssssssssscsssssssssssssssssssssssssssssssssssssscsscsssssssssssssssssssssssssssssscsssssssssssssssssssssssssssssssssssssscssccsssssssssssccsssssssssssccsscssssssssssssssssssssssssssssssssssssssscssssssssssssssssssssssssssssssssc" />
        <g
           id="g367"
           style="fill:#000000"
           transform="matrix(0.36170285,0,0,-0.36161342,1.2409822,222.09285)">
          <path
             id="path12-9"
             style="fill:#000000;fill-opacity:1;fill-rule:nonzero;stroke:none"
             d="m 239.84536,250.39292 c -0.16936,1.54955 -0.21225,4.08972 -0.0955,5.64471 l 0.63779,8.48248 c 0.11673,1.55498 1.44624,2.50387 2.95427,2.10846 l 10.45117,-2.73742 c 1.50803,-0.39491 4.01752,-0.69636 5.57685,-0.66942 l 83.67796,1.44516 c 1.55835,0.0269 4.0415,0.45854 5.51844,0.95871 l 8.46247,2.86873 c 1.47693,0.50019 2.56128,-0.35963 2.41227,-1.91175 l -0.8191,-8.44704 c -0.14998,-1.55214 -0.10914,-4.08649 0.0923,-5.63255 l 1.12283,-8.63083 c 0.20153,-1.54607 -0.86276,-2.46887 -2.36531,-2.0514 l -9.60028,2.67055 c -1.50158,0.4175 -4.00552,0.73759 -5.56486,0.71066 l -82.60194,-1.42658 c -1.55934,-0.0269 -4.05693,-0.41484 -5.5504,-0.8616 l -10.34944,-3.09714 c -1.49348,-0.44676 -2.85399,0.45566 -3.02335,2.00522 l -0.93624,8.57105 z" />
          <path
             id="path16-1"
             style="fill:#000000;fill-opacity:1;fill-rule:nonzero;stroke:none"
             d="m 360.73138,258.0636 c -0.11478,-1.55447 -0.0699,-4.09459 0.10048,-5.64462 l 0.92936,-8.45591 c 0.17034,-1.54954 1.53183,-2.45195 3.02629,-2.00518 l 10.34943,3.09715 c 1.49397,0.44676 3.99107,0.83466 5.54992,0.86158 l 83.67892,1.44518 c 1.55886,0.0269 4.05543,-0.31868 5.54827,-0.76806 l 8.55649,-2.5748 c 1.49283,-0.4489 2.54732,0.44834 2.34385,1.99389 l -1.10933,8.41423 c -0.20349,1.54603 -0.2497,4.08028 -0.10228,5.63237 l 0.82414,8.66396 c 0.14754,1.5521 -0.948,2.4381 -2.43474,1.9685 l -9.50332,-3 c -1.48675,-0.46958 -3.97816,-0.87546 -5.53701,-0.90238 l -82.60194,-1.42658 c -1.55885,-0.0269 -4.06785,0.27452 -5.57635,0.66943 l -10.44922,2.73745 c -1.50901,0.3954 -2.83755,-0.55348 -2.95232,-2.10842 l -0.64069,-8.5978 z" />
          <path
             id="path20-2"
             style="fill:#000000;fill-opacity:1;fill-rule:nonzero;stroke:none"
             d="m 482.15905,254.61333 c -0.16936,1.54955 -0.21225,4.08972 -0.0955,5.6447 l 0.6378,8.48249 c 0.11672,1.55498 1.44624,2.50338 2.95476,2.10847 l 10.45019,-2.73744 c 1.50851,-0.3949 4.01751,-0.69635 5.57636,-0.66943 l 83.67892,1.44518 c 1.55886,0.0269 4.042,0.45854 5.51894,0.95872 l 8.46149,2.86871 c 1.47693,0.50019 2.56176,-0.35963 2.41179,-1.91176 l -0.81813,-8.44702 c -0.14998,-1.55214 -0.10865,-4.08648 0.0923,-5.63255 l 1.12283,-8.63083 c 0.20104,-1.54608 -0.86325,-2.46888 -2.36531,-2.0514 l -9.60126,2.67054 c -1.50207,0.41797 -4.00601,0.73757 -5.56486,0.71065 l -82.60194,-1.42658 c -1.55885,-0.0269 -4.05595,-0.41482 -5.54991,-0.86159 l -10.34846,-3.09712 c -1.49397,-0.44677 -2.85449,0.45565 -3.02384,2.00521 l -0.93624,8.57105 z" />
          <g
             id="g109"
             transform="translate(13.5,-1.5)"
             style="fill:#000000">
            <path
               d="m 580.10037,269.09797 c 8.23567,8.6479 16.76748,17.00253 25.07735,25.5682"
               style="fill:#000000;fill-opacity:1;fill-rule:nonzero;stroke:#000000;stroke-width:1;stroke-linecap:butt;stroke-linejoin:miter;stroke-miterlimit:4;stroke-dasharray:none;stroke-opacity:1"
               id="path42-7" />
            <path
               d="M 645.4253,296.22907 Z"
               style="fill:#000000;fill-opacity:1;fill-rule:nonzero;stroke:#000000;stroke-width:1;stroke-linecap:butt;stroke-linejoin:miter;stroke-miterlimit:4;stroke-dasharray:none;stroke-opacity:1"
               id="path44-0" />
            <path
               d="m 645.4253,296.22907 v 0"
               style="fill:#000000;fill-opacity:1;fill-rule:nonzero;stroke:#000000;stroke-width:1;stroke-linecap:butt;stroke-linejoin:miter;stroke-miterlimit:4;stroke-dasharray:none;stroke-opacity:1"
               id="path46-9" />
            <path
               d="m 623.71562,307.47696 c 2.38743,3.48608 6.29338,6.22386 8.92022,9.70235 2.39445,3.70157 1.48776,7.42329 1.61384,7.87084 -0.22298,0.75212 -0.6622,-2.77161 -3.90899,-5.07802 -3.22739,-2.07265 -9.72812,-3.75448 -13.26071,-6.73292 -1.24624,-0.85075 -2.33193,-1.72265 -3.27178,-2.52758 -6.37152,-6.30822 -1.90182,-8.50188 -1.92756,-8.48132 0.0194,-0.0246 2.36889,-4.09398 8.58748,2.07682 1.06763,0.89943 2.18733,1.97995 3.2475,3.16983 z"
               style="fill:#000000;fill-opacity:1;fill-rule:nonzero;stroke:#000000;stroke-width:1;stroke-linecap:butt;stroke-linejoin:miter;stroke-miterlimit:4;stroke-dasharray:none;stroke-opacity:1"
               id="path48-3" />
            <path
               d="m 604.60808,293.66155 c 2.78834,3.5438 5.67109,6.99399 8.84075,10.17518"
               style="fill:#000000;fill-opacity:1;fill-rule:nonzero;stroke:#000000;stroke-width:1;stroke-linecap:butt;stroke-linejoin:miter;stroke-miterlimit:4;stroke-dasharray:none;stroke-opacity:1"
               id="path50-6" />
            <path
               d="m 655.22061,287.38371 c 1.01661,-0.24615 -5.66611,-0.41089 -12.8328,-2.18725 -7.19121,-1.8266 -14.95857,-5.29914 -21.25202,-6.31519 -12.9135,-1.64316 -12.44992,3.09993 -12.47956,2.86501 -0.1549,0.1746 -3.29888,3.39618 8.37954,4.84269 5.81269,1.00042 14.21029,2.4225 22.25842,2.53219 8.04059,0.0378 14.99178,-1.57192 15.92642,-1.73745 z"
               style="fill:#000000;fill-opacity:1;fill-rule:nonzero;stroke:#000000;stroke-width:1;stroke-linecap:butt;stroke-linejoin:miter;stroke-miterlimit:4;stroke-dasharray:none;stroke-opacity:1"
               id="path52-0" />
            <path
               d="m 612.31701,281.93989 c -6.35753,-0.38816 -12.83239,-0.31634 -19.52832,0.36841"
               style="fill:#000000;fill-opacity:1;fill-rule:nonzero;stroke:#000000;stroke-width:1;stroke-linecap:butt;stroke-linejoin:miter;stroke-miterlimit:4;stroke-dasharray:none;stroke-opacity:1"
               id="path54-6" />
            <path
               d="m 595.77755,312.47232 c -2.55619,5.15438 -5.676,10.53881 -7.50063,14.81654 -2.0267,4.30011 -2.3954,7.24048 -2.49182,7.76135 0.008,0.47287 -1.18101,-1.60168 -0.6431,-6.30892 0.434,-4.62894 2.62345,-11.14191 4.01501,-16.18894 0.52097,-1.66215 0.78061,-3.03824 1.16932,-4.33789 2.71054,-10.16125 5.65585,-9.34463 5.83915,-9.43914 -0.16125,-0.0506 4.54728,-2.64161 1.73394,7.93005 -0.52448,1.80908 -1.1162,3.80697 -2.12187,5.76695 z"
               style="fill:#000000;fill-opacity:1;fill-rule:nonzero;stroke:#000000;stroke-width:1;stroke-linecap:butt;stroke-linejoin:miter;stroke-miterlimit:4;stroke-dasharray:none;stroke-opacity:1"
               id="path56-2" />
            <path
               d="m 596.74086,286.29999 c 0.33845,4.77805 0.078,9.84804 -1.0754,15.07401"
               style="fill:#000000;fill-opacity:1;fill-rule:nonzero;stroke:#000000;stroke-width:1;stroke-linecap:butt;stroke-linejoin:miter;stroke-miterlimit:4;stroke-dasharray:none;stroke-opacity:1"
               id="path58-6" />
          </g>
          <g
             id="g350"
             style="fill:#000000"
             transform="matrix(1.0286512,0,0,0.93857253,-101.7955,232.55707)" />
        </g>
      </g>
      <g
         id="g1216"
         transform="matrix(0.73161037,0,0,0.73161037,-130.27877,-70.579799)">
        <path
           id="path129"
           style="fill:#000000;stroke:#000000;stroke-width:0.595807px;stroke-linecap:butt;stroke-linejoin:miter;stroke-opacity:1"
           d="m 405.22465,183.22781 c -0.69885,0.004 -1.37081,0.17367 -1.98369,0.4242 -1.95953,0.83615 -3.21458,2.76131 -4.46815,5.27761 l -1.40111,3.13661 -2.80197,6.27348 -5.60446,12.54669 c 2.5998,3.63066 5.44148,2.22968 7.00739,-0.64799 1.61343,-2.965 3.10753,-6.09356 3.10753,-6.09356 2.54044,-5.77611 2.49823,-2.44423 2.49823,-2.44423 l 8.12709,0.28765 c 4.21936,7.72861 9.02066,4.06705 9.02066,4.06705 l -4.71269,-10.22241 -2.35647,-5.11094 -1.17812,-2.5556 c -1.16503,-2.52704 -1.87436,-3.98779 -4.28771,-4.83316 -0.32585,-0.0747 -0.64888,-0.10719 -0.96653,-0.1054 z m -0.25598,7.99547 c 0.294,-0.028 0.52574,0.5461 1.01196,1.41487 0.35581,0.63837 0.80931,1.52078 1.38605,2.73915 l -2.91308,0.10099 c 0,0 -1.29714,2.40452 -2.54599,1.60958 l 1.40865,-3.04159 0.70431,-1.5208 c 0.45322,-0.8945 0.71942,-1.28042 0.9481,-1.3022 z" />
        <path
           id="path125"
           style="fill:#000000;stroke:#000000;stroke-width:0.633944px;stroke-linecap:butt;stroke-linejoin:miter;stroke-opacity:1"
           d="m 369.52282,177.22017 c -4.57458,0.0146 -6.50895,5.31033 -6.50895,5.31033 l -0.13189,24.17929 11.62873,-0.004 5.81421,-0.002 2.90711,-0.001 c 2.7631,-0.001 4.60291,-0.0211 6.73351,-2.03067 0.9749,-0.98192 1.6491,-2.20515 2.02185,-3.47669 0.37273,-1.27155 0.44391,-2.59154 0.21314,-3.76746 -0.44675,-2.21559 -3.18142,-3.15837 -2.75862,-5.68365 1.01014,-1.92241 3.40694,-3.39728 2.86428,-6.26023 -0.11557,-1.62684 -0.81736,-3.08554 -1.70149,-4.30745 -0.88412,-1.22192 -1.95065,-2.20697 -2.79626,-2.88661 -1.54105,-0.76091 -2.75557,-1.10299 -4.69582,-1.05375 h -3.22591 -6.45132 l -3.4188,4.92558 -0.0428,-4.92558 c -0.15309,-0.0109 -0.30337,-0.016 -0.45093,-0.0156 z m 12.80941,7.25091 c 1.20731,0.0542 1.67923,-0.0889 2.24719,0.58023 0.27588,0.37997 0.59995,0.93216 0.79363,1.62152 0.19368,0.68936 0.1859,1.66465 0.0101,2.44397 -0.0879,0.38966 -0.24121,0.77989 -0.47975,1.1602 -0.66956,1.08492 -1.16903,1.10126 -2.39724,1.10723 l -1.40683,0.007 -2.81391,0.0138 -5.62782,0.0275 0.01,2.21032 5.49024,0.0421 2.74537,0.021 1.37255,0.0104 c 1.0862,0.0525 1.65164,-0.0711 2.23524,0.43225 0.27588,0.28797 0.60102,0.72323 0.79753,1.31285 0.19652,0.58962 0.24652,1.72235 0.0849,2.66697 -0.0669,0.39096 -0.20984,0.67197 -0.38318,0.98159 -0.68679,1.02051 -1.18464,1.01088 -2.39646,0.95744 l -1.38839,-0.0148 -1.56882,-0.0485 c -3.25852,-0.008 -6.68644,-0.0166 -9.63465,-0.0239 l 0.10414,-15.45614 10.46254,-0.0452 z" />
        <path
           style="fill:#000000;stroke:#000000;stroke-width:0.624931px;stroke-linecap:butt;stroke-linejoin:miter;stroke-opacity:1"
           d="m 419.73851,202.32843 -0.30705,-13.45001 c 0,0 -0.20095,-4.26595 3.97851,-5.53504 l 14.1546,0.0576 c 0,0 3.05716,0.79861 3.86583,3.61813 v -3.39737 l 11.40861,-0.11891 c 0,0 3.35221,1.39142 3.54482,4.06174 l 0.0993,15.10895 c 0,0 -0.39417,3.28789 -4.2711,4.21832 l -1.77093,-0.0427 v -17.00988 l -9.20529,-0.10056 v 18.6153 c 0,0 -0.68363,4.00282 -3.89231,4.48988 l -2.31188,-0.14456 -0.0452,-22.90895 -9.25161,-0.005 0.12193,17.00318 -1.95339,0.0845 c 0,0 -3.60912,-0.42776 -4.14466,-4.5454 z"
           id="path133" />
        <path
           id="path135"
           style="fill:#000000;stroke:#000000;stroke-width:0.520622px;stroke-linecap:butt;stroke-linejoin:miter;stroke-opacity:1"
           d="m 487.15186,183.14629 c 0,0 -3.90491,0.87944 -3.74514,4.43232 l -0.0478,7.62475 -0.0239,3.81237 -0.012,1.90632 c -0.0202,1.37344 0.1782,2.90916 0.74404,3.9915 0.55753,1.04188 1.47414,2.08216 2.91075,2.07532 2.87322,-0.0137 16.34115,0.0125 16.34115,0.0125 0,0 2.7981,-0.0804 3.32924,-3.66569 l 0.004,-20.00893 -5.96117,-0.10436 -2.19137,1.93124 0.0548,-1.80896 z m 10.30988,3.44243 -0.0228,1.77651 3.71269,0.0301 0.0262,13.63393 -12.45064,-0.18821 0.0628,-13.36966 6.57305,0.0363 z" />
        <path
           id="path1131"
           style="fill:#000000;stroke:#000000;stroke-width:0.506642px;stroke-linecap:butt;stroke-linejoin:miter;stroke-opacity:1"
           d="m 463.36093,183.35865 c -3.65127,0.0117 -5.19506,4.24956 -5.19506,4.24956 l -0.10539,19.34873 9.28157,-0.004 4.64105,-0.002 2.32039,-8e-4 c 2.20541,-8e-4 3.67362,-0.0171 5.37419,-1.62516 0.77813,-0.78575 1.31622,-1.76446 1.61373,-2.78198 0.29751,-1.01751 0.35452,-2.07385 0.17032,-3.01485 -0.35659,-1.77296 -2.53949,-2.52759 -2.20202,-4.54837 0.80626,-1.53836 2.71925,-2.71844 2.28613,-5.00943 -0.0922,-1.30183 -0.65208,-2.46904 -1.35777,-3.44685 -0.70567,-0.9778 -1.55719,-1.76615 -2.23212,-2.31 -1.23003,-0.60891 -2.19934,-0.88262 -3.74799,-0.84322 h -2.57482 -5.1491 l -2.72902,3.94166 -0.034,-3.94166 c -0.12218,-0.009 -0.2423,-0.0128 -0.36008,-0.0125 z m 10.22422,5.80229 c 0.96364,0.0434 1.34007,-0.0713 1.79338,0.46418 0.2202,0.30406 0.47913,0.74615 0.63371,1.29779 0.15459,0.55163 0.14836,1.33201 0.008,1.95564 -0.0702,0.31182 -0.19253,0.62404 -0.38293,0.92837 -0.53442,0.86817 -0.93301,0.88126 -1.91332,0.88604 l -1.12307,0.005 -2.24589,0.0112 -4.49177,0.0218 0.008,1.76872 4.38221,0.0337 2.19111,0.0169 1.09556,0.008 c 0.86697,0.042 1.31823,-0.057 1.78404,0.3458 0.22018,0.23044 0.47971,0.57882 0.63655,1.05064 0.15686,0.47184 0.19678,1.37835 0.0678,2.13426 -0.0534,0.31285 -0.16747,0.53756 -0.30583,0.78532 -0.54816,0.81663 -0.94556,0.80913 -1.9128,0.76637 l -1.10828,-0.0119 -1.25209,-0.0389 c -2.60084,-0.006 -5.33674,-0.0132 -7.68991,-0.019 l 0.0831,-12.3686 8.35086,-0.0358 z" />
        <path
           id="path1137"
           style="fill:#000000;stroke:#000000;stroke-width:0.520622px;stroke-linecap:butt;stroke-linejoin:miter;stroke-opacity:1"
           d="m 513.58794,183.14785 c 0,0 -3.9049,0.87944 -3.74513,4.43232 v 0 l -0.0478,7.62475 -0.0242,3.81237 -0.012,1.90632 c -0.0202,1.37344 0.17819,2.90916 0.74403,3.9915 0.55753,1.04188 1.47414,2.08216 2.91076,2.07532 2.87322,-0.0137 16.34141,0.0125 16.34141,0.0125 0,0 2.79784,-0.0804 3.32897,-3.6657 l 0.004,-20.00892 -5.96091,-0.10436 -2.19136,1.93124 0.0548,-1.80897 z m 10.30989,3.44243 -0.0228,1.77651 3.71293,0.0301 0.026,13.63394 -12.45065,-0.18821 0.0631,-13.36966 6.57282,0.0363 z" />
        <g
           id="g3444"
           transform="matrix(0.50237607,0,0,0.50237607,154.27314,143.67207)">
          <path
             style="fill:#000000;stroke:#000000;stroke-width:2.03455px;stroke-linecap:butt;stroke-linejoin:miter;stroke-opacity:1"
             d="m 643.34424,157.39035 7.11897,-5.7504 38.77316,0.0769 c 0,0 1.11453,7.22387 -5.41201,8.6782 l -7.51635,0.0807 -7.51638,0.0803 -7.51638,0.0807 -1.87907,0.0209 -1.87915,0.0209 -1.87907,0.0209 c -2.43806,-0.26171 -1.87679,0.71485 -1.86971,2.84484 l 0.012,2.82474 0.012,2.82474 c -0.16399,2.66793 0.84021,2.86049 2.70672,2.82261 l 2.69733,-0.002 5.39465,-0.004 5.39466,-0.004 5.39466,-0.004 c 0,0 -1.28287,7.1969 -5.75288,7.52667 -1.75331,0.12918 -5.76002,0.1551 -9.32837,0.14883 -1.7842,-0.003 -3.45875,-0.0167 -4.6873,-0.0251 -2.3508,-0.2174 -2.01026,0.12918 -1.99818,2.31106 l 0.012,2.3313 0.012,2.33134 c -0.0744,2.15608 -0.29718,2.33041 1.80116,2.33631 l 1.78831,0.004 1.78827,0.004 1.78828,0.004 7.15304,0.0209 7.15314,0.0209 7.15309,0.0209 c 0,0 6.26,1.16895 6.77688,8.43554 l -33.17909,0.0209 -0.12279,-2.03535 c 0.18599,-3.17311 -1.01912,-1.09596 -2.19108,0.0577 -1.29327,1.04504 -3.10438,2.08723 -5.17599,2.07615 l -5.00924,0.0126 z"
             id="path30"
             sodipodi:nodetypes="ccccccccccccccccccsscccccccccccccccccc" />
          <path
             style="fill:#000000;stroke:#000000;stroke-width:2.29294px;stroke-linecap:butt;stroke-linejoin:miter;stroke-opacity:1"
             d="m 693.52006,161.63758 0.15479,-9.97328 4.07496,0.0207 c 4.29296,-0.72178 5.16172,1.50027 7.84662,5.15288 l 3.77147,5.13063 3.77179,5.1307 c 3.42465,4.35777 5.59596,2.72206 7.61689,0.0525 l 3.84603,-5.08103 3.84581,-5.08107 c 2.09974,-2.56643 3.49296,-5.07547 7.27828,-5.13668 l 3.43257,-0.0556 0.0591,9.70091 -4.5546,5.17204 -4.55408,5.17197 -4.55409,5.17202 c -3.00354,3.16265 -5.2151,5.56199 -4.57435,10.30606 l -0.0397,5.13407 v 5.13397 l -0.0397,5.13407 c 0,0 -0.8663,7.7409 -10.33886,6.41098 l -0.0397,-27.00701 z"
             id="path20-2-1"
             sodipodi:nodetypes="cccccccccccccccccccccc" />
          <path
             style="fill:#000000;stroke:#000000;stroke-width:2.03455px;stroke-linecap:butt;stroke-linejoin:miter;stroke-opacity:1"
             d="m 744.16817,156.90563 7.11861,-5.7504 38.7731,0.0769 c 0,0 1.1145,7.22387 -5.412,8.6782 l -7.5163,0.0807 -7.5164,0.0803 -7.5164,0.0807 -1.8791,0.0209 -1.8791,0.0209 -1.8791,0.0209 c -2.4381,-0.26171 -1.8768,0.71485 -1.8697,2.84484 l 0.012,2.82474 0.012,2.82474 c -0.164,2.66793 0.8402,2.86049 2.7067,2.82261 l 2.6973,-0.002 5.3947,-0.004 5.3947,-0.004 5.3946,-0.004 c 0,0 -1.2829,7.1969 -5.7529,7.52667 -1.7533,0.12918 -5.76,0.1551 -9.3283,0.14883 -1.7842,-0.003 -3.4588,-0.0167 -4.6873,-0.0251 -2.3508,-0.2174 -2.0103,0.12918 -1.9982,2.31106 l 0.012,2.3313 0.012,2.33134 c -0.074,2.15608 -0.2972,2.33041 1.8011,2.33631 l 1.7884,0.004 1.7882,0.004 1.7883,0.004 7.153,0.0209 7.1532,0.0209 7.1531,0.0209 c 0,0 6.26,1.16895 6.7769,8.43554 l -33.1791,0.0209 -0.1228,-2.03535 c 0.186,-3.17311 -1.0191,-1.09596 -2.1911,0.0577 -1.2933,1.04504 -3.1044,2.08723 -5.17591,2.07615 l -5.0089,0.0126 z"
             id="path1143"
             sodipodi:nodetypes="ccccccccccccccccccsscccccccccccccccccc" />
        </g>
      </g>
    </g>
  </g>
</svg>
