<?xml version="1.0" encoding="UTF-8" standalone="no"?>
<!-- Created with Inkscape (http://www.inkscape.org/) -->

<svg
   width="297mm"
   height="210mm"
   viewBox="0 0 297 210"
   version="1.1"
   id="svg911"
   inkscape:version="1.1.1 (3bf5ae0d25, 2021-09-20)"
   sodipodi:docname="GloriLux.svg"
   xmlns:inkscape="http://www.inkscape.org/namespaces/inkscape"
   xmlns:sodipodi="http://sodipodi.sourceforge.net/DTD/sodipodi-0.dtd"
   xmlns="http://www.w3.org/2000/svg"
   xmlns:svg="http://www.w3.org/2000/svg">
  <sodipodi:namedview
     id="namedview913"
     pagecolor="#ffffff"
     bordercolor="#666666"
     borderopacity="1.0"
     inkscape:pageshadow="2"
     inkscape:pageopacity="0.0"
     inkscape:pagecheckerboard="0"
     inkscape:document-units="mm"
     showgrid="false"
     inkscape:zoom="0.42582772"
     inkscape:cx="816.05772"
     inkscape:cy="473.19606"
     inkscape:window-width="1366"
     inkscape:window-height="705"
     inkscape:window-x="-8"
     inkscape:window-y="-8"
     inkscape:window-maximized="1"
     inkscape:current-layer="layer1" />
  <defs
     id="defs908" />
  <g
     inkscape:label="Layer 1"
     inkscape:groupmode="layer"
     id="layer1">
    <rect
       style="fill:#ffffff;stroke:#000000;stroke-width:0.1;stroke-opacity:0.965035"
       id="rect1156"
       width="299.48535"
       height="212.49791"
       x="-1.2426778"
       y="1.2426778" />
    <g
       id="g1406"
       transform="translate(-5.9520439,8.3898897)">
      <g
         id="g48787"
         transform="matrix(8.9433425,0,0,8.9433425,-1457.1896,-146.08055)">
        <g
           aria-label="G"
           id="text25574"
           style="font-size:10.5833px;line-height:1.25;font-family:BlackChancery;-inkscape-font-specification:'BlackChancery, Normal';stroke-width:0.264583"
           transform="matrix(0.64281934,0,0,0.64281934,64.924441,8.7934179)">
          <path
             d="m 177.84721,19.023185 c 0.36689,0 0.91016,0.06703 1.62983,0.201083 0.72672,0.134055 1.18886,0.201083 1.38641,0.201083 -0.21872,0.423332 -0.35983,0.730248 -0.42333,0.920747 -0.0635,0.183444 -0.11645,0.416277 -0.15875,0.698498 -0.22577,-0.649109 -0.58561,-1.097136 -1.0795,-1.344079 -0.49389,-0.246944 -1.12536,-0.370416 -1.89441,-0.370416 -0.93839,0 -1.60161,0.306916 -1.98966,0.920747 -0.38099,0.613831 -0.57149,1.396996 -0.57149,2.349493 0,1.319385 0.27516,2.472964 0.82549,3.460739 0.55739,0.980719 1.37583,1.471078 2.45533,1.471078 0.63499,0 1.14652,-0.183444 1.53458,-0.550331 0.39511,-0.359833 0.59266,-0.850192 0.59266,-1.471079 0,-0.613831 -0.14464,-0.987775 -0.43391,-1.12183 -0.28928,-0.134055 -0.8255,-0.201082 -1.60867,-0.201082 -0.35983,0 -0.69496,0.03528 -1.00541,0.105833 -0.31044,0.07055 -0.58208,0.271638 -0.81491,0.603248 0,-0.338666 0.18344,-0.687915 0.55033,-1.047747 0.37394,-0.366888 0.82549,-0.550332 1.35466,-0.550332 0.18345,0 0.37395,0.0035 0.5715,0.01058 h 0.60325 c 0.69849,0 1.2841,-0.01764 1.75682,-0.05292 0.47273,-0.03528 0.83609,-0.105835 1.09008,-0.211666 -0.0988,0.268111 -0.2928,0.539749 -0.58208,0.814914 -0.28222,0.275166 -0.68086,0.412749 -1.19591,0.412749 1.15219,1.647147 0.008,4.044539 -2.72121,3.915161 -1.50988,0 -2.57394,-0.786032 -3.25833,-1.597418 -0.67733,-0.811387 -1.016,-1.760356 -1.016,-2.846908 0,-1.439329 0.38453,-2.585853 1.15358,-3.439572 0.77611,-0.85372 1.85913,-1.28058 3.24907,-1.28058 z"
             id="path32872"
             sodipodi:nodetypes="sccccsscscscssssccscsscccccscss" />
          <path
             d="m 177.84721,19.023185 c 0.36689,0 0.91016,0.06703 1.62983,0.201083 0.72672,0.134055 1.18886,0.201083 1.38641,0.201083 -0.21872,0.423332 -0.35983,0.730248 -0.42333,0.920747 -0.0635,0.183444 -0.11645,0.416277 -0.15875,0.698498 -0.22577,-0.649109 -0.58561,-1.097136 -1.0795,-1.344079 -0.49389,-0.246944 -1.12536,-0.370416 -1.89441,-0.370416 -0.93839,0 -1.60161,0.306916 -1.98966,0.920747 -0.38099,0.613831 -0.57149,1.396996 -0.57149,2.349493 0,1.319385 0.27516,2.472964 0.82549,3.460739 0.55739,0.980719 1.37583,1.471078 2.45533,1.471078 0.63499,0 1.14652,-0.183444 1.53458,-0.550331 0.39511,-0.359833 0.59266,-0.850192 0.59266,-1.471079 0,-0.613831 -0.14464,-0.987775 -0.43391,-1.12183 -0.28928,-0.134055 -0.8255,-0.201082 -1.60867,-0.201082 -0.35983,0 -0.69496,0.03528 -1.00541,0.105833 -0.31044,0.07055 -0.58208,0.271638 -0.81491,0.603248 0,-0.338666 0.18344,-0.687915 0.55033,-1.047747 0.37394,-0.366888 0.82549,-0.550332 1.35466,-0.550332 0.18345,0 0.37395,0.0035 0.5715,0.01058 h 0.60325 c 0.69849,0 1.2841,-0.01764 1.75682,-0.05292 0.47273,-0.03528 0.83609,-0.105835 1.09008,-0.211666 -0.0988,0.268111 -0.2928,0.539749 -0.58208,0.814914 -0.28222,0.275166 -0.68086,0.412749 -1.19591,0.412749 1.15219,1.647147 0.008,4.044539 -2.72121,3.915161 -1.50988,0 -2.57394,-0.786032 -3.25833,-1.597418 -0.67733,-0.811387 -1.016,-1.760356 -1.016,-2.846908 0,-1.439329 0.38453,-2.585853 1.15358,-3.439572 0.77611,-0.85372 1.85913,-1.28058 3.24907,-1.28058 z"
             id="path34785"
             sodipodi:nodetypes="sccccsscscscssssccscsscccccscss" />
        </g>
        <path
           id="text40348"
           style="font-style:normal;font-variant:normal;font-weight:normal;font-stretch:normal;font-size:10.5833px;line-height:1.25;font-family:BlackChancery;-inkscape-font-specification:'BlackChancery, Normal';font-variant-ligatures:normal;font-variant-caps:normal;font-variant-numeric:normal;font-variant-east-asian:normal;fill:#000000;fill-opacity:1;stroke:none;stroke-width:0.201931"
           d="m 176.67503,19.844745 c 0.44814,0.163236 0.84959,0.133324 1.18181,0.404275 0.17187,0.134972 0.25805,0.321187 0.25805,0.558739 v 3.554894 c 0.25971,-0.298312 0.60511,-0.702792 0.99535,-0.759981 l 0.0117,-2.851855 c 0.001,-0.242948 0.0643,-0.423751 0.19314,-0.542527 0.1289,-0.118775 0.49151,-0.242919 1.08767,-0.372492 z"
           sodipodi:nodetypes="ccsccsscc" />
      </g>
      <g
         id="g48804"
         transform="matrix(8.9433425,0,0,8.9433425,-1620.4615,-81.008418)">
        <g
           aria-label="G"
           id="g36594"
           style="font-size:10.5833px;line-height:1.25;font-family:BlackChancery;-inkscape-font-specification:'BlackChancery, Normal';stroke-width:0.264583"
           transform="matrix(0.5651096,0,0,0.64281934,87.350931,9.0740509)">
          <path
             d="m 177.84721,19.023185 c 0.36689,0 0.91016,0.06703 1.62983,0.201083 0.72672,0.134055 1.18886,0.201083 1.38641,0.201083 -0.21872,0.423332 -0.35983,0.730248 -0.42333,0.920747 -0.0635,0.183444 -0.11645,0.416277 -0.15875,0.698498 -0.22577,-0.649109 -0.58561,-1.097136 -1.0795,-1.344079 -0.49389,-0.246944 -1.12536,-0.370416 -1.89441,-0.370416 -0.93839,0 -1.60161,0.306916 -1.98966,0.920747 -0.38099,0.613831 -0.57149,1.396996 -0.57149,2.349493 0,1.319385 0.27516,2.472964 0.82549,3.460739 0.55739,0.980719 1.37583,1.471078 2.45533,1.471078 0.63499,0 1.14652,-0.183444 1.53458,-0.550331 0.39511,-0.359833 0.59266,-0.850192 0.59266,-1.471079 0,-0.613831 -0.14464,-0.987775 -0.43391,-1.12183 -0.28928,-0.134055 -0.8255,-0.201082 -1.60867,-0.201082 -0.35983,0 -0.69496,0.03528 -1.00541,0.105833 -0.31044,0.07055 -0.58208,0.271638 -0.81491,0.603248 0,-0.338666 0.18344,-0.687915 0.55033,-1.047747 0.37394,-0.366888 0.82549,-0.550332 1.35466,-0.550332 0.18345,0 0.37395,0.0035 0.5715,0.01058 h 0.60325 c 0.69849,0 1.2841,-0.01764 1.75682,-0.05292 0.47273,-0.03528 0.83609,-0.105835 1.09008,-0.211666 -0.0988,0.268111 -0.2928,0.539749 -0.58208,0.814914 -0.28222,0.275166 -0.68086,0.412749 -1.19591,0.412749 1.15219,1.647147 0.008,4.044539 -2.72121,3.915161 -1.50988,0 -2.57394,-0.786032 -3.25833,-1.597418 -0.67733,-0.811387 -1.016,-1.760356 -1.016,-2.846908 0,-1.439329 0.38453,-2.585853 1.15358,-3.439572 0.77611,-0.85372 1.85913,-1.28058 3.24907,-1.28058 z"
             id="path36590"
             sodipodi:nodetypes="sccccsscscscssssccscsscccccscss" />
          <path
             d="m 177.84721,19.023185 c 0.36689,0 0.91016,0.06703 1.62983,0.201083 0.72672,0.134055 1.18886,0.201083 1.38641,0.201083 -0.21872,0.423332 -0.35983,0.730248 -0.42333,0.920747 -0.0635,0.183444 -0.11645,0.416277 -0.15875,0.698498 -0.22577,-0.649109 -0.58561,-1.097136 -1.0795,-1.344079 -0.49389,-0.246944 -1.12536,-0.370416 -1.89441,-0.370416 -0.93839,0 -1.60161,0.306916 -1.98966,0.920747 -0.38099,0.613831 -0.57149,1.396996 -0.57149,2.349493 0,1.319385 0.27516,2.472964 0.82549,3.460739 0.55739,0.980719 1.37583,1.471078 2.45533,1.471078 0.63499,0 1.14652,-0.183444 1.53458,-0.550331 0.39511,-0.359833 0.59266,-0.850192 0.59266,-1.471079 0,-0.613831 -0.14464,-0.987775 -0.43391,-1.12183 -0.28928,-0.134055 -0.8255,-0.201082 -1.60867,-0.201082 -0.35983,0 -0.69496,0.03528 -1.00541,0.105833 -0.31044,0.07055 -0.58208,0.271638 -0.81491,0.603248 0,-0.338666 0.18344,-0.687915 0.55033,-1.047747 0.37394,-0.366888 0.82549,-0.550332 1.35466,-0.550332 0.18345,0 0.37395,0.0035 0.5715,0.01058 h 0.60325 c 0.69849,0 1.2841,-0.01764 1.75682,-0.05292 0.47273,-0.03528 0.83609,-0.105835 1.09008,-0.211666 -0.0988,0.268111 -0.2928,0.539749 -0.58208,0.814914 -0.28222,0.275166 -0.68086,0.412749 -1.19591,0.412749 1.15219,1.647147 0.008,4.044539 -2.72121,3.915161 -1.50988,0 -2.57394,-0.786032 -3.25833,-1.597418 -0.67733,-0.811387 -1.016,-1.760356 -1.016,-2.846908 0,-1.439329 0.38453,-2.585853 1.15358,-3.439572 0.77611,-0.85372 1.85913,-1.28058 3.24907,-1.28058 z"
             id="path36592"
             sodipodi:nodetypes="sccccsscscscssssccscsscccccscss" />
        </g>
        <path
           d="m 191.96203,27.096041 v 0 q 0.0498,0.03944 0.11416,0.04359 0.0643,0.0042 0.12869,-0.0021 0.0207,-0.0021 0.0415,-0.0042 v 0.04359 h -1.78293 v -0.04359 q 0.0208,0.0021 0.0415,0.0042 0.0664,0.0062 0.12869,0.0021 0.0643,-0.0042 0.11416,-0.04359 0.12246,-0.110006 0.16189,-0.257373 0.0394,-0.147366 0.0374,-0.240768 v -4.337974 q -0.004,-0.08095 -0.0332,-0.126611 -0.0291,-0.04774 -0.0706,-0.06642 -0.0394,-0.02076 -0.0789,-0.02491 -0.0394,-0.0042 -0.0685,0 -0.0291,0.0021 -0.0332,0.0042 v -0.04359 q 0.14321,0.0062 0.28643,-0.03736 0.16189,-0.04981 0.30719,-0.134914 0.14736,-0.08717 0.26152,-0.176424 0.11208,-0.08925 0.1785,-0.151518 0.0664,-0.06434 0.0664,-0.06434 v 5.157831 q -0.002,0.0934 0.0374,0.242843 0.0394,0.147367 0.16189,0.257373 z"
           id="path39954"
           style="font-size:4.2508px;line-height:1.25;font-family:Buljirya;-inkscape-font-specification:'Buljirya, Normal';stroke-width:0.10627" />
        <path
           d="m 194.16838,27.210198 q -0.37153,0 -0.70985,-0.139064 -0.33832,-0.14114 -0.60399,-0.406815 -0.26568,-0.265675 -0.40682,-0.603995 -0.13906,-0.338321 -0.13906,-0.709851 0,-0.373605 0.13906,-0.70985 0.14114,-0.338321 0.40682,-0.603996 0.26567,-0.265675 0.60399,-0.404739 0.33832,-0.14114 0.70985,-0.14114 0.37361,0 0.71193,0.14114 0.33832,0.139064 0.60192,0.404739 0.26567,0.265675 0.40474,0.603996 0.14114,0.336245 0.14114,0.70985 0,0.37153 -0.14114,0.709851 -0.13907,0.33832 -0.40474,0.603995 -0.2636,0.265675 -0.60192,0.406815 -0.33832,0.139064 -0.71193,0.139064 z m 0,-0.08302 0.0809,-0.0021 q 0.24284,-0.04359 0.43587,-0.286431 0.19303,-0.244919 0.30511,-0.633053 0.11416,-0.39021 0.11416,-0.857217 0,-0.46078 -0.11208,-0.844764 -0.11001,-0.386059 -0.30096,-0.630978 -0.18888,-0.246995 -0.42757,-0.296809 l -0.0955,-0.0021 q -0.0498,0 -0.0976,0.0021 -0.23869,0.05189 -0.42965,0.296809 -0.18887,0.244919 -0.30096,0.630978 -0.11,0.383984 -0.11,0.844764 0,0.467007 0.11415,0.855141 0.11416,0.388135 0.30512,0.633054 0.19303,0.244919 0.43587,0.288506 z"
           id="path39956"
           style="font-size:4.2508px;line-height:1.25;font-family:Buljirya;-inkscape-font-specification:'Buljirya, Normal';stroke-width:0.10627" />
        <path
           d="m 198.87789,23.542638 v 0 q 0,0.01453 0,0.105855 0.002,0.09133 0.004,0.207558 0.002,0.114158 0.002,0.203408 0.002,0.08925 0.002,0.08925 0,0 -0.11208,-0.03321 -0.11001,-0.03321 -0.28643,-0.04774 -0.17435,-0.01453 -0.37568,0.03113 -0.20134,0.04359 -0.39021,0.190954 -0.15982,0.232465 -0.24077,0.419268 -0.0789,0.184727 -0.0851,0.226239 v 1.66255 q -0.002,0.0934 0.0374,0.240768 0.0394,0.147367 0.16189,0.259449 0.0498,0.03736 0.11416,0.04151 0.0644,0.0042 0.12869,-0.0021 0.0207,-0.0021 0.0415,-0.0021 v 0.04151 h -1.78293 v -0.04151 q 0.0208,0 0.0415,0.0021 0.0664,0.0062 0.12869,0.0021 0.0643,-0.0042 0.11416,-0.04151 0.12038,-0.110006 0.15982,-0.257373 0.0394,-0.147367 0.0394,-0.240768 v -2.210499 q 0,-0.08925 -0.029,-0.139064 -0.027,-0.04981 -0.0685,-0.07265 -0.0394,-0.02283 -0.081,-0.02698 -0.0415,-0.0042 -0.0726,0 -0.0291,0.0021 -0.0332,0.0042 v -0.04359 q 0.14321,0.0062 0.28435,-0.03736 0.16397,-0.05189 0.30927,-0.136989 0.14736,-0.0851 0.25944,-0.176425 0.11416,-0.08925 0.1785,-0.151517 0.0664,-0.06434 0.0664,-0.06434 l 0.002,1.154026 q 0.0187,-0.04566 0.0436,-0.09755 0.083,-0.174349 0.22623,-0.375681 0.21587,-0.294734 0.48569,-0.467007 0.33417,-0.21171 0.72646,-0.215861 z"
           id="path39958"
           style="font-size:4.2508px;line-height:1.25;font-family:Buljirya;-inkscape-font-specification:'Buljirya, Normal';stroke-width:0.10627" />
        <path
           style="font-size:4.2508px;line-height:1.25;font-family:Buljirya;-inkscape-font-specification:'Buljirya, Normal';stroke-width:0.10627"
           d="m 200.34948,23.023634 v 0 l -0.51267,0.514745 -0.51475,-0.514745 0.51475,-0.51267 z"
           id="path48682" />
        <path
           style="font-size:4.2508px;line-height:1.25;font-family:Buljirya;-inkscape-font-specification:'Buljirya, Normal';stroke-width:0.10627"
           d="m 200.44288,27.093966 v 0 q 0.0498,0.03944 0.11416,0.04359 0.0643,0.0042 0.12868,-0.0021 0.0228,-0.0021 0.0436,-0.0021 v 0.04151 h -1.785 v -0.04151 q 0.0207,0 0.0436,0.0021 0.0644,0.0062 0.12869,0.0021 0.0643,-0.0042 0.11416,-0.04359 0.12038,-0.110007 0.15982,-0.255298 0.0394,-0.147366 0.0394,-0.240768 v -2.210499 q -0.002,-0.08925 -0.0291,-0.139064 -0.027,-0.04981 -0.0685,-0.07264 -0.0415,-0.02283 -0.083,-0.02698 -0.0415,-0.0042 -0.0706,0 -0.0291,0.0021 -0.0353,0.0042 v -0.04359 q 0.14529,0.0062 0.28643,-0.03736 0.16397,-0.05189 0.30927,-0.136988 0.14529,-0.0851 0.25944,-0.17435 0.11416,-0.09132 0.1785,-0.153593 0.0664,-0.06434 0.0664,-0.06434 v 3.051111 q 0,0.09548 0.0394,0.242844 0.0394,0.147366 0.15982,0.257373 z"
           id="path39960" />
        <path
           d="m 207.83425,27.093966 v 0 q 0.0498,0.03944 0.11208,0.04359 0.0643,0.0042 0.13076,-0.0021 0.0208,-0.0021 0.0415,-0.0021 v 0.04151 q -0.0602,0 -0.18058,0 -0.11831,0 -0.24284,0 -0.17643,-0.0021 -0.247,-0.0021 -0.0374,0 -0.0747,0.0021 -0.0768,0.0021 -0.15359,-0.0021 -0.0768,-0.0042 -0.14945,-0.03321 -0.19303,-0.09548 -0.23039,-0.278128 -0.0374,-0.184727 -0.0228,-0.381908 0.002,-0.06019 0.002,-0.116233 -0.27398,0.242844 -0.59154,0.458705 -0.31757,0.213785 -0.67664,0.313413 v 0 q -0.13492,0.03528 -0.27398,0.04151 v 0 q -0.23039,0 -0.40059,-0.114157 -0.16812,-0.116233 -0.26568,-0.323792 -0.11208,-0.253221 -0.13491,-0.525123 -0.0228,-0.271902 -0.0145,-0.545879 0.002,-0.08302 0.002,-0.163971 0,-0.130762 0,-0.315489 0,-0.186803 0,-0.37153 0,-0.184727 0,-0.309263 0,-0.12661 0,-0.12661 -0.002,-0.08925 -0.0291,-0.139065 -0.027,-0.04981 -0.0685,-0.07265 -0.0415,-0.02283 -0.083,-0.02698 -0.0415,-0.0062 -0.0706,-0.0021 -0.0291,0.0042 -0.0353,0.0042 v -0.04151 q 0.14529,0.0042 0.28643,-0.03944 0.16397,-0.04981 0.30926,-0.134913 0.14529,-0.08717 0.25945,-0.176425 0.11416,-0.08925 0.1785,-0.151518 0.0664,-0.06434 0.0664,-0.06434 v 2.467872 q 0,0.06434 -0.002,0.132837 -0.008,0.128687 -0.002,0.259449 0.008,0.128686 0.054,0.238692 0.0747,0.153593 0.21171,0.186803 0.13699,0.03113 0.29058,-0.0062 0.15567,-0.03736 0.28021,-0.0934 0.39228,-0.178501 0.70985,-0.469083 0,-0.03944 0,-0.330018 0,-0.290582 0,-0.645507 0,-0.354925 0,-0.624752 0,-0.271901 0,-0.271901 0,-0.08717 -0.0291,-0.136989 -0.027,-0.05189 -0.0685,-0.07472 -0.0394,-0.02283 -0.081,-0.02698 -0.0415,-0.0042 -0.0727,0 -0.0291,0.0021 -0.0332,0.0042 v -0.04359 q 0.14322,0.0062 0.28436,-0.03736 0.16397,-0.04981 0.30926,-0.134914 0.14737,-0.08717 0.26152,-0.176424 0.11209,-0.08925 0.1785,-0.151518 0.0664,-0.06434 0.0664,-0.06434 l -0.002,2.783361 q 0,0.03736 0,0.07472 -0.008,0.190954 0.0228,0.379832 0.0311,0.186803 0.1785,0.317565 z"
           id="path39964"
           style="font-size:4.2508px;line-height:1.25;font-family:Buljirya;-inkscape-font-specification:'Buljirya, Normal';stroke-width:0.10627" />
        <path
           d="m 211.55785,27.183216 h -1.00458 q -0.15567,-0.01453 -0.24907,-0.139065 -0.0125,-0.0166 -0.73891,-1.274409 l -0.15567,0.269826 q -0.1536,0.261524 -0.5106,0.8842 -0.004,0.02076 -0.004,0.04151 0,0.04151 0.0291,0.07887 0.0581,0.06642 0.22832,0.08302 l 0.16189,0.0062 v 0.04566 h -1.02326 v -0.04566 l 0.0581,-0.0021 q 0.056,0 0.14114,-0.01868 0.20964,-0.04566 0.3238,-0.207559 l 0.23246,-0.402663 q 0.35077,-0.612298 0.47116,-0.815706 l -1.0627,-1.838969 q -0.0643,-0.10793 -0.13491,-0.161896 -0.0685,-0.05397 -0.12869,-0.07057 -0.0581,-0.0166 -0.0955,-0.0166 l -0.0457,0.0021 v -0.04566 h 0.9008 q 0.12869,0 0.23662,0.06434 0.11001,0.06227 0.17643,0.174349 l 0.62267,1.077229 q 0.0104,-0.01868 0.12039,-0.209634 0.11,-0.190954 0.25114,-0.433798 0.14114,-0.242843 0.24284,-0.421344 0.006,-0.02283 0.006,-0.04151 0,-0.0934 -0.12453,-0.136989 -0.10171,-0.03321 -0.22832,-0.03321 h -0.0685 v -0.04566 h 1.02534 v 0.04566 h -0.0581 q -0.0602,0.0021 -0.14737,0.02283 -0.0872,0.01868 -0.17642,0.07057 -0.0872,0.05189 -0.14944,0.149442 l -0.64551,1.116665 1.13535,1.96558 q 0.0643,0.09548 0.13076,0.145291 0.0685,0.04774 0.12246,0.06227 0.056,0.01245 0.0892,0.01245 h 0.0457 z"
           id="path39966"
           style="font-size:4.2508px;line-height:1.25;font-family:Buljirya;-inkscape-font-specification:'Buljirya, Normal';stroke-width:0.10627" />
        <g
           id="g48425"
           transform="matrix(0.87012188,0,0,1.1822935,51.273016,6.2802257)">
          <path
             id="path42469"
             style="font-style:normal;font-variant:normal;font-weight:normal;font-stretch:normal;font-size:10.5833px;line-height:1.25;font-family:BlackChancery;-inkscape-font-specification:'BlackChancery, Normal';font-variant-ligatures:normal;font-variant-caps:normal;font-variant-numeric:normal;font-variant-east-asian:normal;fill:#000000;fill-opacity:1;stroke:none;stroke-width:0.201931"
             d="m 170.36079,13.156325 c 0.44814,0.163236 0.84959,0.133324 1.18181,0.404275 0.17187,0.134972 0.25805,0.321187 0.25805,0.558739 v 3.554894 c 0.25971,-0.298312 0.60511,-0.702792 0.99535,-0.759981 l 0.0117,-2.851855 c 10e-4,-0.242948 0.0643,-0.423751 0.19314,-0.542527 0.1289,-0.118775 0.49151,-0.242919 1.08767,-0.372492 z"
             sodipodi:nodetypes="ccsccsscc" />
          <g
             aria-label="G"
             id="g47005"
             style="font-size:10.5833px;line-height:1.25;font-family:BlackChancery;-inkscape-font-specification:'BlackChancery, Normal';stroke-width:0.264583"
             transform="matrix(0.64281934,0,0,0.64281934,58.680357,2.128384)">
            <path
               d="m 179.72046,24.388918 c -0.31769,-0.02699 -0.8255,-0.201082 -1.60867,-0.201082 -0.35983,0 -0.69496,0.03528 -1.00541,0.105833 -0.31044,0.07055 -0.58208,0.271638 -0.81491,0.603248 0,-0.338666 0.18344,-0.687915 0.55033,-1.047747 0.37394,-0.366888 0.82549,-0.550332 1.35466,-0.550332 0.18345,0 0.37395,0.0035 0.5715,0.01058 h 0.60325 c 0.69849,0 1.2841,-0.01764 1.75682,-0.05292 0.47273,-0.03528 0.83609,-0.105835 1.09008,-0.211666 -0.0988,0.268111 -0.2928,0.539749 -0.58208,0.814914 -0.28222,0.275166 -0.65035,0.480493 -1.16408,0.517343 -0.27923,0.02003 -0.41078,0.04078 -0.75149,0.01183 z"
               id="path47001"
               sodipodi:nodetypes="sssccscssccss" />
            <path
               d="m 179.72046,24.388918 c -0.28928,-0.134055 -0.8255,-0.201082 -1.60867,-0.201082 -0.35983,0 -0.69496,0.03528 -1.00541,0.105833 -0.31044,0.07055 -0.58208,0.271638 -0.81491,0.603248 0,-0.338666 0.18344,-0.687915 0.55033,-1.047747 0.37394,-0.366888 0.82549,-0.550332 1.35466,-0.550332 0.18345,0 0.37395,0.0035 0.5715,0.01058 h 0.60325 c 0.69849,0 1.2841,-0.01764 1.75682,-0.05292 0.47273,-0.03528 0.83609,-0.105835 1.09008,-0.211666 -0.0988,0.268111 -0.2928,0.539749 -0.58208,0.814914 -0.28222,0.275166 -0.68086,0.412749 -1.19591,0.412749"
               id="path47003"
               sodipodi:nodetypes="cssccscssccc" />
          </g>
        </g>
      </g>
    </g>
  </g>
</svg>
