<?xml version="1.0" encoding="UTF-8" standalone="no"?>
<!-- Created with Inkscape (http://www.inkscape.org/) -->

<svg
   width="297mm"
   height="210mm"
   viewBox="0 0 297 210"
   version="1.1"
   id="svg5"
   inkscape:version="1.1.2 (0a00cf5339, 2022-02-04)"
   sodipodi:docname="Jacob Denim.svg"
   xmlns:inkscape="http://www.inkscape.org/namespaces/inkscape"
   xmlns:sodipodi="http://sodipodi.sourceforge.net/DTD/sodipodi-0.dtd"
   xmlns="http://www.w3.org/2000/svg"
   xmlns:svg="http://www.w3.org/2000/svg">
  <sodipodi:namedview
     id="namedview7"
     pagecolor="#ffffff"
     bordercolor="#666666"
     borderopacity="1.0"
     inkscape:pageshadow="2"
     inkscape:pageopacity="0.0"
     inkscape:pagecheckerboard="0"
     inkscape:document-units="mm"
     showgrid="false"
     inkscape:zoom="0.32814034"
     inkscape:cx="611.01905"
     inkscape:cy="524.16597"
     inkscape:window-width="1336"
     inkscape:window-height="685"
     inkscape:window-x="0"
     inkscape:window-y="31"
     inkscape:window-maximized="1"
     inkscape:current-layer="layer1" />
  <defs
     id="defs2" />
  <g
     inkscape:label="Layer 1"
     inkscape:groupmode="layer"
     id="layer1">
    <rect
       style="fill:#ffffff;stroke:#000500;stroke-width:0.2;stroke-opacity:0.996723;paint-order:markers fill stroke"
       id="rect4325"
       width="297.84866"
       height="210.14038"
       x="0.39995688"
       y="1.0586529" />
    <g
       id="g4301"
       transform="matrix(1.4629936,0,0,1.4629936,-69.96913,-43.170499)">
      <g
         aria-label="D"
         id="text7272"
         style="font-size:10.5833px;line-height:1.25;font-family:Harrington;-inkscape-font-specification:'Harrington, Normal';stroke-width:0.264583" />
      <g
         aria-label="J"
         id="text25101"
         style="font-size:10.5833px;line-height:1.25;font-family:BlackChancery;-inkscape-font-specification:'BlackChancery, Normal';stroke-width:0.264583" />
      <g
         aria-label="D"
         id="text27863"
         style="font-size:13.4226px;line-height:1.25;font-family:Harrington;-inkscape-font-specification:'Harrington, Normal';stroke-width:0.335566" />
      <path
         id="path29681"
         style="fill:#000000;stroke:#000000;stroke-width:0.328868;stroke-opacity:0.965035"
         d="m 98.807265,82.549921 c -0.20291,0 -0.40504,0.003 -0.60502,0.01 -0.19995,0.007 -0.39948,0.0165 -0.5965,0.0296 -0.19699,0.0132 -0.39227,0.0296 -0.58633,0.051 -0.19404,0.0197 -0.38675,0.0457 -0.57783,0.073 -0.19107,0.0263 -0.37951,0.0575 -0.56762,0.0917 -0.18811,0.0342 -0.3757,0.071 -0.56082,0.11215 -0.18515,0.0411 -0.36846,0.0862 -0.55062,0.13417 -0.1822,0.048 -0.36297,0.1 -0.54214,0.15457 -0.17923,0.0549 -0.35573,0.11182 -0.53194,0.17331 -0.17627,0.0615 -0.35189,0.12695 -0.5251,0.19535 -0.17332,0.0684 -0.34472,0.14043 -0.51495,0.21574 -0.17035,0.0753 -0.33919,0.15391 -0.50645,0.23612 -0.16739,0.0822 -0.33196,0.16773 -0.49623,0.25652 -0.16443,0.0891 -0.32821,0.18285 -0.48945,0.27888 -0.16147,0.0957 -0.32098,0.19469 -0.47926,0.2973 -0.15851,0.1026 -0.31538,0.20817 -0.47074,0.31768 -0.94795,0.79501 -1.21782,0.84021 -2.52373,0.86154 h -8.53813 c -0.16387,0 -0.32795,0.003 -0.48945,0.01 -0.1615,0.007 -0.32179,0.0132 -0.48094,0.0263 -0.15918,0.0132 -0.31565,0.0263 -0.47246,0.0441 -0.1568,0.0164 -0.31291,0.0395 -0.46735,0.0628 -0.15444,0.023 -0.30848,0.0487 -0.46056,0.0783 -0.1521,0.0296 -0.30233,0.0631 -0.45206,0.0987 -0.14973,0.0352 -0.29789,0.0727 -0.44526,0.11378 -0.14736,0.0411 -0.29345,0.0855 -0.43846,0.13254 -0.14504,0.047 -0.28901,0.0983 -0.43167,0.15128 -0.14266,0.0529 -0.28457,0.10754 -0.42486,0.1664 -0.1403,0.0589 -0.28013,0.12201 -0.41808,0.1868 -0.13796,0.0648 -0.27397,0.13155 -0.40956,0.20226 -0.1356,0.0707 -0.26954,0.14437 -0.40278,0.22099 -0.13325,0.0766 -0.26681,0.1572 -0.39767,0.23975 -0.13089,0.0825 -0.26066,0.1664 -0.38919,0.25487 -0.12852,0.0885 -0.25451,0.18087 -0.38068,0.27526 -0.12615,0.0944 -0.24878,0.19041 -0.36708,0.28908 -0.11826,0.0983 -0.23291,0.1983 -0.3433,0.30091 -0.1104,0.10261 -0.21698,0.20751 -0.31949,0.31439 -0.10251,0.10689 -0.20107,0.21542 -0.29572,0.32624 -0.0946,0.11083 -0.18518,0.22462 -0.27191,0.33989 -0.0867,0.1151 -0.16926,0.23086 -0.24813,0.35008 -0.0788,0.11938 -0.15335,0.24204 -0.22432,0.3654 -0.071,0.12333 -0.13914,0.24797 -0.20222,0.37557 -0.0631,0.1276 -0.12155,0.2575 -0.17673,0.38918 -0.0551,0.13188 -0.10734,0.26671 -0.15467,0.40276 -0.0473,0.13583 -0.0897,0.27296 -0.12914,0.41299 -0.0394,0.1401 -0.0755,0.28217 -0.10708,0.42658 -0.0316,0.14437 -0.058,0.2917 -0.0815,0.44015 -0.0237,0.14832 -0.0437,0.29763 -0.0595,0.45035 -0.0158,0.1526 -0.028,0.30881 -0.0357,0.46565 -0.008,0.15687 -0.0118,0.31473 -0.0118,0.47587 0,0.12168 0.003,0.24205 0.007,0.36198 0.004,0.11971 0.01,0.23909 0.0187,0.35689 0.009,0.11774 0.0191,0.23415 0.0322,0.35008 0.0132,0.11576 0.0286,0.23119 0.0459,0.34501 0.0174,0.11379 0.0378,0.22627 0.0595,0.33818 0.0217,0.11181 0.0453,0.2233 0.0714,0.33311 0.026,0.10984 0.0546,0.21837 0.085,0.32624 0.0306,0.10786 0.0638,0.2154 0.0986,0.3213 0.0348,0.10589 0.0713,0.21047 0.11047,0.3144 0.0392,0.10392 0.0806,0.20554 0.12408,0.30749 0.0435,0.10195 0.0898,0.20422 0.13766,0.3042 0.0478,0.1 0.0973,0.19798 0.14957,0.29565 0.0522,0.098 0.10659,0.19469 0.16315,0.29072 0.0566,0.096 0.11583,0.19173 0.17674,0.28546 0.0609,0.0937 0.12339,0.18679 0.18864,0.27855 0.0652,0.0921 0.13263,0.18186 0.20222,0.27197 0.0696,0.0898 0.14082,0.17726 0.21412,0.26178 0.0733,0.0842 0.14898,0.16608 0.22603,0.244679 0.077,0.0786 0.15546,0.15457 0.23623,0.22757 0.0807,0.073 0.16364,0.14339 0.24813,0.21081 0.0845,0.0674 0.17012,0.13187 0.25832,0.1937 0.0882,0.0618 0.17832,0.12069 0.27023,0.17693 0.0919,0.0562 0.1865,0.10918 0.28211,0.15983 0.0956,0.0506 0.19298,0.0977 0.29229,0.14273 0.0993,0.0451 0.20114,0.0881 0.30421,0.1276 0.10306,0.0395 0.20764,0.075 0.31439,0.10885 0.10679,0.0339 0.21413,0.0654 0.32459,0.0934 0.11047,0.0296 0.224,0.0539 0.3382,0.0766 0.11421,0.023 0.23047,0.0408 0.34839,0.0579 0.11793,0.0164 0.23695,0.0329 0.35859,0.0424 0.12165,0.01 0.24514,0.0197 0.37048,0.0263 0.12536,0.007 0.25333,0.01 0.38238,0.01 0.17693,0 0.35036,-0.007 0.52004,-0.0164 0.16966,-0.01 0.33552,-0.0263 0.49794,-0.0457 0.0812,-0.01 0.16022,-0.0197 0.23961,-0.0339 0.0795,-0.0132 0.15865,-0.0263 0.23623,-0.0424 0.0776,-0.0165 0.15364,-0.0329 0.22941,-0.0493 0.0758,-0.0164 0.15207,-0.0358 0.22603,-0.0562 0.074,-0.0197 0.14707,-0.0434 0.21923,-0.0664 0.0721,-0.023 0.1421,-0.0461 0.21245,-0.0714 0.0703,-0.0263 0.14049,-0.052 0.20902,-0.0799 0.0686,-0.0263 0.13553,-0.0579 0.20226,-0.0885 0.0667,-0.0296 0.13223,-0.0622 0.19712,-0.095 0.0649,-0.0329 0.12895,-0.0664 0.19203,-0.10195 0.0631,-0.0355 0.12566,-0.0724 0.18696,-0.1105 0.0613,-0.0382 0.12237,-0.0783 0.18183,-0.11905 0.0609,-0.0421 0.11964,-0.0858 0.17673,-0.13253 0.0571,-0.0467 0.11155,-0.095 0.16486,-0.14602 0.0532,-0.051 0.10517,-0.10425 0.15467,-0.15983 0.0495,-0.0556 0.0971,-0.11477 0.14276,-0.17495 0.0457,-0.0602 0.089,-0.122349 0.13086,-0.186799 0.0419,-0.0648 0.0826,-0.13122 0.12066,-0.20061 0.038,-0.0694 0.0745,-0.14043 0.10875,-0.2141 0.0343,-0.0737 0.0664,-0.1493 0.0969,-0.2279 0.0306,-0.0783 0.0583,-0.16016 0.0849,-0.24303 0.0266,-0.0829 0.0519,-0.1674 0.0748,-0.25488 0.023,-0.0875 0.0438,-0.1766 0.0629,-0.26835 0.0191,-0.0918 0.0357,-0.18581 0.051,-0.28217 0.0151,-0.0964 0.0293,-0.19633 0.0408,-0.2973 0.0115,-0.10096 0.0197,-0.20389 0.0273,-0.30946 0.008,-0.10557 0.0132,-0.21277 0.0171,-0.32295 0.003,-0.11017 0.007,-0.22198 0.007,-0.33649 -0.0406,0.15095 -0.0848,0.29696 -0.13085,0.44015 -0.046,0.14306 -0.0947,0.2825 -0.14615,0.41806 -0.0515,0.13549 -0.10452,0.26802 -0.16145,0.39599 -0.0569,0.12793 -0.11776,0.25191 -0.18015,0.37218 -0.0624,0.12036 -0.12763,0.23744 -0.19545,0.35011 -0.0678,0.1128 -0.13749,0.22133 -0.21073,0.32624 -0.0733,0.10523 -0.14905,0.20652 -0.22774,0.3042 -0.0787,0.0977 -0.16062,0.19041 -0.24471,0.28052 -0.0406,0.0451 -0.0828,0.0888 -0.12576,0.13089 -0.0431,0.0421 -0.0871,0.0829 -0.13257,0.122339 -0.0455,0.0395 -0.0914,0.0773 -0.13937,0.11379 -0.0479,0.0365 -0.0974,0.0717 -0.14786,0.10523 -0.0504,0.0339 -0.10182,0.0661 -0.15467,0.097 -0.0528,0.0296 -0.10787,0.0602 -0.16315,0.0885 -0.0553,0.0296 -0.1105,0.0546 -0.16825,0.0799 -0.0578,0.0263 -0.11826,0.0506 -0.17844,0.073 -0.0602,0.023 -0.12093,0.0434 -0.18354,0.0628 -0.0627,0.0198 -0.12695,0.0375 -0.19203,0.0543 -0.0651,0.0164 -0.13131,0.0329 -0.19883,0.0457 -0.0675,0.0132 -0.13566,0.0263 -0.20564,0.0391 -0.0699,0.01 -0.14171,0.0198 -0.21413,0.0296 -0.0724,0.01 -0.14608,0.0132 -0.22093,0.0197 -0.0749,0.007 -0.15042,0.01 -0.22774,0.0132 -0.0774,0.003 -0.15648,0.003 -0.23623,0.003 -0.10152,0 -0.20182,-0.002 -0.30081,-0.007 -0.099,-0.007 -0.19588,-0.0164 -0.2923,-0.0263 -0.0964,-0.01 -0.1916,-0.023 -0.28552,-0.0391 -0.0939,-0.0164 -0.18736,-0.0345 -0.27872,-0.0559 -0.0914,-0.023 -0.18137,-0.0464 -0.27019,-0.073 -0.0888,-0.0263 -0.17546,-0.0562 -0.26172,-0.0885 -0.0863,-0.0329 -0.17117,-0.0661 -0.25493,-0.10359 -0.0837,-0.0375 -0.16691,-0.0779 -0.24814,-0.1207 -0.0812,-0.0428 -0.16094,-0.0878 -0.23961,-0.13582 -0.0787,-0.048 -0.1567,-0.0993 -0.23284,-0.15292 -0.0761,-0.0536 -0.15072,-0.109509 -0.22432,-0.168379 -0.0736,-0.0589 -0.14647,-0.11938 -0.21754,-0.18351 -0.0711,-0.0641 -0.14053,-0.13089 -0.20903,-0.20061 -0.0685,-0.0694 -0.13454,-0.14272 -0.20051,-0.21738 -0.066,-0.075 -0.13201,-0.15259 -0.19545,-0.23284 -0.0634,-0.0802 -0.12434,-0.16246 -0.18525,-0.24796 -0.0594,-0.0872 -0.1176,-0.17496 -0.17334,-0.26342 -0.0558,-0.0885 -0.10942,-0.17694 -0.16144,-0.26672 -0.052,-0.0898 -0.10294,-0.18054 -0.15125,-0.27197 -0.0483,-0.0914 -0.0948,-0.18417 -0.13934,-0.27691 -0.0446,-0.0927 -0.0866,-0.18613 -0.12747,-0.28052 -0.0409,-0.0944 -0.0802,-0.18976 -0.11728,-0.28546 -0.0372,-0.0957 -0.072,-0.19173 -0.10536,-0.28907 -0.0334,-0.0974 -0.0654,-0.19535 -0.0952,-0.29401 -0.0296,-0.0987 -0.0572,-0.19732 -0.0833,-0.2973 -0.026,-0.1 -0.0508,-0.20093 -0.0731,-0.30255 -0.0224,-0.10162 -0.0426,-0.20292 -0.0612,-0.30585 -0.0187,-0.10294 -0.0361,-0.20817 -0.051,-0.31275 -0.0148,-0.10458 -0.028,-0.2085 -0.0391,-0.3144 -0.0112,-0.1059 -0.0197,-0.21212 -0.0273,-0.31933 -0.008,-0.10721 -0.0131,-0.21573 -0.0171,-0.32459 -0.004,-0.10886 -0.005,-0.21771 -0.005,-0.32788 0,-0.11741 8.9e-4,-0.23449 0.005,-0.35008 0.004,-0.11544 0.01,-0.22988 0.0171,-0.34331 0.008,-0.11346 0.0174,-0.22658 0.0289,-0.3382 0.0115,-0.11149 0.0256,-0.22199 0.0408,-0.3314 0.0151,-0.10952 0.0319,-0.21706 0.051,-0.3246 0.0191,-0.10753 0.04,-0.21409 0.0629,-0.31933 0.023,-0.10556 0.0481,-0.2108 0.0747,-0.31439 0.0266,-0.1036 0.0546,-0.2062 0.085,-0.3075 0.0306,-0.10161 0.0627,-0.20126 0.0969,-0.30091 0.0343,-0.0996 0.0707,-0.1983 0.10876,-0.29565 0.0381,-0.0977 0.0771,-0.19337 0.11895,-0.28907 0.0419,-0.0954 0.0868,-0.19042 0.13257,-0.28382 0.0457,-0.0934 0.0933,-0.18712 0.14276,-0.27855 0.0495,-0.0914 0.0996,-0.18054 0.15295,-0.27033 0.0533,-0.0894 0.10945,-0.17923 0.16654,-0.26671 0.0571,-0.0875 0.11583,-0.17265 0.17677,-0.25816 0.0624,-0.0855 0.12717,-0.16969 0.19545,-0.24994 0.0682,-0.0802 0.13999,-0.15785 0.21412,-0.23284 0.0741,-0.075 0.15112,-0.14634 0.23113,-0.21573 0.08,-0.0694 0.16391,-0.13648 0.24981,-0.20061 0.0859,-0.0641 0.17328,-0.12629 0.2651,-0.18515 0.0918,-0.0589 0.18781,-0.11478 0.28552,-0.16838 0.0977,-0.0536 0.19722,-0.10327 0.30081,-0.15128 0.1036,-0.048 0.21002,-0.0947 0.3195,-0.1378 0.10948,-0.0428 0.22281,-0.0832 0.33819,-0.12069 0.1154,-0.0375 0.23393,-0.0717 0.35519,-0.1036 0.12129,-0.0329 0.24501,-0.0615 0.37219,-0.0885 0.12717,-0.0263 0.25783,-0.05 0.39088,-0.0714 0.13306,-0.023 0.26891,-0.0401 0.40787,-0.0562 0.13894,-0.0164 0.28003,-0.0296 0.42487,-0.0408 0.14483,-0.01 0.29282,-0.0197 0.44355,-0.023 0.15072,-0.007 0.30562,-0.01 0.46226,-0.01 h 6.03759 c 0.63106,0.0303 1.07808,0.24376 0.76199,0.64408 -0.0769,0.10162 -0.15029,0.19995 -0.21936,0.29566 -0.0691,0.0957 -0.13286,0.18876 -0.1937,0.27855 -0.0608,0.0898 -0.11872,0.17758 -0.17167,0.26177 -0.053,0.0842 -0.10129,0.16477 -0.14602,0.24303 -0.0451,0.0783 -0.0871,0.15359 -0.12398,0.22594 -0.0371,0.0724 -0.0694,0.1424 -0.0987,0.20916 -0.0263,0.0638 -0.0503,0.13253 -0.073,0.20718 -0.023,0.0747 -0.0451,0.15589 -0.0644,0.24139 -0.0197,0.0855 -0.0365,0.17562 -0.0526,0.27198 -0.0165,0.0964 -0.0296,0.19863 -0.0441,0.30584 -0.0132,0.10721 -0.023,0.22002 -0.0342,0.33821 -0.01,0.11806 -0.0197,0.24139 -0.0263,0.37047 -0.007,0.12892 -0.01,0.26441 -0.0132,0.40447 -0.003,0.1401 -0.007,0.28414 -0.007,0.43509 v 17.264889 c 0,0.16542 -0.003,0.32821 -0.01,0.49117 -0.007,0.16312 -0.0132,0.32558 -0.023,0.48603 -0.01,0.16049 -0.023,0.31933 -0.0391,0.47755 -0.0164,0.15818 -0.0332,0.3167 -0.0543,0.47245 -0.0197,0.15588 -0.0451,0.31045 -0.0714,0.46396 -0.0263,0.15359 -0.0553,0.30585 -0.0868,0.45716 -0.0329,0.15128 -0.0668,0.29993 -0.10366,0.44868 -0.0368,0.14865 -0.0752,0.29696 -0.11727,0.44354 -0.042,0.14635 -0.0869,0.29269 -0.13425,0.43677 -0.0473,0.14405 -0.097,0.28644 -0.14953,0.42825 -0.0526,0.14174 -0.10873,0.28217 -0.16654,0.42148 -0.0579,0.13944 -0.11705,0.27756 -0.18016,0.41467 -0.0631,0.13713 -0.12878,0.27328 -0.19712,0.40789 -0.0683,0.13484 -0.14052,0.26869 -0.21413,0.40105 -0.0736,0.13221 -0.14887,0.26277 -0.22774,0.3926 -0.0788,0.12991 -0.16061,0.25817 -0.2447,0.38577 -0.0827,0.12924 -0.16835,0.25454 -0.25662,0.3756 -0.0883,0.12102 -0.17973,0.23876 -0.27362,0.35179 -0.0939,0.1128 -0.18939,0.22133 -0.28891,0.32623 -0.0995,0.10491 -0.20248,0.20554 -0.30759,0.30256 -0.10513,0.0967 -0.21383,0.19009 -0.32459,0.27855 -0.11076,0.0888 -0.22353,0.17266 -0.3399,0.25323 -0.11638,0.0806 -0.23658,0.15687 -0.35858,0.22955 -0.12201,0.0727 -0.24626,0.14273 -0.37388,0.20719 -0.12763,0.0644 -0.25763,0.12365 -0.39088,0.18021 -0.13323,0.0566 -0.26901,0.10952 -0.40787,0.15819 -0.13888,0.0483 -0.28039,0.0921 -0.42487,0.13253 -0.14447,0.0405 -0.29177,0.0766 -0.44187,0.10886 -0.15009,0.0329 -0.30315,0.0608 -0.45885,0.0848 -0.15572,0.023 -0.31453,0.0451 -0.47586,0.0612 -0.1613,0.0164 -0.32587,0.0263 -0.49284,0.0355 -0.16696,0.007 -0.33556,0.0132 -0.50814,0.0132 -0.14355,0 -0.28714,-0.003 -0.42826,-0.01 -0.14112,-0.007 -0.28109,-0.0164 -0.41978,-0.0263 -0.13865,-0.0132 -0.27503,-0.0263 -0.41126,-0.0457 -0.13622,-0.0197 -0.27241,-0.0401 -0.40618,-0.0645 -0.13379,-0.023 -0.26635,-0.0513 -0.39768,-0.0816 -0.13134,-0.0296 -0.26029,-0.0638 -0.38917,-0.1003 -0.12888,-0.0365 -0.25763,-0.0747 -0.38408,-0.11741 -0.12645,-0.0424 -0.25158,-0.0891 -0.37558,-0.13779 -0.12399,-0.0487 -0.24554,-0.1 -0.3671,-0.15457 -0.12154,-0.0546 -0.24286,-0.1128 -0.36198,-0.17331 -0.11911,-0.0608 -0.23685,-0.12366 -0.35349,-0.19042 -0.11665,-0.0668 -0.23247,-0.1378 -0.34669,-0.2108 -0.11421,-0.073 -0.22642,-0.14865 -0.33819,-0.22791 -0.11175,-0.0789 -0.22209,-0.15983 -0.3314,-0.24467 -0.10931,-0.0849 -0.21774,-0.17398 -0.32459,-0.26507 -0.10685,-0.0911 -0.21337,-0.18483 -0.31779,-0.28217 -0.10441,-0.097 -0.20462,-0.19568 -0.30252,-0.29565 -0.0979,-0.1 -0.19245,-0.2016 -0.28381,-0.3042 -0.0914,-0.10261 -0.18029,-0.20555 -0.26514,-0.31111 -0.0848,-0.10524 -0.1664,-0.21146 -0.24471,-0.31933 -0.0783,-0.10787 -0.15252,-0.21903 -0.22432,-0.32969 -0.0718,-0.11083 -0.14039,-0.22133 -0.20564,-0.33479 -0.0652,-0.11346 -0.12819,-0.22889 -0.18693,-0.34498 -0.0587,-0.11609 -0.11263,-0.23448 -0.16486,-0.3535 -0.0522,-0.11905 -0.10218,-0.23876 -0.14786,-0.36028 -0.0457,-0.12168 -0.0883,-0.24434 -0.12746,-0.36879 -0.0392,-0.12431 -0.0745,-0.25027 -0.10708,-0.37727 -0.0326,-0.12695 -0.0623,-0.25586 -0.0884,-0.3858 -0.026,-0.1299 -0.0484,-0.26013 -0.0679,-0.39257 -0.0197,-0.13253 -0.0362,-0.2677 -0.0493,-0.40279 -0.0132,-0.13517 -0.0224,-0.27165 -0.0289,-0.40957 -0.006,-0.1378 -0.0102,-0.27757 -0.0102,-0.41806 0,-0.11017 0.003,-0.2187 0.009,-0.32624 0.006,-0.10754 0.0164,-0.21442 0.0289,-0.31933 0.0125,-0.10523 0.0273,-0.2085 0.0458,-0.31111 0.0184,-0.10261 0.0399,-0.20422 0.0646,-0.3042 0.0247,-0.1 0.0525,-0.19831 0.0833,-0.29565 0.0309,-0.0977 0.065,-0.19403 0.10195,-0.28908 0.037,-0.095 0.0758,-0.18975 0.11895,-0.28216 0.0431,-0.0924 0.09,-0.18384 0.13937,-0.27362 0.0493,-0.0871 0.10221,-0.1697 0.15805,-0.24994 0.0559,-0.0803 0.11439,-0.15786 0.17674,-0.2312 0.0624,-0.0733 0.12826,-0.14272 0.19715,-0.20915 0.0689,-0.0664 0.14043,-0.12925 0.21584,-0.18877 0.0754,-0.0595 0.1543,-0.11576 0.23623,-0.16838 0.0819,-0.0526 0.16815,-0.10064 0.25661,-0.14602 0.0885,-0.0457 0.18032,-0.0888 0.27533,-0.12727 0.095,-0.0388 0.19248,-0.0733 0.29401,-0.10524 -0.0755,0 -0.14993,0.003 -0.22265,0.007 -0.0726,0.003 -0.14417,0.01 -0.21412,0.0197 -0.07,0.01 -0.13839,0.0197 -0.20564,0.0339 -0.0673,0.0132 -0.1326,0.0296 -0.19716,0.0477 -0.0646,0.0164 -0.12852,0.0385 -0.19035,0.0612 -0.0618,0.023 -0.12105,0.0477 -0.18015,0.0746 -0.0591,0.0263 -0.11698,0.0566 -0.17335,0.0885 -0.0564,0.0329 -0.11392,0.0618 -0.16486,0.10194 -1.55315,1.22079 -1.83402,4.36806 -1.69253,6.23704 0.0145,0.11905 0.0303,0.23678 0.0493,0.3535 0.0191,0.11675 0.0406,0.23218 0.0646,0.34669 0.024,0.11445 0.0511,0.22791 0.0799,0.33989 0.0289,0.11214 0.0599,0.22165 0.0935,0.3314 0.0336,0.10984 0.0703,0.21902 0.10876,0.32623 0.0384,0.10721 0.0791,0.21278 0.12237,0.31769 0.0432,0.10491 0.0879,0.21014 0.13595,0.31275 0.048,0.10261 0.0984,0.2039 0.15125,0.3042 0.0528,0.10031 0.10888,0.19765 0.16654,0.29566 0.0576,0.098 0.1177,0.19501 0.18015,0.29071 0.0625,0.0954 0.12648,0.19075 0.19373,0.28382 0.0673,0.0931 0.13698,0.18449 0.20903,0.27526 5.63704,6.59672 13.82703,3.22247 17.25641,-1.86948 0.0931,-0.1105 0.18219,-0.221 0.27033,-0.33308 0.0878,-0.11214 0.17397,-0.22428 0.25652,-0.3382 0.0825,-0.11379 0.16213,-0.22955 0.23974,-0.34499 0.0776,-0.11543 0.15227,-0.23119 0.22429,-0.3484 0.072,-0.1174 0.14207,-0.23613 0.20916,-0.35517 0.0668,-0.11906 0.13023,-0.23942 0.19206,-0.36031 0.0615,-0.1207 0.12201,-0.24139 0.17857,-0.36366 0.0566,-0.12234 0.10853,-0.24633 0.15983,-0.37051 0.0513,-0.12431 0.10031,-0.24961 0.14602,-0.37556 0.0457,-0.12596 0.0885,-0.25126 0.12924,-0.37899 0.0842,-0.25224 0.16444,-0.50405 0.2381,-0.75459 0.0737,-0.25059 0.14076,-0.50073 0.2039,-0.74945 0.0631,-0.24863 0.1207,-0.49577 0.17331,-0.74265 0.0526,-0.24698 0.10064,-0.49419 0.14273,-0.73929 0.0421,-0.24501 0.0789,-0.48919 0.1105,-0.73246 0.0329,-0.24336 0.0572,-0.48422 0.0783,-0.72567 0.0197,-0.24139 0.0372,-0.48265 0.0477,-0.7223 0.01,-0.23974 0.0164,-0.47762 0.0164,-0.71546 v -8.068169 -1.31119 c 0.007,0.01 0.01,0.0164 0.0164,0.0263 0.0714,0.11379 0.14701,0.2256 0.22429,0.33478 0.0773,0.10919 0.15621,0.21673 0.23974,0.32131 0.0832,0.10458 0.17068,0.2062 0.26013,0.30584 0.0891,0.1 0.18187,0.197 0.27691,0.29237 0.0852,0.0852 0.17233,0.16871 0.26178,0.24994 0.0894,0.0809 0.18022,0.1595 0.27362,0.23612 0.0934,0.0766 0.18811,0.15194 0.28546,0.22429 0.0973,0.0724 0.19764,0.14273 0.29894,0.2108 0.10162,0.0681 0.20554,0.13352 0.31111,0.19699 0.10556,0.0638 0.21343,0.12596 0.32294,0.18516 0.10951,0.0592 0.22133,0.11642 0.33479,0.17167 0.11346,0.0553 0.22889,0.107209 0.34669,0.158179 0.11774,0.0506 0.23679,0.0996 0.3586,0.14602 0.12168,0.0464 0.24467,0.0904 0.37047,0.13253 0.12562,0.0421 0.25421,0.0829 0.38408,0.1207 0.1299,0.0378 0.26211,0.072 0.39596,0.10523 0.13385,0.0335 0.26835,0.0661 0.40618,0.095 0.1378,0.0296 0.27789,0.0553 0.41977,0.0799 1.0897,0.0992 0.88554,0.62097 0.87524,1.37197 v 4.0105 c 0,0.22824 -0.003,0.4518 -0.01,0.66958 -0.007,0.21772 -0.0164,0.42987 -0.0296,0.63732 -0.0132,0.20752 -0.0296,0.40957 -0.051,0.60669 -0.0198,0.19733 -0.0444,0.38935 -0.0714,0.57615 -0.0263,0.18679 -0.0566,0.36905 -0.0901,0.54552 -0.0335,0.17661 -0.0717,0.34709 -0.11214,0.51323 -0.0405,0.16608 -0.0839,0.3269 -0.13089,0.48265 -0.047,0.15588 -0.0974,0.3065 -0.15128,0.45206 -0.0523,0.14536 -0.10787,0.28809 -0.16674,0.42658 -0.0589,0.13812 -0.12135,0.27328 -0.18679,0.40447 -0.0654,0.13122 -0.1332,0.25849 -0.20555,0.38237 -0.0724,0.12399 -0.14864,0.24337 -0.22757,0.36031 -0.0789,0.11675 -0.16082,0.23021 -0.24632,0.33988 -0.0858,0.10952 -0.17595,0.21541 -0.26836,0.31769 -0.0924,0.10228 -0.18811,0.20061 -0.2871,0.29565 -0.0993,0.0954 -0.2016,0.18746 -0.30749,0.27526 -0.0467,0.0431 -0.0875,0.0829 -0.12234,0.1207 -0.0352,0.0378 -0.0651,0.073 -0.0885,0.10524 -0.023,0.0329 -0.0411,0.0615 -0.0526,0.0885 -0.0132,0.0263 -0.0164,0.0516 -0.0164,0.073 0,0.0164 0.002,0.0329 0.007,0.0457 0.003,0.0132 0.01,0.0263 0.0164,0.0391 0.007,0.0132 0.0164,0.023 0.0263,0.0339 0.01,0.01 0.023,0.0197 0.0359,0.0263 0.0132,0.007 0.0263,0.0132 0.0441,0.0197 0.0164,0.007 0.0358,0.01 0.0562,0.0164 0.0405,0.007 0.0872,0.0132 0.14109,0.0132 0.1151,0.007 0.22396,0.0164 0.32459,0.0197 0.10063,0.003 0.19239,0.007 0.27855,0.007 h 0.30256 c 0.21014,0 0.4196,-0.002 0.62879,-0.007 0.20916,-0.003 0.41888,-0.0132 0.62712,-0.023 0.20817,-0.01 0.4147,-0.0197 0.62198,-0.0339 0.20719,-0.0132 0.41398,-0.0329 0.62032,-0.051 0.2062,-0.0197 0.41322,-0.0395 0.61859,-0.0628 0.20555,-0.023 0.40912,-0.05 0.61354,-0.0783 0.20455,-0.0296 0.41003,-0.0589 0.6135,-0.0917 0.20357,-0.0329 0.40589,-0.0677 0.60841,-0.10524 0.20258,-0.0378 0.40345,-0.0783 0.60501,-0.12069 0.2016,-0.0424 0.4027,-0.0872 0.60331,-0.13418 0.20061,-0.047 0.40195,-0.0977 0.60163,-0.14964 0.19962,-0.052 0.3978,-0.10491 0.5965,-0.16147 0.198645,-0.0566 0.397075,-0.11543 0.594835,-0.1766 0.19764,-0.0612 0.39459,-0.12596 0.59139,-0.19206 0.19666,-0.0661 0.39389,-0.13319 0.58972,-0.2039 0.196,-0.0707 0.39142,-0.14371 0.58631,-0.21935 0.21475,-0.0825 0.4265,-0.16806 0.6356,-0.25488 0.20916,-0.0868 0.41509,-0.17594 0.6186,-0.26671 0.20357,-0.0908 0.40365,-0.18219 0.60163,-0.2769 0.19798,-0.095 0.39389,-0.19338 0.58631,-0.29237 0.19238,-0.099 0.38247,-0.19929 0.56933,-0.30255 0.1868,-0.10327 0.37103,-0.20883 0.55233,-0.31605 0.18121,-0.10721 0.35958,-0.21672 0.53533,-0.32788 0.17562,-0.11116 0.34814,-0.22461 0.51833,-0.33988 0.17002,-0.11543 0.33841,-0.23218 0.50304,-0.35179 0.16476,-0.11938 0.32525,-0.24172 0.48435,-0.3654 0.15918,-0.12366 0.31572,-0.24797 0.46907,-0.37557 0.15358,-0.1276 0.3042,-0.2575 0.45206,-0.38918 0.14799,-0.13188 0.29433,-0.26704 0.43673,-0.40277 0.1424,-0.13582 0.28119,-0.27296 0.41809,-0.41299 0.13681,-0.1401 0.27132,-0.2825 0.40277,-0.42657 0.13121,-0.14405 0.26013,-0.2904 0.38579,-0.43846 0.14174,-0.16706 0.27822,-0.33587 0.41125,-0.50645 0.13319,-0.17069 0.26178,-0.34252 0.38579,-0.51662 0.12431,-0.1743 0.24501,-0.3509 0.36028,-0.52856 0.11543,-0.17759 0.22494,-0.35583 0.3314,-0.537 0.10655,-0.18121 0.2085,-0.36423 0.30584,-0.54895 0.0977,-0.18482 0.19173,-0.37087 0.28053,-0.55911 0.0888,-0.18811 0.17331,-0.37925 0.25322,-0.57104 0.0799,-0.19173 0.15523,-0.38587 0.22594,-0.58121 0.071,-0.19535 0.13681,-0.39254 0.19896,-0.5914 0.0622,-0.19897 0.12004,-0.39922 0.17331,-0.60163 0.0533,-0.20225 0.10195,-0.40586 0.14602,-0.61179 0.0444,-0.20587 0.0835,-0.41425 0.11905,-0.623729 0.0355,-0.20949 0.0668,-0.42089 0.0934,-0.6339 0.0263,-0.2131 0.0487,-0.42756 0.0664,-0.64408 0.0164,-0.2164 0.0329,-0.43424 0.0408,-0.65432 0.01,-0.22001 0.0132,-0.44256 0.0132,-0.66618 l -0.002,-0.002 c 0,-0.14108 -3.9e-4,-0.28052 -0.003,-0.41977 -0.003,-0.13911 -0.007,-0.27723 -0.0132,-0.41466 -0.007,-0.13747 -0.0132,-0.27559 -0.023,-0.41128 -0.01,-0.13583 -0.0197,-0.27033 -0.0296,-0.40448 -0.0132,-0.13418 -0.023,-0.26704 -0.0391,-0.39938 -0.0132,-0.13253 -0.0296,-0.26375 -0.0477,-0.39428 -0.0164,-0.13055 -0.0358,-0.26013 -0.0559,-0.38918 -0.0197,-0.12891 -0.0431,-0.25684 -0.0664,-0.38408 -0.023,-0.12727 -0.047,-0.25356 -0.073,-0.37896 -0.0263,-0.12562 -0.0543,-0.25026 -0.0832,-0.37388 -0.0296,-0.12366 -0.0599,-0.24665 -0.0917,-0.36879 -0.0329,-0.12201 -0.0654,-0.24337 -0.10031,-0.3637 -0.0349,-0.12037 -0.071,-0.24007 -0.10886,-0.35856 -0.0378,-0.1184 -0.0766,-0.23679 -0.1174,-0.3535 -0.0408,-0.11675 -0.0822,-0.23153 -0.12563,-0.3467 -0.0437,-0.1151 -0.0894,-0.22987 -0.13583,-0.3433 -0.0464,-0.11346 -0.0934,-0.22659 -0.14272,-0.33818 -0.0493,-0.11181 -0.10064,-0.22165 -0.15293,-0.33139 -0.0523,-0.10985 -0.10622,-0.21969 -0.16147,-0.32788 -0.0553,-0.1082 -0.11182,-0.21476 -0.17002,-0.32131 -0.0582,-0.10655 -0.11741,-0.2131 -0.17858,-0.31768 -0.0612,-0.10459 -0.123,-0.20785 -0.1868,-0.31111 -0.0638,-0.10294 -0.13023,-0.2062 -0.19699,-0.30749 -0.0668,-0.10129 -0.13418,-0.20127 -0.2039,-0.30092 -0.0697,-0.0996 -0.14141,-0.19797 -0.21409,-0.29565 -0.0727,-0.098 -0.147,-0.19436 -0.22264,-0.29072 -0.0756,-0.096 -0.1526,-0.19107 -0.2312,-0.28546 -0.0783,-0.0944 -0.15818,-0.18942 -0.23974,-0.28216 -0.0812,-0.0927 -0.16378,-0.1845 -0.24829,-0.27526 -0.0842,-0.0908 -0.16937,-0.18088 -0.25652,-0.27033 -0.0871,-0.0891 -0.17496,-0.17759 -0.26506,-0.26507 -0.0901,-0.0875 -0.18253,-0.1743 -0.27527,-0.26014 -0.0881,-0.0812 -0.17561,-0.16081 -0.26506,-0.23974 -0.0895,-0.0786 -0.18121,-0.15654 -0.27198,-0.23284 -0.0908,-0.0763 -0.1812,-0.15062 -0.27362,-0.22428 -0.0924,-0.0737 -0.18515,-0.14635 -0.27887,-0.21739 -0.0937,-0.071 -0.18877,-0.14042 -0.28382,-0.20915 -0.095,-0.0684 -0.19074,-0.13616 -0.2871,-0.20226 -0.0967,-0.0661 -0.19436,-0.13023 -0.29236,-0.1937 -0.098,-0.0635 -0.19634,-0.12596 -0.29565,-0.1868 -0.0993,-0.0608 -0.19831,-0.12004 -0.29927,-0.17858 -0.10064,-0.0585 -0.20357,-0.11576 -0.30585,-0.17166 -0.10228,-0.0559 -0.2039,-0.10984 -0.30749,-0.16312 -0.10359,-0.0533 -0.20784,-0.10557 -0.31275,-0.15621 -0.10491,-0.0506 -0.21147,-0.10129 -0.31769,-0.14964 -0.10655,-0.0483 -0.21343,-0.0954 -0.3213,-0.14108 -0.10787,-0.0457 -0.21706,-0.0894 -0.32624,-0.13253 -0.10918,-0.0431 -0.21902,-0.0852 -0.32972,-0.12563 -0.1105,-0.0408 -0.22265,-0.0809 -0.33479,-0.11905 -0.11215,-0.0382 -0.22462,-0.075 -0.33818,-0.1105 -0.11345,-0.0355 -0.22658,-0.0691 -0.34159,-0.10195 -0.1151,-0.0332 -0.2302,-0.0648 -0.34672,-0.095 -0.11642,-0.0296 -0.23416,-0.0605 -0.35176,-0.0885 -0.11773,-0.0263 -0.23613,-0.0546 -0.35521,-0.0799 -0.11905,-0.0263 -0.23974,-0.0503 -0.36027,-0.073 -0.1207,-0.023 -0.24172,-0.0444 -0.36369,-0.0645 -0.24402,-0.0408 -0.49127,-0.075 -0.74098,-0.10524 -0.24961,-0.0296 -0.50256,-0.0562 -0.75796,-0.0766 -0.25553,-0.0197 -0.513895,-0.0358 -0.774945,-0.0457 -0.26112,-0.01 -0.52353,-0.0164 -0.79028,-0.0164 z m 0,1.29498 c 0.22264,0 0.44173,0.003 0.65938,0.0132 0.21771,0.01 0.43318,0.023 0.645835,0.0424 0.21278,0.0197 0.42292,0.0444 0.6305,0.073 0.20751,0.0296 0.41265,0.0605 0.61517,0.0987 0.20259,0.0382 0.40247,0.0816 0.59992,0.12925 0.19765,0.0477 0.39221,0.10063 0.58463,0.15818 0.19239,0.0572 0.38195,0.11839 0.5693,0.18515 0.18745,0.0668 0.37343,0.13944 0.55572,0.21574 0.18219,0.0763 0.36149,0.1572 0.53875,0.24303 0.17726,0.0858 0.35123,0.17661 0.52343,0.27198 0.17232,0.0954 0.34271,0.196 0.50984,0.30091 0.16706,0.10491 0.33245,0.21508 0.49455,0.32969 0.16213,0.11445 0.32065,0.23284 0.47755,0.35689 0.1572,0.12398 0.31209,0.25224 0.46396,0.38576 0.15194,0.13352 0.30158,0.27329 0.44865,0.41638 0.147,0.14305 0.29137,0.29072 0.43338,0.44357 0.13648,0.14635 0.26803,0.29467 0.39598,0.44526 0.12794,0.15062 0.25291,0.30354 0.37219,0.45883 0.11937,0.15523 0.23415,0.31308 0.34498,0.47249 0.11082,0.1595 0.21705,0.32031 0.31965,0.48432 0.10228,0.16378 0.20029,0.32969 0.29402,0.49797 0.0937,0.16838 0.18482,0.33886 0.27032,0.51152 0.0855,0.17265 0.16641,0.34811 0.24304,0.52513 0.0766,0.17694 0.1493,0.35564 0.21738,0.53705 0.0681,0.18153 0.1322,0.36652 0.19206,0.55233 0.0599,0.18581 0.11543,0.37234 0.1664,0.56253 0.0513,0.19008 0.0967,0.38326 0.13944,0.57782 0.0427,0.19436 0.0816,0.39079 0.11544,0.58969 0.0342,0.19897 0.0645,0.40003 0.0901,0.60334 0.0263,0.20324 0.0457,0.40921 0.0628,0.61689 0.0164,0.20751 0.0296,0.41674 0.0391,0.62879 0.01,0.21212 0.0132,0.42766 0.0132,0.64412 h -0.002 c 0,0.20653 -0.003,0.41145 -0.01,0.61518 -0.007,0.2039 -0.0164,0.40579 -0.0296,0.60673 -0.0132,0.20094 -0.0296,0.40007 -0.0477,0.59821 -0.0197,0.19798 -0.0408,0.39609 -0.0664,0.59143 -0.0263,0.19535 -0.0546,0.38869 -0.0868,0.58121 -0.0329,0.19239 -0.0671,0.383 -0.10524,0.57272 -0.0385,0.18976 -0.0809,0.379019 -0.12562,0.565919 -0.0447,0.1868 -0.0934,0.37162 -0.14438,0.55572 -0.0513,0.18417 -0.10556,0.36764 -0.16312,0.54894 -0.0575,0.18121 -0.11773,0.36025 -0.18186,0.53872 -0.0638,0.17858 -0.13023,0.35626 -0.20061,0.53195 -0.0704,0.17561 -0.14404,0.35057 -0.221,0.52342 -0.077,0.17298 -0.15818,0.34317 -0.24139,0.51327 -0.0832,0.17002 -0.16871,0.33916 -0.25816,0.50642 -0.0894,0.16739 -0.18285,0.3335 -0.27855,0.49794 -0.096,0.16443 -0.19502,0.32787 -0.29729,0.48945 -0.0924,0.14536 -0.18746,0.28841 -0.28382,0.42996 -0.0964,0.14174 -0.1937,0.28052 -0.294,0.41809 -0.10031,0.13746 -0.20324,0.27427 -0.30749,0.40786 -0.10426,0.13385 -0.21114,0.26441 -0.31934,0.39428 -0.10819,0.1299 -0.2177,0.25816 -0.32968,0.38409 -0.11215,0.12596 -0.22561,0.25027 -0.3416,0.37218 -0.11609,0.12201 -0.23514,0.24073 -0.35521,0.3586 -0.12004,0.11806 -0.24139,0.23415 -0.36537,0.34837 -0.12398,0.11412 -0.24928,0.22626 -0.37728,0.3365 -0.12793,0.11017 -0.25914,0.21836 -0.39089,0.32459 -0.13187,0.10622 -0.2654,0.21047 -0.40109,0.31275 -0.13582,0.10228 -0.27328,0.20258 -0.41296,0.30091 -0.13976,0.0983 -0.28118,0.19437 -0.42486,0.28908 -0.14371,0.0944 -0.2894,0.18647 -0.43677,0.2769 -0.14733,0.0904 -0.29729,0.18022 -0.44864,0.26672 -0.15128,0.0865 -0.30354,0.17068 -0.45887,0.25322 -0.14634,0.0773 -0.29466,0.15194 -0.44186,0.22429 -0.14734,0.0724 -0.29368,0.14306 -0.44187,0.21081 -0.14832,0.0677 -0.29795,0.13253 -0.44696,0.19534 -0.14898,0.0628 -0.2986,0.12234 -0.44863,0.18022 -0.14996,0.0579 -0.2996,0.11346 -0.45039,0.16641 -0.15095,0.053 -0.301905,0.10458 -0.453745,0.15292 -0.1516,0.0483 -0.30453,0.0941 -0.45715,0.1378 -0.1526,0.0434 -0.30519,0.0839 -0.45887,0.12234 -0.15358,0.0385 -0.30782,0.075 -0.46226,0.10885 -0.15457,0.0339 -0.31012,0.0645 -0.46564,0.0934 -0.15523,0.0296 -0.31111,0.0559 -0.46736,0.0799 -0.15621,0.023 -0.31176,0.047 -0.46906,0.0664 -0.1572,0.0197 -0.31604,0.0348 -0.47416,0.0493 -0.89533,0.0192 -1.06475,-0.33821 -0.76146,-0.9016 0.0687,-0.11642 0.13582,-0.23481 0.20061,-0.35689 0.0648,-0.12201 0.12628,-0.24763 0.1868,-0.37556 0.0605,-0.12793 0.12003,-0.25882 0.1766,-0.39261 0.0566,-0.13384 0.1105,-0.27 0.16312,-0.40953 0.0526,-0.13977 0.1026,-0.28283 0.15127,-0.42829 0.0503,-0.14536 0.0987,-0.29302 0.14273,-0.44016 0.0441,-0.14733 0.0845,-0.29433 0.12234,-0.44357 0.0378,-0.14898 0.0724,-0.2996 0.1036,-0.45035 0.0329,-0.15095 0.0599,-0.30289 0.0848,-0.45545 0.0263,-0.15259 0.0474,-0.30617 0.0664,-0.46058 0.0197,-0.15457 0.0332,-0.30947 0.0457,-0.46565 0.0132,-0.15621 0.023,-0.3144 0.0296,-0.47245 0.007,-0.15819 0.01,-0.31604 0.01,-0.47584 v -4.04773 c 0,-0.59196 -0.1063,-0.89203 0.31934,-0.99953 0.1039,-0.0262 0.21113,-0.0375 0.31604,-0.0595 0.1049,-0.023 0.20883,-0.0454 0.31275,-0.0714 0.10392,-0.0263 0.20817,-0.0546 0.31111,-0.0848 0.10293,-0.0296 0.20422,-0.0622 0.30585,-0.097 0.10195,-0.0345 0.20324,-0.0717 0.3042,-0.1105 0.10096,-0.0388 0.20094,-0.0796 0.30091,-0.12234 0.0996,-0.0431 0.20028,-0.0888 0.29927,-0.13582 0.0987,-0.047 0.19634,-0.0964 0.29401,-0.147989 0.09777,-0.0513 0.195675,-0.10425 0.292365,-0.15983 0.0967,-0.0556 0.19305,-0.11346 0.28908,-0.17331 0.0957,-0.0599 0.19074,-0.12136 0.28544,-0.18516 0.0947,-0.0641 0.18844,-0.13056 0.28217,-0.19896 0.0937,-0.0681 0.18779,-0.13845 0.28052,-0.21081 0.0927,-0.0724 0.18516,-0.14601 0.27691,-0.22264 0.0917,-0.0766 0.18285,-0.15556 0.27362,-0.23613 0.0918,-0.0809 0.17923,-0.1618 0.26507,-0.24303 0.0858,-0.0812 0.16969,-0.16279 0.24993,-0.24467 0.0803,-0.0819 0.15654,-0.16411 0.2312,-0.24633 0.0743,-0.0822 0.147,-0.16542 0.21573,-0.24796 0.0687,-0.0829 0.13418,-0.16641 0.19699,-0.24995 0.0632,-0.0835 0.123,-0.16607 0.18023,-0.24993 0.0572,-0.0839 0.11148,-0.16871 0.16311,-0.25323 0.0516,-0.0842 0.10031,-0.16838 0.14602,-0.25323 0.0457,-0.0848 0.0891,-0.17134 0.12925,-0.25651 0.0401,-0.0855 0.0763,-0.17069 0.1105,-0.25652 0.0342,-0.0858 0.0664,-0.172 0.095,-0.25849 0.0296,-0.0865 0.0536,-0.17298 0.0766,-0.26014 0.023,-0.0868 0.0441,-0.1743 0.0612,-0.26177 0.0164,-0.0875 0.0296,-0.17398 0.0424,-0.26178 0.01,-0.0878 0.0197,-0.1766 0.0263,-0.26507 0.007,-0.0885 0.01,-0.17627 0.01,-0.26507 0,-0.10589 -0.003,-0.20982 -0.01,-0.31111 -0.007,-0.10096 -0.0132,-0.19962 -0.0263,-0.29565 -0.0132,-0.096 -0.0263,-0.18942 -0.0441,-0.28052 -0.0164,-0.0911 -0.0378,-0.18055 -0.0612,-0.26671 -0.023,-0.0862 -0.0506,-0.17036 -0.0799,-0.25159 -0.0296,-0.0812 -0.0602,-0.15982 -0.095,-0.23612 -0.0352,-0.0763 -0.073,-0.14964 -0.11378,-0.221 -0.0408,-0.0714 -0.0842,-0.14076 -0.13089,-0.20719 -0.0539,-0.0753 -0.11182,-0.14634 -0.17167,-0.21245 -0.0595,-0.0661 -0.12135,-0.12694 -0.1868,-0.1835 -0.0329,-0.0296 -0.0661,-0.0556 -0.10031,-0.0816 -0.0342,-0.0263 -0.0697,-0.0497 -0.10523,-0.073 -0.0358,-0.023 -0.0717,-0.0467 -0.10886,-0.0681 -0.0371,-0.0197 -0.0753,-0.0408 -0.11378,-0.0595 -0.0773,-0.0378 -0.15819,-0.072 -0.24139,-0.10031 -0.0832,-0.0296 -0.16937,-0.051 -0.25816,-0.0697 -0.0888,-0.0197 -0.18055,-0.0332 -0.27527,-0.0424 -0.0947,-0.01 -0.19173,-0.0164 -0.29236,-0.0164 -0.0654,0 -0.12924,0.003 -0.19206,0.007 -0.0628,0.003 -0.1253,0.01 -0.18515,0.0164 -0.0599,0.007 -0.11806,0.0165 -0.17496,0.0296 -0.0572,0.0132 -0.11214,0.023 -0.16641,0.0391 -0.0543,0.0164 -0.10819,0.0335 -0.15983,0.0526 -0.0516,0.0197 -0.10095,0.0398 -0.14962,0.0628 -0.0487,0.023 -0.0967,0.048 -0.14273,0.0747 -0.046,0.0263 -0.0894,0.0546 -0.13253,0.0852 -0.0431,0.0296 -0.0855,0.0625 -0.12563,0.097 -0.0401,0.0342 -0.0799,0.0707 -0.11741,0.10885 -0.0375,0.0382 -0.0724,0.0786 -0.1072,0.1207 -0.0345,0.0421 -0.0684,0.0868 -0.100315,0.13253 -0.0329,0.0457 -0.0628,0.0931 -0.0917,0.14273 -0.0296,0.0497 -0.0569,0.10129 -0.0832,0.15457 -0.0263,0.0536 -0.0513,0.10754 -0.0746,0.16476 -0.023,0.0572 -0.0457,0.1174 -0.0664,0.17858 -0.023,0.0648 -0.0369,0.12891 -0.0477,0.1937 -0.01,0.0648 -0.0164,0.12891 -0.0164,0.1937 0,0.072 0.003,0.13319 0.007,0.18351 0.003,0.0503 0.01,0.0901 0.0164,0.11905 0.01,0.0329 0.023,0.0608 0.0339,0.0848 0.0132,0.023 0.0263,0.0434 0.0408,0.0595 0.0132,0.0164 0.0296,0.0296 0.0457,0.0375 0.0164,0.007 0.0329,0.0132 0.051,0.0132 0.01,0 0.023,-0.002 0.0329,-0.007 0.01,-0.003 0.023,-0.007 0.0329,-0.0132 0.023,-0.0132 0.0431,-0.0296 0.0645,-0.0526 0.023,-0.023 0.0431,-0.0533 0.0645,-0.0885 0.02298,-0.0352 0.04309,-0.0756 0.06449,-0.12234 0.01,-0.0263 0.0263,-0.049 0.0457,-0.0714 0.0198,-0.023 0.0411,-0.0431 0.0681,-0.0628 0.0263,-0.0197 0.0585,-0.0391 0.0934,-0.0562 0.0349,-0.0164 0.0743,-0.0329 0.11741,-0.0457 0.0467,-0.0164 0.0964,-0.0342 0.15128,-0.0477 0.0549,-0.0132 0.11379,-0.0263 0.1766,-0.0339 0.0628,-0.01 0.12956,-0.0164 0.2006,-0.0197 0.071,-0.003 0.14701,-0.007 0.22593,-0.007 0.0359,0 0.071,0.002 0.10524,0.007 0.0345,0.003 0.0674,0.0132 0.1003,0.023 0.0329,0.01 0.0638,0.023 0.095,0.0359 0.0329,0.0132 0.0622,0.0296 0.0918,0.0493 0.0296,0.0197 0.0585,0.0395 0.0865,0.0628 0.0296,0.023 0.0553,0.05 0.0815,0.0783 0.0263,0.0296 0.0516,0.0589 0.0766,0.0918 0.0263,0.0329 0.0497,0.0677 0.073,0.10524 0.023,0.0375 0.0457,0.077 0.0664,0.11708 0.0197,0.0401 0.0385,0.0812 0.0562,0.12398 0.0164,0.0428 0.0348,0.0875 0.0493,0.13253 0.0132,0.0451 0.0263,0.0918 0.0391,0.13944 0.0132,0.0477 0.023,0.096 0.0296,0.14602 0.01,0.05 0.0164,0.1003 0.023,0.15292 0.007,0.0526 0.01,0.10656 0.0132,0.16148 0.003,0.0549 0.007,0.11247 0.007,0.17002 0,0.0701 -0.002,0.13944 -0.007,0.20916 -0.007,0.0697 -0.0132,0.13977 -0.023,0.20916 -0.01,0.0694 -0.023,0.13681 -0.0375,0.20554 -0.0132,0.0687 -0.0329,0.13878 -0.051,0.20719 -0.0197,0.0684 -0.0418,0.13582 -0.0664,0.2039 -0.023,0.0681 -0.0506,0.13615 -0.0799,0.20389 -0.0296,0.0677 -0.0608,0.13484 -0.0951,0.20226 -0.0342,0.0674 -0.0714,0.13516 -0.1105,0.20225 -0.0391,0.0668 -0.0802,0.13221 -0.12398,0.19897 -0.0441,0.0664 -0.0904,0.1345 -0.13944,0.20061 -0.049,0.0661 -0.10096,0.13154 -0.15456,0.19699 -0.0536,0.0658 -0.10952,0.13187 -0.16839,0.19732 -0.0585,0.0654 -0.11839,0.13056 -0.18186,0.19534 -0.0635,0.0648 -0.13055,0.12925 -0.19895,0.19371 -0.0684,0.0645 -0.13912,0.12793 -0.21245,0.19206 -0.0733,0.0641 -0.14799,0.12826 -0.22593,0.19205 -0.1401,0.11313 -0.279505,0.22035 -0.416345,0.31966 -0.13681,0.099 -0.27099,0.19042 -0.40448,0.27526 -0.13319,0.0849 -0.26605,0.16214 -0.39595,0.23284 -0.0651,0.0352 -0.12957,0.0701 -0.1937,0.10195 -0.0641,0.0329 -0.12695,0.0618 -0.19042,0.0901 -0.0635,0.0296 -0.12629,0.0536 -0.18877,0.0783 -0.0625,0.0263 -0.1253,0.0483 -0.1868,0.0697 -0.0615,0.0197 -0.12266,0.0401 -0.1835,0.0579 -0.0608,0.0164 -0.12037,0.0335 -0.18022,0.0477 -0.78685,0.17113 -0.702,-0.19707 -0.70016,-0.61324 v -8.56712 c 0,-0.0378 0.003,-0.077 0.007,-0.11543 0.003,-0.0388 0.007,-0.0776 0.0132,-0.11741 0.0132,-0.0789 0.0263,-0.15884 0.051,-0.24139 0.023,-0.0825 0.0533,-0.16706 0.0885,-0.25323 0.0352,-0.0862 0.0756,-0.17528 0.12234,-0.26507 0.0467,-0.0898 0.098,-0.1835 0.15457,-0.28052 0.0566,-0.097 0.11872,-0.19666 0.18515,-0.30091 0.0664,-0.10425 0.13779,-0.21147 0.21409,-0.32295 0.0763,-0.11148 0.15687,-0.22659 0.24303,-0.34498 0.0132,-0.023 0.0263,-0.0493 0.0329,-0.0816 0.007,-0.0329 0.0132,-0.0691 0.0132,-0.11214 0,-0.0263 -0.002,-0.0526 -0.007,-0.0747 -0.003,-0.023 -0.01,-0.0421 -0.0164,-0.0595 -0.007,-0.0165 -0.0164,-0.0332 -0.0263,-0.0457 -0.01,-0.0132 -0.023,-0.023 -0.0375,-0.0296 -0.0132,-0.007 -0.0329,-0.0132 -0.0493,-0.0164 -0.0165,-0.003 -0.0362,-0.003 -0.0579,-0.003 -0.023,0.002 -0.046,0.007 -0.0714,0.0132 -0.0263,0.007 -0.0513,0.0132 -0.0799,0.023 -0.0789,0.0359 -0.17101,0.0819 -0.27526,0.13583 -0.10426,0.0539 -0.22068,0.11675 -0.35012,0.18877 -0.39513,0.22264 -0.74189,0.41447 -1.04007,0.57611 -0.29828,0.1618 -0.54829,0.29203 -0.74946,0.39257 -0.26572,0.12924 -0.52819,0.25224 -0.78685,0.36708 -0.25849,0.1151 -0.51329,0.22231 -0.76474,0.32294 -0.25159,0.10064 -0.45246,0.18351 -0.60334,0.24797 -0.15095,0.0648 -0.25225,0.11247 -0.30256,0.14109 -0.0263,0.0132 -0.0457,0.0296 -0.0645,0.0457 -0.0197,0.0164 -0.0348,0.0362 -0.0477,0.0559 -0.0132,0.0198 -0.023,0.0405 -0.0296,0.0628 -0.007,0.023 -0.01,0.046 -0.01,0.0714 0,0.0359 0.003,0.0697 0.0132,0.10031 0.01,0.0296 0.0197,0.0582 0.0391,0.0832 0.0164,0.0263 0.0411,0.048 0.0681,0.0681 0.0263,0.0197 0.0576,0.0365 0.0934,0.051 0.14372,0.0576 0.3019,0.11412 0.47413,0.17167 0.0451,0.023 0.0881,0.0464 0.1276,0.073 0.0391,0.0263 0.075,0.0549 0.10885,0.0868 0.0335,0.0329 0.0655,0.0668 0.0934,0.10359 0.0296,0.0372 0.0523,0.0766 0.0747,0.11905 0.023,0.0421 0.0427,0.0868 0.0595,0.13418 0.0164,0.0474 0.0329,0.097 0.0424,0.14963 0.01,0.0526 0.0197,0.10886 0.0263,0.16641 0.007,0.0575 0.007,0.11741 0.007,0.18022 v 6.79457 c -0.14344,1.15034 -0.34953,1.13555 -1.06385,0.94131 -0.11254,-0.0306 -0.22396,-0.0618 -0.33311,-0.095 -0.10919,-0.0332 -0.21738,-0.0677 -0.32295,-0.10359 -0.10556,-0.0359 -0.20751,-0.0737 -0.30913,-0.11215 -0.10163,-0.0388 -0.20292,-0.0776 -0.30092,-0.11905 -0.098,-0.0414 -0.19304,-0.0835 -0.2871,-0.1276 -0.0944,-0.0441 -0.18811,-0.0911 -0.27855,-0.13779 -0.0904,-0.0467 -0.17824,-0.0934 -0.26507,-0.14273 -0.0868,-0.0493 -0.17166,-0.10097 -0.25487,-0.15292 -0.0832,-0.0523 -0.16509,-0.10491 -0.24468,-0.15983 -0.0796,-0.0549 -0.1572,-0.11083 -0.23284,-0.16838 -0.0756,-0.0576 -0.15061,-0.11642 -0.22264,-0.17661 -0.072,-0.0602 -0.14075,-0.12234 -0.20916,-0.18515 -0.0684,-0.0628 -0.13582,-0.12661 -0.20061,-0.19206 -0.0753,-0.0773 -0.14865,-0.15687 -0.21935,-0.2381 -0.0707,-0.0812 -0.13977,-0.16476 -0.20554,-0.24994 -0.0661,-0.0852 -0.12892,-0.17101 -0.19042,-0.26013 -0.0612,-0.0891 -0.12004,-0.18055 -0.1766,-0.27362 -0.0566,-0.0931 -0.11116,-0.18877 -0.16312,-0.28545 -0.052,-0.097 -0.10063,-0.19502 -0.14799,-0.29566 -0.047,-0.10096 -0.0917,-0.20291 -0.13418,-0.30749 -0.0424,-0.10458 -0.0829,-0.21244 -0.12069,-0.3213 -0.0378,-0.10885 -0.0724,-0.2187 -0.10524,-0.3314 -0.0329,-0.11247 -0.0635,-0.22692 -0.0918,-0.3433 -0.0296,-0.11642 -0.0546,-0.23482 -0.0783,-0.35518 -0.023,-0.12037 -0.0457,-0.24435 -0.0645,-0.36879 -0.0197,-0.12432 -0.0352,-0.2506 -0.0493,-0.37899 -0.0132,-0.12826 -0.0263,-0.25882 -0.0355,-0.39089 -0.01,-0.13221 -0.0164,-0.26671 -0.0197,-0.40277 -0.003,-0.13615 -0.007,-0.27295 -0.007,-0.41295 0,-0.15819 0.003,-0.31473 0.0132,-0.46907 0.01,-0.15424 0.023,-0.30815 0.0408,-0.45884 0.0197,-0.15095 0.0408,-0.29828 0.0681,-0.44528 0.0263,-0.147 0.0572,-0.29335 0.0934,-0.43677 0.0362,-0.14338 0.0773,-0.28513 0.12234,-0.42486 0.0451,-0.13977 0.0954,-0.27855 0.14963,-0.41467 0.0543,-0.13615 0.11346,-0.27033 0.1766,-0.40277 0.0632,-0.13253 0.12991,-0.2621 0.20226,-0.39089 0.0724,-0.12891 0.14996,-0.25717 0.23119,-0.38237 0.0812,-0.1253 0.16641,-0.24895 0.25652,-0.37047 0.0904,-0.12168 0.18614,-0.24073 0.28545,-0.3586 0.0993,-0.11806 0.20259,-0.23415 0.31111,-0.3484 0.10853,-0.11445 0.22232,-0.22593 0.33989,-0.3365 0.1174,-0.1105 0.23875,-0.21935 0.36537,-0.32624 0.12662,-0.10688 0.25717,-0.21277 0.3926,-0.31603 0.1355,-0.10327 0.27691,-0.20456 0.42144,-0.30421 0.13188,-0.0908 0.26442,-0.17857 0.39938,-0.26342 0.13484,-0.0849 0.27165,-0.16871 0.40957,-0.24797 0.1378,-0.0793 0.27724,-0.15588 0.41809,-0.22955 0.14109,-0.0737 0.28447,-0.14437 0.42825,-0.21244 0.14405,-0.0681 0.28974,-0.1332 0.43677,-0.19535 0.147,-0.0625 0.29368,-0.12168 0.44358,-0.17857 0.14996,-0.0566 0.30256,-0.1105 0.45545,-0.16148 0.15292,-0.051 0.3065,-0.099 0.46225,-0.14437 0.15589,-0.0454 0.31374,-0.0878 0.47245,-0.12727 0.15885,-0.0398 0.319,-0.0766 0.48094,-0.11051 0.1618,-0.0342 0.32459,-0.0651 0.48945,-0.0934 0.16477,-0.0296 0.33022,-0.0536 0.49794,-0.0763 0.16772,-0.023 0.33745,-0.0424 0.50817,-0.0595 0.17068,-0.0164 0.34294,-0.0296 0.51661,-0.0424 0.17364,-0.01 0.34851,-0.0197 0.52514,-0.0263 0.1766,-0.007 0.35574,-0.01 0.53533,-0.01 z"
         sodipodi:nodetypes="ssssssssssssssssccsssssssssssssssssssssssssssssssssssssssssssssssssssssssssssssssssssssssssssssscssssssssssssssscssssssscssssssssssssssssssssssssssssssscssssssssssssssssssssssssssssssscssssssssssssssssccssssscsssssssssssssssssssssssscssssssssssssssssssssssssssssssssssssssssssssssssssssssscssssssscsssssssscsssssssssssccssssssssscssssssssccssssssssssssssssssccsssssssscssssssscsssssssssscsssssssssssssssssscsssssssssssssssssssssssssssssssccsssssssssssssssssssssssssssssssssssssssssssssssssssssssssssssssssssssssssssscsssssssssssssssccssssssssssssssscssssssssssssssscsssssssssssssccssscsssssssssssssssssssssssscssssssssssssssssssssssscssssssssssssssssssssssssscssscsssssssscssscssssssssssssssssssssssssssssssssssscsssssssssccsssssssscssssssssscscscsssssssssssscssssssssccsssssssssssscssssssssssssssssssssssssssssssscssssssssssssssssss" />
      <g
         aria-label="Jacob"
         id="text2367"
         style="font-size:10.5833px;line-height:1.25;font-family:BlackChancery;-inkscape-font-specification:'BlackChancery, Normal';stroke-width:0.264583"
         transform="matrix(2.1061858,0,0,2.1061858,-75.923506,-209.61897)">
        <path
           d="m 98.506373,144.18602 h 3.524237 q -0.46566,0.1905 -0.71966,0.49741 -0.254,0.29633 -0.254,0.70908 v 5.03765 q 0,0.86783 -0.30692,1.78858 -0.29633,0.93133 -1.206494,1.66158 -0.910164,0.73025 -2.571742,0.73025 -1.449912,0 -2.010826,-0.65617 -0.560915,-0.64558 -0.560915,-1.56633 0,-0.62441 0.222249,-1.16416 0.232833,-0.52916 0.783164,-0.52916 -0.370415,0.11641 -0.550331,0.43391 -0.179917,0.32808 -0.179917,0.73025 0,1.02658 0.761998,1.73566 0.761998,0.70908 1.809744,0.70908 1.259413,0 1.862661,-0.94191 0.613831,-0.93133 0.613831,-2.13783 v -5.24932 q 0,-0.55033 0.09525,-0.78316 0.105833,-0.24342 0.444498,-0.65616 h -2.222492 q -1.142997,0 -1.598079,0.62441 -0.444498,0.62441 -0.444498,1.48166 0,0.80433 0.433915,1.43933 0.444499,0.62442 1.18533,0.62442 0.582081,0 0.878414,-0.32809 0.306915,-0.32808 0.455081,-0.87841 0,0.83608 -0.444498,1.143 -0.433915,0.29633 -1.079497,0.29633 -0.941913,0 -1.449912,-0.65617 -0.507998,-0.65616 -0.507998,-1.54516 0,-1.17474 0.920747,-1.86266 0.920747,-0.68791 2.11666,-0.68791 z"
           id="path4157" />
        <path
           d="m 105.50191,146.54609 v 3.91582 q 0.0106,0.13759 0.13759,0.13759 0.0953,0 0.22225,-0.0635 0.13758,-0.0741 0.43391,-0.24342 -0.13758,0.28575 -0.46566,0.56092 -0.3175,0.27516 -0.61383,0.27516 -0.16934,0 -0.4445,-0.23283 -0.26459,-0.23283 -0.26459,-0.62442 v -0.57149 q -0.64558,0.64558 -1.09008,1.03716 -0.44449,0.39158 -0.77258,0.39158 -0.35983,0 -0.64558,-0.42333 -0.27516,-0.42333 -0.27516,-1.13241 0,-1.43933 0.79374,-2.23308 0.79375,-0.79375 2.06375,-0.79375 z m -2.76224,2.2225 q 0,0.51858 0.16934,0.76199 0.16933,0.24342 0.46566,0.24342 0.254,0 0.53975,-0.14817 0.29633,-0.15875 0.59266,-0.42333 v -2.36008 q -0.79374,0 -1.28058,0.59267 -0.48683,0.58208 -0.48683,1.3335 z"
           id="path4159" />
        <path
           d="m 109.02615,146.51434 q 0.41275,0 0.86783,0.27517 0.45508,0.26458 0.45508,0.65616 0,0.10584 -0.27516,0.39158 -0.27517,0.28575 -0.47625,0.40217 -0.0953,-0.47625 -0.48683,-0.77258 -0.39158,-0.29633 -0.80433,-0.29633 -0.39158,0 -0.64558,0.43391 -0.24342,0.42333 -0.24342,0.99483 0,1.016 0.46567,1.43933 0.47624,0.41275 1.07949,0.41275 0.254,0 0.55033,-0.13758 0.29634,-0.14817 0.61383,-0.35984 -0.42333,0.64559 -0.84666,0.91017 -0.41275,0.254 -1.15358,0.254 -1.02658,0 -1.31233,-0.55033 -0.28575,-0.55034 -0.28575,-1.35467 0,-1.21708 0.6985,-1.95791 0.6985,-0.74083 1.79916,-0.74083 z"
           id="path4161" />
        <path
           d="m 113.09013,146.49318 q 0.86783,0 1.35466,0.62441 0.49742,0.62442 0.49742,1.54516 0,0.97367 -0.71967,1.72508 -0.71966,0.75141 -1.60866,0.75141 -0.83608,0 -1.33349,-0.62441 -0.49742,-0.635 -0.49742,-1.5875 0,-0.95249 0.6985,-1.69332 0.6985,-0.74083 1.60866,-0.74083 z m -1.37583,1.80974 q 0,0.86783 0.22225,1.59808 0.23283,0.73025 1.02658,0.73025 0.45508,0 0.74083,-0.381 0.28575,-0.381 0.28575,-0.97367 0,-0.85724 -0.28575,-1.56632 -0.28575,-0.71967 -0.97366,-0.71967 -0.46567,0 -0.74083,0.37042 -0.27517,0.37041 -0.27517,0.94191 z"
           id="path4163" />
        <path
           d="m 116.51911,148.28175 q 0.52916,-0.87841 1.00541,-1.30174 0.47625,-0.43392 0.81491,-0.43392 0.381,0 0.49742,0.21167 0.127,0.20108 0.127,0.75141 v 1.29117 q 0,1.09008 -0.60325,1.71449 -0.59266,0.61383 -1.44991,0.61383 -0.635,0 -1.02658,-0.42333 -0.381,-0.42333 -0.381,-1.47108 v -3.38666 q 0,-0.77258 0.40217,-1.30174 0.41274,-0.52917 1.07949,-0.52917 h 0.9525 q -0.33867,0.61384 -0.87842,0.65617 -0.53974,0.0317 -0.53974,0.1905 z m 0,1.4605 q 0,0.93133 0.67733,0.93133 0.28575,0 0.508,-0.28575 0.23283,-0.29633 0.23283,-0.98425 v -1.35466 q 0,-0.22225 -0.0423,-0.33866 -0.0423,-0.127 -0.26459,-0.127 -0.34925,0 -0.73024,0.51858 -0.381,0.51858 -0.381,0.73025 z"
           id="path4165" />
      </g>
      <g
         id="g4155"
         transform="matrix(2.1061858,0,0,2.1061858,-86.506906,-209.61897)">
        <path
           d="m 136.07276,147.33214 q 0.41276,0 0.67734,0.14286 0.27516,0.14286 0.74083,0.59184 l -2.57175,2.4796 q 0.21166,0.33674 0.51858,0.43878 0.3175,0.0918 0.70909,0.0918 0.39158,0 0.73024,-0.17346 0.34926,-0.17347 0.62442,-0.36735 -0.42333,0.62245 -0.93132,0.93878 -0.50801,0.30612 -1.16417,0.30612 -0.94192,0 -1.33351,-0.58163 -0.39158,-0.58164 -0.39158,-1.25511 0,-1.18368 0.68792,-1.89797 0.68791,-0.71429 1.70391,-0.71429 z m -1.24882,2.9796 q 0.37041,-0.34693 0.74083,-0.69387 0.56091,-0.58164 0.56091,-0.87755 0,-0.35715 -0.17991,-0.55103 -0.17993,-0.20408 -0.47625,-0.20408 -0.37042,0 -0.58209,0.42857 -0.21166,0.41837 -0.21166,1.00001 0,0.2449 0.0318,0.46938 0.0318,0.21429 0.11643,0.42857 z"
           id="path3939"
           style="font-size:10.392px;line-height:1.25;font-family:BlackChancery;-inkscape-font-specification:'BlackChancery, Normal';stroke-width:0.2598" />
        <path
           d="m 141.65018,151.09747 q 0,0.22448 0.15875,0.22448 0.21167,0 0.58208,-0.33673 -0.21166,0.38775 -0.53975,0.60204 -0.3175,0.21429 -0.5715,0.21429 -0.28574,0 -0.46567,-0.16327 -0.16933,-0.17347 -0.16933,-0.52041 l 0.0106,-2.29593 q 0,-0.23469 -0.053,-0.36734 -0.053,-0.14286 -0.29633,-0.14286 -0.26459,0 -0.6985,0.54082 -0.43393,0.53061 -0.43393,0.62245 v 1.7347 q -0.053,0.21428 -0.37041,0.40816 -0.30691,0.18368 -0.61383,0.18368 v -3.48981 q 0,-0.16327 -0.12701,-0.16327 -0.15875,0 -0.60324,0.27551 0.40217,-0.48979 0.73025,-0.76531 0.33866,-0.28571 0.52917,-0.28571 0.29632,0 0.37041,0.31633 0.0846,0.30612 0.0846,0.95919 v 0.37755 q 0.41276,-0.62245 0.86784,-1.13266 0.46567,-0.52041 0.97367,-0.52041 0.39159,0 0.51858,0.25511 0.127,0.2551 0.127,0.7653 0,0.15307 -0.0106,0.30613 0,0.14286 0,0.29592 0,0.29591 -0.0106,0.63265 0,0.32653 0,0.79593 0,0.2653 0,0.46938 0,0.19388 0.0106,0.20409 z"
           id="path3941"
           style="font-size:10.392px;line-height:1.25;font-family:BlackChancery;-inkscape-font-specification:'BlackChancery, Normal';stroke-width:0.2598" />
        <path
           d="m 143.89384,145.09744 q 0.26459,0 0.4445,0.18368 0.17992,0.18367 0.17992,0.5 0,0.35715 -0.3175,0.56123 -0.3175,0.20408 -0.5715,0.20408 -0.22225,0 -0.33867,-0.2245 -0.10584,-0.23468 -0.10584,-0.54081 0,-0.38776 0.19051,-0.53062 0.1905,-0.15306 0.51858,-0.15306 z m -0.13758,2.2245 q 0.32808,0 0.45508,0.2449 0.13758,0.24489 0.13758,0.58163 v 2.86736 q 0.0424,0.28572 0.22226,0.28572 0.12699,0 0.29633,-0.13266 0.16933,-0.13265 0.22224,-0.17346 -0.25399,0.41836 -0.51857,0.61224 -0.254,0.19388 -0.58209,0.19388 -0.27517,0 -0.4445,-0.22449 -0.16933,-0.22449 -0.16933,-0.53061 v -3.01022 q 0,-0.19388 -0.14817,-0.19388 -0.20109,0 -0.62442,0.34694 0.053,-0.19388 0.43392,-0.53062 0.381,-0.33673 0.71967,-0.33673 z"
           id="path3943"
           style="font-size:10.392px;line-height:1.25;font-family:BlackChancery;-inkscape-font-specification:'BlackChancery, Normal';stroke-width:0.2598" />
        <path
           d="m 148.13776,151.80155 v -2.97961 q 0,-0.23469 -0.053,-0.36734 -0.053,-0.14286 -0.29634,-0.14286 -0.26458,0 -0.69849,0.54082 -0.43392,0.53061 -0.43392,0.62245 v 1.7347 q -0.053,0.21428 -0.37042,0.40816 -0.30691,0.18368 -0.61383,0.18368 v -3.48981 q 0,-0.16327 -0.127,-0.16327 -0.15875,0 -0.60326,0.27551 0.40218,-0.48979 0.73026,-0.76531 0.33866,-0.28571 0.52916,-0.28571 0.29634,0 0.37042,0.31633 0.0846,0.30612 0.0846,0.95919 v 0.37755 q 0.41274,-0.62245 0.86783,-1.13266 0.46567,-0.52041 0.97366,-0.52041 0.39159,0 0.51859,0.25511 0.12701,0.2551 0.12701,0.7653 0,0.15307 -0.0106,0.30613 0,0.14286 0,0.29592 0.39159,-0.54082 0.86784,-1.08164 0.48684,-0.54082 0.97367,-0.54082 0.33867,0 0.47625,0.17347 0.14817,0.17347 0.14817,0.59184 v 2.93878 q 0,0.2449 0.15875,0.2449 0.17991,0 0.55033,-0.32652 -0.127,0.33673 -0.41275,0.57142 -0.28575,0.2347 -0.65617,0.2347 -0.61383,0 -0.61383,-0.76531 v -2.2143 q 0,-0.2653 -0.0846,-0.38775 -0.0846,-0.12245 -0.27516,-0.12245 -0.24342,0 -0.68792,0.54082 -0.44451,0.54081 -0.44451,0.62245 v 1.7347 q -0.053,0.21428 -0.35982,0.40816 -0.29634,0.18368 -0.635,0.18368 z"
           id="path3945"
           style="font-size:10.392px;line-height:1.25;font-family:BlackChancery;-inkscape-font-specification:'BlackChancery, Normal';stroke-width:0.2598" />
        <path
           id="rect9960"
           style="fill:#000000;stroke:#000000;stroke-width:0.116973;stroke-opacity:0.965035"
           d="m 129.21301,144.14947 c -0.0567,0 -0.11323,0.001 -0.16899,0.004 -0.0559,0.002 -0.11102,0.005 -0.16597,0.008 -0.0549,0.003 -0.10939,0.008 -0.16358,0.0146 -0.0541,0.006 -0.10788,0.0122 -0.16117,0.0201 -0.0533,0.008 -0.10625,0.0165 -0.15877,0.0261 -0.0525,0.009 -0.10473,0.02 -0.15635,0.0316 -0.0517,0.0117 -0.10253,0.0241 -0.15335,0.0376 -0.0509,0.0135 -0.1016,0.0284 -0.15155,0.0438 -0.05,0.0153 -0.0994,0.0318 -0.14854,0.0493 -0.0491,0.0174 -0.0978,0.0354 -0.14613,0.0547 -0.0483,0.0193 -0.0963,0.0395 -0.14374,0.0608 -0.0475,0.0213 -0.0946,0.0436 -0.14132,0.0668 -0.0467,0.0231 -0.0931,0.0473 -0.13892,0.0723 -0.0459,0.0251 -0.0915,0.0514 -0.13652,0.0784 -0.045,0.0271 -0.0894,0.0549 -0.1335,0.0839 -0.0442,0.0289 -0.0877,0.059 -0.1311,0.0899 -1.36415,1.14698 -1.29714,2.5131 -0.79863,3.29742 0.0183,0.0334 0.0372,0.0663 0.0571,0.0984 0.0199,0.0321 0.0404,0.0634 0.0619,0.0942 0.0216,0.0308 0.0441,0.061 0.0674,0.0905 0.0233,0.0295 0.0472,0.0581 0.0722,0.0863 0.0249,0.0281 0.051,0.0558 0.0776,0.0826 0.0238,0.0241 0.0478,0.0476 0.0727,0.0704 0.0249,0.0228 0.0503,0.0446 0.0764,0.0662 0.0261,0.0216 0.0528,0.0429 0.08,0.0632 0.0272,0.0205 0.0553,0.0403 0.0836,0.0595 0.0283,0.0192 0.0571,0.0373 0.0866,0.0553 0.0294,0.018 0.059,0.0356 0.0896,0.0522 0.0306,0.0167 0.0622,0.033 0.0938,0.0486 0.0316,0.0156 0.064,0.0301 0.0968,0.0444 0.0328,0.0143 0.0659,0.0282 0.0999,0.0413 0.034,0.013 0.0683,0.0251 0.10346,0.0371 0.0351,0.0119 0.0709,0.0228 0.10706,0.0334 0.0362,0.0106 0.0734,0.0205 0.11068,0.0303 0.39667,0.12971 0.47508,0.21779 0.47508,0.6155 v 0.95089 c 0,0.0643 -0.001,0.12696 -0.003,0.18835 -0.002,0.0614 -0.005,0.12137 -0.008,0.17985 -0.003,0.0584 -0.009,0.11582 -0.0144,0.17133 -0.006,0.0557 -0.0118,0.10959 -0.0192,0.16224 -0.008,0.0526 -0.0165,0.10394 -0.0258,0.15371 -0.009,0.0497 -0.0194,0.0977 -0.0307,0.14461 -0.0116,0.0468 -0.0235,0.0922 -0.0367,0.13612 -0.0131,0.0439 -0.027,0.0866 -0.0421,0.12758 -0.0145,0.041 -0.0305,0.0806 -0.0469,0.1197 -0.0164,0.039 -0.0334,0.0774 -0.0517,0.11417 -0.0183,0.0369 -0.0376,0.0725 -0.0577,0.10758 -0.0201,0.035 -0.0411,0.0691 -0.0632,0.10206 -0.022,0.0329 -0.0453,0.0645 -0.0691,0.0954 -0.024,0.0309 -0.0488,0.061 -0.0746,0.0899 -0.0258,0.0289 -0.0523,0.0565 -0.0799,0.0833 -0.0277,0.0268 -0.0564,0.053 -0.086,0.0777 -0.013,0.0121 -0.0246,0.0235 -0.0343,0.0339 -0.009,0.0106 -0.0182,0.0207 -0.0247,0.0297 -0.007,0.009 -0.0116,0.0173 -0.0144,0.025 -0.003,0.007 -0.005,0.0144 -0.005,0.0207 0,0.009 0.001,0.0168 0.006,0.0237 0.003,0.007 0.009,0.0124 0.0169,0.0171 0.008,0.005 0.017,0.008 0.0283,0.0106 0.0116,0.002 0.0247,0.003 0.0397,0.003 0.0641,0.003 0.12027,0.006 0.16838,0.006 h 0.0843 c 0.0587,0 0.11724,-6.2e-4 0.1756,-0.002 0.0583,-0.001 0.11626,-0.003 0.1744,-0.006 0.0581,-0.002 0.11603,-0.006 0.1738,-0.009 0.0578,-0.003 0.11568,-0.008 0.1732,-0.014 0.0576,-0.006 0.11533,-0.0117 0.1726,-0.0182 0.0573,-0.007 0.11439,-0.0138 0.17139,-0.0218 0.057,-0.008 0.11405,-0.0163 0.17079,-0.0256 0.0568,-0.009 0.11311,-0.0198 0.16958,-0.0303 0.0566,-0.0106 0.11277,-0.0215 0.169,-0.0334 0.0562,-0.012 0.11242,-0.0249 0.16838,-0.0383 0.056,-0.0132 0.11206,-0.0273 0.16779,-0.042 0.0557,-0.0145 0.11113,-0.0296 0.16658,-0.0457 0.0554,-0.016 0.11078,-0.0325 0.16598,-0.0499 0.0552,-0.0173 0.11044,-0.0355 0.16537,-0.0541 0.0549,-0.0186 0.10951,-0.0378 0.16419,-0.0578 0.0546,-0.02 0.10915,-0.0407 0.16357,-0.0619 0.0599,-0.0232 0.11906,-0.0467 0.1774,-0.0711 0.0583,-0.0245 0.1158,-0.0497 0.17259,-0.0754 0.0568,-0.0257 0.11254,-0.0516 0.16779,-0.0784 0.0553,-0.0268 0.10986,-0.0541 0.16358,-0.082 0.0536,-0.0279 0.1066,-0.0566 0.15875,-0.0857 0.0521,-0.0291 0.10335,-0.0584 0.15396,-0.0887 0.0506,-0.0302 0.10009,-0.061 0.14914,-0.0924 0.049,-0.0314 0.0974,-0.0636 0.14493,-0.096 0.0475,-0.0325 0.0942,-0.0659 0.14013,-0.0997 0.046,-0.0336 0.0909,-0.0678 0.1353,-0.10264 0.0443,-0.0349 0.0883,-0.0703 0.13111,-0.10629 0.0428,-0.036 0.085,-0.0722 0.12629,-0.10934 0.0413,-0.0372 0.0818,-0.0747 0.12147,-0.113 0.0397,-0.0383 0.0784,-0.0773 0.11667,-0.11664 0.0382,-0.0395 0.0759,-0.0797 0.11242,-0.1203 0.0367,-0.0407 0.0725,-0.0822 0.10765,-0.12395 0.0396,-0.0472 0.0777,-0.0947 0.11486,-0.14279 0.0371,-0.0481 0.073,-0.0962 0.10765,-0.14521 0.0347,-0.049 0.0683,-0.0988 0.10042,-0.14886 0.0321,-0.0501 0.063,-0.10093 0.0926,-0.1519 0.0297,-0.051 0.0582,-0.10288 0.0854,-0.15494 0.0272,-0.0521 0.0528,-0.1043 0.0776,-0.15737 0.0248,-0.053 0.0486,-0.10699 0.071,-0.161 0.0222,-0.054 0.0434,-0.10841 0.0632,-0.16345 0.0198,-0.0551 0.0381,-0.11041 0.0553,-0.16649 0.0173,-0.0561 0.0333,-0.1131 0.0481,-0.17012 0.0148,-0.057 0.0285,-0.11453 0.0408,-0.17256 0.0123,-0.0581 0.0237,-0.11652 0.0336,-0.1756 0.009,-0.059 0.0185,-0.11858 0.0258,-0.17863 0.007,-0.0601 0.0137,-0.12062 0.0186,-0.18167 0.005,-0.061 0.008,-0.12267 0.0105,-0.18471 0.002,-0.0618 0.005,-0.12431 0.005,-0.18714 v -6.3e-4 c -1e-5,-0.0792 -0.001,-0.1578 -0.005,-0.23513 -0.003,-0.0775 -0.008,-0.15407 -0.015,-0.22967 -0.007,-0.0756 -0.0143,-0.14995 -0.0241,-0.2236 -0.009,-0.0737 -0.0213,-0.14642 -0.0343,-0.21813 -0.0129,-0.0717 -0.0271,-0.1429 -0.0433,-0.21266 -0.0162,-0.0697 -0.0341,-0.13816 -0.0535,-0.20597 -0.0194,-0.0678 -0.0411,-0.13464 -0.0638,-0.2005 -0.0227,-0.0659 -0.0468,-0.13111 -0.0727,-0.19504 -0.026,-0.0639 -0.0532,-0.12639 -0.0824,-0.18836 -0.0292,-0.0619 -0.0602,-0.12347 -0.0926,-0.18349 -0.0325,-0.0601 -0.0666,-0.11873 -0.10229,-0.17682 -0.0356,-0.0581 -0.073,-0.11522 -0.11184,-0.17134 -0.0389,-0.0561 -0.0794,-0.1117 -0.12148,-0.16588 -0.0421,-0.0542 -0.0858,-0.10699 -0.13109,-0.15918 -0.0454,-0.0522 -0.0928,-0.10406 -0.14133,-0.15432 -0.0486,-0.0503 -0.0985,-0.0994 -0.15034,-0.14766 -0.0491,-0.0459 -0.099,-0.09 -0.14975,-0.13306 -0.0507,-0.0429 -0.10229,-0.0845 -0.15455,-0.12456 -0.0523,-0.0401 -0.10555,-0.0788 -0.15937,-0.11605 -0.0539,-0.0373 -0.10811,-0.0731 -0.16357,-0.10758 -0.0554,-0.0344 -0.11196,-0.0675 -0.16899,-0.099 -0.057,-0.0315 -0.11463,-0.0612 -0.1732,-0.0899 -0.0587,-0.0287 -0.11842,-0.0556 -0.17862,-0.0813 -0.0602,-0.0258 -0.12104,-0.0505 -0.1828,-0.0734 -0.0618,-0.0229 -0.12429,-0.0444 -0.18763,-0.0645 -0.0633,-0.02 -0.12751,-0.0387 -0.19245,-0.0559 -0.0649,-0.0172 -0.13073,-0.0324 -0.19725,-0.0468 -0.0665,-0.0143 -0.13337,-0.0274 -0.20145,-0.0389 -0.0681,-0.0117 -0.13721,-0.0217 -0.20689,-0.0303 -0.0697,-0.008 -0.14043,-0.0155 -0.21168,-0.0213 -0.0712,-0.006 -0.14304,-0.009 -0.21589,-0.0128 -0.0729,-0.002 -0.14628,-0.005 -0.22071,-0.005 z m 0,0.36274 v 10e-4 c 0.0622,0 0.12329,6.3e-4 0.18403,0.005 0.0608,0.002 0.12108,0.007 0.1804,0.0122 0.0594,0.006 0.1177,0.0121 0.1756,0.02 0.058,0.008 0.11486,0.0178 0.1714,0.0286 0.0566,0.0106 0.11265,0.0223 0.16779,0.0359 0.055,0.0134 0.10927,0.0289 0.16296,0.045 0.0537,0.0161 0.10649,0.0332 0.15877,0.0522 0.0523,0.0188 0.10427,0.0387 0.15515,0.0602 0.0509,0.0215 0.1009,0.0445 0.15035,0.0687 0.0495,0.0242 0.0981,0.0503 0.14614,0.0771 0.0481,0.027 0.0953,0.0549 0.14192,0.0845 0.0467,0.0296 0.0925,0.0607 0.13772,0.093 0.0453,0.0323 0.0903,0.0659 0.13411,0.10093 0.0439,0.035 0.0869,0.0711 0.12929,0.10875 0.0424,0.0377 0.084,0.0769 0.12509,0.11723 0.041,0.0403 0.0814,0.0814 0.12087,0.12455 0.0381,0.0413 0.075,0.0832 0.11067,0.12578 0.0357,0.0424 0.0701,0.0857 0.10346,0.12942 0.0333,0.0437 0.0653,0.0881 0.0962,0.13307 0.031,0.045 0.061,0.0905 0.0896,0.1367 0.0286,0.0462 0.0556,0.0928 0.0818,0.14035 0.0262,0.0474 0.0513,0.096 0.0752,0.14461 0.0239,0.0487 0.0466,0.0977 0.068,0.14764 0.0214,0.05 0.0417,0.10022 0.0607,0.1513 0.0191,0.0511 0.0369,0.10312 0.0535,0.15555 0.0166,0.0523 0.032,0.10558 0.0463,0.15919 0.0143,0.0536 0.0272,0.10734 0.0391,0.16223 0.0119,0.0548 0.0229,0.1104 0.0325,0.16648 0.009,0.0561 0.0175,0.11275 0.0247,0.17013 0.007,0.0574 0.0133,0.11523 0.018,0.17376 0.005,0.0586 0.008,0.11766 0.0105,0.17742 0.002,0.0597 0.003,0.12005 0.003,0.18106 v 6.3e-4 c 0,0.0582 -10e-4,0.1157 -0.003,0.17317 -0.002,0.0574 -0.005,0.11464 -0.008,0.17134 -0.003,0.0567 -0.008,0.11311 -0.0138,0.16892 -0.006,0.0559 -0.0116,0.11146 -0.0186,0.16647 -0.007,0.0551 -0.0151,0.10911 -0.0241,0.16344 -0.009,0.0543 -0.0187,0.10818 -0.0295,0.16162 -0.0105,0.0536 -0.0223,0.10712 -0.0349,0.15981 -0.0125,0.0526 -0.0254,0.10487 -0.0397,0.15675 -0.0143,0.0518 -0.0297,0.10323 -0.0457,0.15433 -0.0161,0.0511 -0.0333,0.10159 -0.0511,0.1519 -0.0178,0.0503 -0.0363,0.10052 -0.0559,0.15009 -0.0197,0.0495 -0.0405,0.0989 -0.0619,0.14764 -0.0214,0.0487 -0.0435,0.0967 -0.0668,0.14461 -0.0233,0.048 -0.0471,0.0956 -0.0722,0.14278 -0.025,0.0472 -0.0507,0.094 -0.0776,0.14035 -0.0268,0.0464 -0.0545,0.0923 -0.083,0.13792 -0.0258,0.041 -0.0525,0.0816 -0.0794,0.12153 -0.0269,0.0399 -0.0543,0.0791 -0.0824,0.11787 -0.0281,0.0388 -0.0563,0.0771 -0.0854,0.11487 -0.0291,0.0376 -0.0588,0.0752 -0.089,0.11182 -0.0303,0.0366 -0.0613,0.0726 -0.0926,0.10817 -0.0313,0.0356 -0.0626,0.0701 -0.095,0.10452 -0.0324,0.0343 -0.0658,0.0682 -0.0993,0.10147 -0.0335,0.0332 -0.067,0.0663 -0.10159,0.0984 -0.0346,0.0321 -0.0702,0.0637 -0.10579,0.0948 -0.0357,0.031 -0.0715,0.0612 -0.10823,0.0911 -0.0368,0.03 -0.0746,0.0587 -0.11241,0.0875 -0.0378,0.0288 -0.0759,0.058 -0.11486,0.0858 -0.039,0.0278 -0.0784,0.0542 -0.11847,0.0807 -0.04,0.0266 -0.0809,0.0536 -0.12207,0.079 -0.0412,0.0255 -0.0829,0.0503 -0.12509,0.0748 -0.0422,0.0243 -0.0847,0.0484 -0.12809,0.0717 -0.0408,0.0217 -0.0822,0.0429 -0.12329,0.0633 -0.0411,0.0205 -0.0819,0.0398 -0.12328,0.0589 -0.0413,0.0191 -0.0829,0.0371 -0.12449,0.0547 -0.0416,0.0178 -0.0832,0.0346 -0.12509,0.051 -0.0419,0.0164 -0.0843,0.0318 -0.12629,0.0468 -0.0421,0.015 -0.0839,0.0295 -0.12628,0.0431 -0.0424,0.0136 -0.0849,0.0272 -0.12749,0.0395 -0.0426,0.0122 -0.0853,0.0237 -0.1281,0.0347 -0.0428,0.0106 -0.0862,0.0208 -0.1293,0.0303 -0.0431,0.009 -0.086,0.018 -0.12929,0.0261 -0.0434,0.008 -0.0869,0.0157 -0.1305,0.0224 -0.0436,0.007 -0.0873,0.0128 -0.1311,0.0182 -0.0439,0.006 -0.0882,0.0106 -0.1323,0.0146 -0.0441,0.004 -0.088,0.007 -0.1323,0.009 -0.0443,0.002 -0.0889,0.005 -0.13351,0.006 -0.0446,10e-4 -0.0893,0.002 -0.13411,0.002 0.0226,-0.0279 0.0441,-0.0568 0.0655,-0.0863 0.0214,-0.0295 0.0422,-0.06 0.0625,-0.0911 0.0203,-0.0311 0.0404,-0.0619 0.0596,-0.0948 0.0192,-0.0328 0.0379,-0.067 0.056,-0.10147 0.018,-0.0344 0.0354,-0.069 0.0524,-0.10512 0.0169,-0.0361 0.0329,-0.074 0.0486,-0.11182 0.0158,-0.0378 0.0311,-0.0761 0.0457,-0.11545 0.0147,-0.0394 0.0291,-0.0793 0.0427,-0.1203 0.0141,-0.041 0.0268,-0.0824 0.0391,-0.12395 0.0122,-0.0415 0.0237,-0.0832 0.0342,-0.12517 0.0105,-0.0421 0.0201,-0.0845 0.0289,-0.12698 0.008,-0.0425 0.017,-0.0852 0.0241,-0.12821 0.007,-0.043 0.0128,-0.0866 0.018,-0.13003 0.005,-0.0435 0.009,-0.0873 0.0133,-0.13124 0.003,-0.044 0.006,-0.0885 0.008,-0.13306 0.002,-0.0446 0.003,-0.0892 0.003,-0.13427 v -1.11555 c 0,-0.35451 0.26834,-0.37974 0.54424,-0.48001 0.61937,-0.24843 0.96242,-0.56504 1.27433,-1.08455 0.0116,-0.0242 0.0217,-0.0481 0.0313,-0.0723 0.009,-0.0242 0.0185,-0.0486 0.0264,-0.0729 0.008,-0.0243 0.0152,-0.049 0.0216,-0.0735 0.006,-0.0244 0.012,-0.0483 0.0169,-0.0729 0.005,-0.0246 0.009,-0.0494 0.0121,-0.074 0.003,-0.0249 0.006,-0.0499 0.007,-0.0748 0.001,-0.0249 0.003,-0.0502 0.003,-0.0754 0,-0.0299 -0.001,-0.0584 -0.003,-0.0869 -10e-4,-0.0285 -0.004,-0.0568 -0.007,-0.0839 -0.003,-0.0271 -0.008,-0.0538 -0.0126,-0.0796 -0.005,-0.0258 -0.0105,-0.0504 -0.0169,-0.0748 -0.007,-0.0243 -0.0141,-0.0482 -0.0222,-0.0711 -0.008,-0.0229 -0.0173,-0.0447 -0.0271,-0.0662 -0.009,-0.0215 -0.0199,-0.0424 -0.0313,-0.0625 -0.0116,-0.0201 -0.0236,-0.0396 -0.0367,-0.0583 -0.015,-0.0213 -0.0308,-0.0415 -0.0475,-0.0602 -0.0166,-0.0186 -0.0347,-0.0358 -0.0529,-0.0516 -0.0183,-0.016 -0.0373,-0.0305 -0.0572,-0.0437 -0.0199,-0.0132 -0.0404,-0.0253 -0.0619,-0.0359 -0.0215,-0.0106 -0.0442,-0.02 -0.0674,-0.028 -0.0232,-0.008 -0.0474,-0.0148 -0.0721,-0.0201 -0.0248,-0.006 -0.0499,-0.009 -0.0764,-0.0122 -0.0264,-0.002 -0.0538,-0.003 -0.0818,-0.003 -0.0365,0 -0.0718,0.002 -0.1052,0.006 -0.0334,0.005 -0.0653,0.0106 -0.0957,0.0194 -0.0304,0.008 -0.0595,0.0193 -0.0866,0.0322 -0.0136,0.006 -0.0263,0.0137 -0.0391,0.0213 -0.0128,0.007 -0.0252,0.0158 -0.0372,0.0243 -0.0121,0.008 -0.0236,0.0178 -0.0349,0.0274 -0.0116,0.009 -0.0226,0.0196 -0.0331,0.0304 -0.0209,0.0215 -0.0399,0.0453 -0.0577,0.0711 -0.0178,0.0259 -0.0341,0.0537 -0.0488,0.0838 -0.0147,0.0301 -0.0276,0.0628 -0.0391,0.0972 -0.006,0.0182 -0.0105,0.0365 -0.0139,0.0546 -0.003,0.0182 -0.003,0.0365 -0.003,0.0547 0,0.0202 1.1e-4,0.0375 0.001,0.0516 9.2e-4,0.0142 0.002,0.0253 0.005,0.0334 0.003,0.009 0.006,0.0168 0.009,0.0238 0.003,0.007 0.007,0.0124 0.0116,0.0171 0.003,0.005 0.008,0.008 0.0126,0.0106 0.005,0.002 0.009,0.003 0.0144,0.003 0.006,0 0.0121,-0.002 0.018,-0.006 0.006,-0.003 0.012,-0.008 0.018,-0.0146 0.006,-0.007 0.0121,-0.0151 0.018,-0.025 0.006,-0.009 0.012,-0.0208 0.018,-0.0339 0.003,-0.007 0.007,-0.0137 0.012,-0.02 0.005,-0.006 0.0118,-0.0127 0.0192,-0.0182 0.008,-0.006 0.0161,-0.0106 0.0258,-0.0152 0.009,-0.005 0.0211,-0.009 0.033,-0.0134 0.013,-0.005 0.0268,-0.009 0.0421,-0.0134 0.0153,-0.004 0.0318,-0.007 0.0494,-0.009 0.0176,-0.002 0.0362,-0.005 0.056,-0.006 0.0198,-0.001 0.0411,-0.002 0.0632,-0.002 0.0105,0 0.0199,9e-5 0.0294,0.002 0.009,0.001 0.0185,0.003 0.0277,0.006 0.009,0.002 0.0184,0.006 0.0271,0.009 0.008,0.003 0.017,0.008 0.0252,0.014 0.0165,0.0106 0.0321,0.024 0.0469,0.0401 0.0148,0.016 0.0291,0.0345 0.0421,0.056 0.013,0.0213 0.0246,0.0439 0.0343,0.0681 0.009,0.0241 0.0176,0.0491 0.0241,0.076 0.007,0.0268 0.0118,0.0553 0.015,0.085 0.003,0.0296 0.005,0.0605 0.005,0.0931 0,0.0197 -9.2e-4,0.0393 -0.002,0.0589 -0.001,0.0196 -0.003,0.0394 -0.007,0.0589 -0.002,0.0195 -0.006,0.0389 -0.0105,0.0583 -0.003,0.0194 -0.009,0.0385 -0.0144,0.0577 -0.006,0.0193 -0.0116,0.0386 -0.018,0.0577 -0.007,0.0192 -0.0147,0.0387 -0.0228,0.0577 -0.0163,0.0382 -0.0354,0.076 -0.0571,0.11359 -0.0218,0.0378 -0.0461,0.0752 -0.0733,0.1124 -0.0272,0.0373 -0.0575,0.0744 -0.0902,0.11123 -0.0327,0.0368 -0.0677,0.0736 -0.1059,0.10994 -0.0382,0.0364 -0.079,0.0727 -0.12268,0.10875 -0.0391,0.0318 -0.0779,0.0613 -0.11602,0.0893 -0.0382,0.0279 -0.0759,0.0539 -0.113,0.0778 -0.0372,0.0239 -0.0738,0.0464 -0.11009,0.0662 -0.0655,0.0415 -0.14037,0.088 -0.21229,0.0948 -0.29657,0.006 -0.29647,-0.23817 -0.29647,-0.23817 v -2.32062 c 0,-0.0213 0.001,-0.0434 0.005,-0.0656 0.003,-0.0222 0.008,-0.0449 0.0144,-0.0681 0.007,-0.0232 0.0149,-0.0474 0.0247,-0.0717 0.009,-0.0243 0.0212,-0.0488 0.0342,-0.074 0.013,-0.0253 0.0276,-0.0516 0.0433,-0.079 0.0158,-0.0274 0.0326,-0.0556 0.0511,-0.0852 0.0371,-0.0587 0.08,-0.12152 0.12811,-0.18837 0.003,-0.006 0.007,-0.014 0.009,-0.023 0.002,-0.009 0.003,-0.0194 0.003,-0.0316 0,-0.0152 -0.002,-0.0278 -0.007,-0.0376 -0.002,-0.005 -0.005,-0.009 -0.008,-0.0128 -0.003,-0.003 -0.006,-0.007 -0.0105,-0.009 -0.003,-0.002 -0.009,-0.004 -0.0138,-0.005 -0.005,-9.3e-4 -0.0105,-9.3e-4 -0.0162,-6.2e-4 -0.0121,6.2e-4 -0.0261,0.005 -0.0421,0.0106 -0.0441,0.0202 -0.10218,0.05 -0.1744,0.0905 -0.11021,0.0628 -0.20727,0.11664 -0.29046,0.16224 -0.0832,0.0457 -0.15255,0.0833 -0.20868,0.11182 -0.0741,0.0365 -0.14734,0.0708 -0.2195,0.10335 -0.0722,0.0324 -0.14334,0.0628 -0.21349,0.0911 -0.0702,0.0284 -0.12629,0.0516 -0.16839,0.0698 -0.0421,0.0182 -0.0702,0.0314 -0.0841,0.0395 -0.007,0.003 -0.0128,0.008 -0.018,0.0134 -0.006,0.005 -0.0105,0.009 -0.0138,0.0152 -0.003,0.006 -0.006,0.0117 -0.007,0.0177 -0.002,0.006 -0.003,0.0135 -0.003,0.0207 0,0.0106 0.001,0.0194 0.003,0.028 0.002,0.008 0.007,0.0166 0.0116,0.0237 0.005,0.007 0.0116,0.0132 0.0186,0.0188 0.008,0.006 0.0164,0.0106 0.0264,0.0146 0.04,0.0162 0.0843,0.0317 0.1323,0.048 0.0126,0.006 0.024,0.0131 0.0349,0.0207 0.0105,0.007 0.0213,0.0159 0.0307,0.0249 0.009,0.009 0.018,0.0187 0.0258,0.0292 0.008,0.0106 0.0148,0.0215 0.0211,0.0334 0.006,0.0119 0.0121,0.0243 0.0169,0.0376 0.005,0.0132 0.008,0.0278 0.0116,0.0425 0.003,0.0148 0.006,0.0304 0.007,0.0468 0.001,0.0163 0.002,0.0327 0.002,0.0504 v 1.95585 c -6.1e-4,0.12452 -0.0576,0.36855 -0.3903,0.21875 -0.0582,-0.0262 -0.10299,-0.0526 -0.1768,-0.0813 -0.0567,-0.022 -0.1109,-0.0451 -0.16358,-0.0698 -0.0526,-0.0248 -0.10369,-0.0511 -0.15214,-0.079 -0.0485,-0.0279 -0.0946,-0.0573 -0.13892,-0.0881 -0.0443,-0.0309 -0.0867,-0.0632 -0.12689,-0.0972 -0.0403,-0.034 -0.0782,-0.0694 -0.11429,-0.10629 -0.0211,-0.0217 -0.0417,-0.0438 -0.0613,-0.0668 -0.0198,-0.0228 -0.0388,-0.0459 -0.0571,-0.0698 -0.0184,-0.0239 -0.0364,-0.0489 -0.0535,-0.074 -0.0171,-0.0251 -0.0335,-0.0503 -0.0493,-0.0766 -0.0158,-0.0262 -0.0306,-0.0529 -0.0452,-0.0802 -0.0144,-0.0273 -0.0283,-0.0554 -0.0416,-0.0838 -0.0131,-0.0285 -0.0261,-0.0574 -0.0379,-0.0869 -0.0119,-0.0295 -0.0226,-0.0598 -0.0331,-0.0905 -0.0105,-0.0307 -0.0208,-0.0618 -0.03,-0.0935 -0.009,-0.0317 -0.0173,-0.0637 -0.0253,-0.0967 -0.008,-0.0328 -0.015,-0.0663 -0.0216,-0.10031 -0.007,-0.034 -0.0128,-0.0682 -0.018,-0.10336 -0.005,-0.035 -0.0105,-0.0713 -0.0139,-0.10758 -0.003,-0.0363 -0.007,-0.072 -0.009,-0.10935 -0.002,-0.0373 -0.005,-0.0753 -0.006,-0.11357 -0.001,-0.0383 -0.002,-0.0777 -0.002,-0.11722 0,-0.0446 0.001,-0.0883 0.003,-0.13184 0.002,-0.0436 0.007,-0.0863 0.0116,-0.12882 0.005,-0.0424 0.0116,-0.0849 0.0186,-0.12638 0.008,-0.0415 0.0164,-0.0823 0.0264,-0.12273 0.0105,-0.0404 0.0217,-0.0803 0.0343,-0.1197 0.0126,-0.0394 0.0263,-0.0783 0.0416,-0.11664 0.0151,-0.0383 0.0317,-0.0763 0.0493,-0.11358 0.0177,-0.0374 0.0363,-0.0744 0.0566,-0.11052 0.0201,-0.0364 0.0417,-0.0723 0.0644,-0.10759 0.0227,-0.0353 0.047,-0.0702 0.0722,-0.10452 0.0253,-0.0342 0.0517,-0.0676 0.0794,-0.10092 0.0277,-0.0332 0.0563,-0.0662 0.0866,-0.0984 0.0303,-0.0322 0.0623,-0.0636 0.0951,-0.0948 0.0328,-0.0311 0.0663,-0.0622 0.1016,-0.0924 0.0353,-0.0301 0.0723,-0.0596 0.11009,-0.0886 0.0378,-0.0292 0.0769,-0.0582 0.11727,-0.0863 0.0368,-0.0255 0.0741,-0.0501 0.11183,-0.0741 0.0377,-0.0239 0.0752,-0.0469 0.1137,-0.0692 0.0385,-0.0223 0.078,-0.0443 0.11727,-0.065 0.0393,-0.0208 0.0789,-0.0403 0.11907,-0.0595 0.0401,-0.0192 0.0805,-0.0378 0.12149,-0.0553 0.041,-0.0175 0.0826,-0.0344 0.12448,-0.0504 0.0418,-0.016 0.0837,-0.0311 0.12629,-0.0457 0.0426,-0.0143 0.0858,-0.028 0.12929,-0.0407 0.0435,-0.0128 0.0874,-0.0247 0.1317,-0.0359 0.0443,-0.0117 0.089,-0.022 0.13411,-0.0316 0.0452,-0.009 0.0905,-0.0181 0.13652,-0.0261 0.046,-0.008 0.0928,-0.0149 0.13952,-0.0213 0.0468,-0.006 0.0937,-0.0122 0.14133,-0.0171 0.0476,-0.005 0.0959,-0.009 0.14431,-0.0121 0.0484,-0.003 0.0974,-0.006 0.14674,-0.007 0.0492,-10e-4 0.099,-0.002 0.14915,-0.002 z" />
      </g>
    </g>
  </g>
</svg>
