<?xml version="1.0" encoding="UTF-8" standalone="no"?>
<!-- Created with Inkscape (http://www.inkscape.org/) -->

<svg
   width="297mm"
   height="210mm"
   viewBox="0 0 297 210"
   version="1.1"
   id="svg5"
   inkscape:version="1.1.1 (3bf5ae0d25, 2021-09-20)"
   sodipodi:docname="Jutic.svg"
   xmlns:inkscape="http://www.inkscape.org/namespaces/inkscape"
   xmlns:sodipodi="http://sodipodi.sourceforge.net/DTD/sodipodi-0.dtd"
   xmlns:xlink="http://www.w3.org/1999/xlink"
   xmlns="http://www.w3.org/2000/svg"
   xmlns:svg="http://www.w3.org/2000/svg">
  <sodipodi:namedview
     id="namedview7"
     pagecolor="#ffffff"
     bordercolor="#666666"
     borderopacity="1.0"
     inkscape:showpageshadow="2"
     inkscape:pageopacity="0.0"
     inkscape:pagecheckerboard="0"
     inkscape:deskcolor="#d1d1d1"
     inkscape:document-units="mm"
     showgrid="false"
     inkscape:zoom="0.36863758"
     inkscape:cx="657.82768"
     inkscape:cy="324.16663"
     inkscape:window-width="1366"
     inkscape:window-height="705"
     inkscape:window-x="-8"
     inkscape:window-y="-8"
     inkscape:window-maximized="1"
     inkscape:current-layer="layer1"
     inkscape:pageshadow="2"
     showguides="true"
     inkscape:guide-bbox="true" />
  <defs
     id="defs2">
    <linearGradient
       inkscape:collect="always"
       id="linearGradient1285">
      <stop
         style="stop-color:#51bc51;stop-opacity:1;"
         offset="1"
         id="stop1281" />
      <stop
         style="stop-color:#51bc51;stop-opacity:0;"
         offset="1"
         id="stop1283" />
    </linearGradient>
    <linearGradient
       inkscape:collect="always"
       id="linearGradient1261">
      <stop
         style="stop-color:#298529;stop-opacity:0.7811144;"
         offset="0.8381744"
         id="stop1257" />
      <stop
         style="stop-color:#51bc51;stop-opacity:0;"
         offset="1"
         id="stop1259" />
    </linearGradient>
    <linearGradient
       inkscape:collect="always"
       xlink:href="#linearGradient1261"
       id="linearGradient1263"
       x1="108.05492"
       y1="127.08511"
       x2="142.59462"
       y2="127.08511"
       gradientUnits="userSpaceOnUse"
       gradientTransform="matrix(0.8214605,0,0,0.8214605,-36.64219,0.40282356)" />
    <linearGradient
       inkscape:collect="always"
       xlink:href="#linearGradient1285"
       id="linearGradient1287"
       x1="74.600868"
       y1="160.56165"
       x2="108.15697"
       y2="160.56165"
       gradientUnits="userSpaceOnUse"
       gradientTransform="matrix(0.8214605,0,0,0.8214605,-36.64219,0.40282356)" />
  </defs>
  <g
     inkscape:label="Layer 1"
     inkscape:groupmode="layer"
     id="layer1">
    <g
       id="g1094">
      <rect
         style="fill:none;fill-opacity:0.780392;stroke:#000500;stroke-width:0.2278;stroke-opacity:0.996723;paint-order:markers fill stroke"
         id="rect3975"
         width="296.63892"
         height="212.0826"
         x="0.11741665"
         y="-0.59797001" />
      <g
         id="g1065">
        <path
           d="m 91.710784,130.65667 c 0.131295,11.43055 6.306527,16.94873 17.211526,16.94873 7.88312,0 14.05824,-3.15323 19.83921,-8.01452 l 1.57662,-1.18245 c 0.52557,6.96343 6.30652,7.88312 11.43056,7.88312 h 2.89046 V 98.992766 c 0,-8.014515 -6.17511,-9.065577 -11.69329,-9.065577 h -2.75911 v 46.773221 l -1.70804,1.44525 c -4.3357,3.67878 -8.14587,5.91233 -12.21883,5.91233 -5.12402,0 -9.98531,-3.94155 -10.11669,-13.53271 V 98.992766 c 0,-8.014515 -6.306506,-9.065577 -11.693304,-9.065577 h -2.759112 z"
           id="path2677"
           style="font-size:60.4406px;line-height:1.25;font-family:'Monea Alegante';-inkscape-font-specification:'Monea Alegante, Normal';fill:#298529;fill-opacity:0.780392;stroke-width:3.28463" />
        <path
           d="m 176.32296,91.372423 h 10.51081 V 90.05857 h -10.51081 v -0.13118 c 0,-8.014529 -7.2262,-9.853935 -12.35026,-11.561945 l -2.10217,-0.65692 v 4.729874 c 0,7.488991 -0.26278,7.620386 -6.5693,7.620386 v 1.313839 h 3.15329 c 3.41601,0 3.41601,0 3.41601,3.678812 v 40.072524 c 0,8.80285 5.38682,12.48166 11.69334,12.48166 5.12397,0 10.77359,-2.7591 14.32097,-7.09482 -1.44522,1.18246 -3.81019,2.10217 -5.91233,2.10217 -4.99263,0 -5.64955,-3.02189 -5.64955,-6.96347 z"
           id="path2679"
           style="font-size:60.4406px;line-height:1.25;font-family:'Monea Alegante';-inkscape-font-specification:'Monea Alegante, Normal';fill:#298529;fill-opacity:0.780392;stroke-width:3.28463" />
        <path
           d="m 196.29347,73.898117 c 0,4.204336 2.89049,7.094819 7.09482,7.094819 4.33573,0 7.09485,-2.890483 7.09485,-7.094819 0,-4.335724 -2.75912,-7.094822 -7.09485,-7.094822 -4.20433,0 -7.09482,2.759098 -7.09482,7.094822 z m -0.26276,63.327813 c 0,8.01454 6.17512,9.06562 11.56193,9.06562 h 2.8905 V 98.992766 c 0,-8.014515 -6.30653,-9.065577 -11.69334,-9.065577 h -2.75909 z"
           id="path2681"
           style="font-size:60.4406px;line-height:1.25;font-family:'Monea Alegante';-inkscape-font-specification:'Monea Alegante, Normal';fill:#298529;fill-opacity:0.780392;stroke-width:3.28463" />
        <path
           d="m 257.25633,137.35734 c -28.90481,0 -30.8756,-47.430151 -8.54007,-47.430151 7.22623,0 15.24074,4.992665 19.97063,14.320991 V 93.737353 c -3.94157,-2.496311 -11.56196,-5.124032 -20.10201,-5.124032 -15.3721,0 -28.64204,10.116668 -28.64204,29.561729 0,18.78812 14.18967,29.43035 27.85372,29.43035 10.37949,0 20.49617,-6.04374 24.43773,-18.91949 -3.41599,5.78093 -9.0656,8.67143 -14.97796,8.67143 z"
           id="path2683"
           style="font-size:60.4406px;line-height:1.25;font-family:'Monea Alegante';-inkscape-font-specification:'Monea Alegante, Normal';fill:#298529;fill-opacity:0.780392;stroke-width:3.28463" />
        <g
           id="g878">
          <path
             id="path1121"
             style="fill:url(#linearGradient1287);fill-opacity:1;stroke:#000500;stroke-width:0;stroke-dasharray:none;stroke-opacity:0.996723;paint-order:markers fill stroke;stroke-miterlimit:4"
             d="m 52.109183,146.21484 a 27.663086,27.663086 0 0 0 0.01314,-0.20165 27.663086,27.663086 0 0 0 -0.236449,-3.6108 27.663086,27.663086 0 0 0 -0.705947,-3.54883 27.663086,27.663086 0 0 0 -1.16313,-3.42658 27.663086,27.663086 0 0 0 -1.60037,-3.24532 27.663086,27.663086 0 0 0 -2.010442,-3.00844 27.663086,27.663086 0 0 0 -2.386121,-2.72063 27.663086,27.663086 0 0 0 -2.720206,-2.38612 27.663086,27.663086 0 0 0 -3.008867,-2.01001 27.663086,27.663086 0 0 0 -3.245313,-1.60037 27.663086,27.663086 0 0 0 -3.426576,-1.16314 27.663086,27.663086 0 0 0 -3.548832,-0.70595 27.663086,27.663086 0 0 0 -3.115841,-0.20418 l -0.220316,-0.002 a 27.663086,27.663086 0 0 0 -0.01231,0.1889 27.663086,27.663086 0 0 0 0.236447,3.61081 27.663086,27.663086 0 0 0 0.705945,3.54884 27.663086,27.663086 0 0 0 1.163135,3.42657 27.663086,27.663086 0 0 0 1.60037,3.24532 27.663086,27.663086 0 0 0 2.010439,3.00843 27.663086,27.663086 0 0 0 2.385699,2.72064 27.663086,27.663086 0 0 0 2.72063,2.38569 27.663086,27.663086 0 0 0 3.008867,2.01045 27.663086,27.663086 0 0 0 3.245313,1.60037 27.663086,27.663086 0 0 0 3.426576,1.16313 27.663086,27.663086 0 0 0 3.548833,0.70594 27.663086,27.663086 0 0 0 3.33531,0.21863 z" />
          <path
             id="path1115"
             style="fill:url(#linearGradient1263);fill-opacity:1;stroke:#000500;stroke-width:0;stroke-dasharray:none;stroke-opacity:0.996723;paint-order:markers fill stroke;stroke-miterlimit:4"
             d="m 80.347873,63.363185 c -1.207341,8.6e-5 -2.413385,0.07921 -3.610384,0.236872 -1.19723,0.157596 -2.382852,0.393416 -3.54926,0.705946 -1.166351,0.31251 -2.31099,0.701053 -3.426575,1.163134 -1.115543,0.462059 -2.199633,0.996659 -3.245319,1.600371 -1.045612,0.603773 -2.050571,1.275356 -3.008435,2.010438 -0.957971,0.735005 -1.866793,1.531942 -2.720636,2.385699 -0.853752,0.853838 -1.650692,1.762658 -2.385694,2.720629 -0.735084,0.957864 -1.406669,1.962828 -2.010442,3.008442 -0.603708,1.045686 -1.138314,2.129776 -1.60037,3.245314 -0.462079,1.115581 -0.850622,2.260222 -1.16313,3.426573 -0.312508,1.166269 -0.548333,2.351751 -0.705947,3.548833 -0.15128,1.164412 -0.228275,2.337285 -0.23051,3.51148 -0.02251,-0.0016 -0.04502,-0.0025 -0.06752,-0.0041 l -0.21013,27.668584 -0.210129,27.62995 c 0.06038,0.004 0.120829,0.008 0.181263,0.0119 1.207482,-7e-5 2.413665,-0.0792 3.610812,-0.23688 1.197082,-0.15761 2.382564,-0.39344 3.548833,-0.70595 1.16635,-0.31251 2.31099,-0.70105 3.426574,-1.16313 1.115535,-0.46205 2.199625,-0.99666 3.245311,-1.60037 1.045613,-0.60377 2.050579,-1.27536 3.008443,-2.01044 0.957971,-0.735 1.866794,-1.53194 2.720628,-2.38569 0.853909,-0.85383 1.650988,-1.76265 2.38613,-2.72064 0.734936,-0.95787 1.406381,-1.96284 2.010015,-3.00843 0.603708,-1.04569 1.138314,-2.12978 1.600369,-3.24532 0.46208,-1.11559 0.850623,-2.26023 1.163131,-3.42658 0.312508,-1.16627 0.548333,-2.35175 0.705946,-3.54883 0.09942,-0.8742 0.157072,-1.75264 0.17277,-2.63233 0.01963,-0.24881 0.0359,-0.49788 0.04879,-0.74713 0.0033,-0.044 0.0057,-0.088 0.009,-0.13201 0.0025,-0.0331 0.0041,-0.0662 0.0066,-0.0993 -0.01339,-0.25861 -0.03031,-0.51701 -0.05093,-0.77514 L 80.41097,63.36465 c -0.02095,-4.48e-4 -0.04189,-9.04e-4 -0.06284,-0.0013 z"
             sodipodi:nodetypes="ccsscccccsscccccccssccscssscccscccc" />
        </g>
      </g>
    </g>
  </g>
</svg>
