<?xml version="1.0" encoding="UTF-8" standalone="no"?>
<!-- Created with Inkscape (http://www.inkscape.org/) -->

<svg
   width="297mm"
   height="210mm"
   viewBox="0 0 297 210"
   version="1.1"
   id="svg5"
   inkscape:version="1.1.1 (3bf5ae0d25, 2021-09-20)"
   sodipodi:docname="Pathor 1.svg"
   xmlns:inkscape="http://www.inkscape.org/namespaces/inkscape"
   xmlns:sodipodi="http://sodipodi.sourceforge.net/DTD/sodipodi-0.dtd"
   xmlns="http://www.w3.org/2000/svg"
   xmlns:svg="http://www.w3.org/2000/svg">
  <sodipodi:namedview
     id="namedview7"
     pagecolor="#ffffff"
     bordercolor="#666666"
     borderopacity="1.0"
     inkscape:showpageshadow="2"
     inkscape:pageopacity="0.0"
     inkscape:pagecheckerboard="0"
     inkscape:deskcolor="#d1d1d1"
     inkscape:document-units="mm"
     showgrid="false"
     inkscape:zoom="0.25"
     inkscape:cx="550"
     inkscape:cy="294"
     inkscape:window-width="1366"
     inkscape:window-height="705"
     inkscape:window-x="-8"
     inkscape:window-y="-8"
     inkscape:window-maximized="1"
     inkscape:current-layer="layer1"
     inkscape:pageshadow="2" />
  <defs
     id="defs2" />
  <g
     inkscape:label="Layer 1"
     inkscape:groupmode="layer"
     id="layer1">
    <g
       aria-label="p"
       transform="matrix(0.31771941,0.13421545,0.13421545,-0.31771941,39.022982,146.79995)"
       id="text186"
       style="font-size:288.334px;line-height:1.25;font-family:'Lucien Schoenschriftv CAT';-inkscape-font-specification:'Lucien Schoenschriftv CAT, Normal';stroke-width:7.20836" />
    <g
       id="g5020"
       transform="translate(5.2144427,34.424315)">
      <g
         id="g4338"
         transform="translate(-326.40834,-21.6153)">
        <path
           id="path1971"
           style="font-size:78.1108px;line-height:1.25;font-family:'Argos George';-inkscape-font-specification:'Argos George, Normal';stroke-width:9.51386"
           d="m 1385.8359,325.41016 c -37.0303,0 -67.5676,7.55064 -91.6132,22.65039 -17.3129,11.12614 -26.6882,18.80834 -28.1309,23.04687 10.5801,5.03328 18.3918,18.01367 23.4414,38.94141 h 0.3613 c 0.9619,0 1.9251,-2.91224 2.8867,-8.74024 2.8855,-12.45067 14.7893,-26.89016 35.709,-43.31445 20.9197,-11.65596 42.9221,-17.48437 66.0059,-17.48437 25.4884,0 46.2879,7.68217 62.3984,23.04687 17.3129,16.42427 25.9668,38.54597 25.9668,66.36133 0,7.94721 -0.8402,15.49794 -2.5234,22.65039 -1.6832,6.88762 -4.2098,13.5075 -7.5762,19.86523 -7.2137,13.2454 -17.3103,22.38665 -30.2949,27.41993 -6.4923,2.91397 -12.8653,4.37109 -19.1172,4.37109 -12.5037,0 -22.0018,-3.5779 -28.4941,-10.73047 -0.7214,-0.52978 -1.4427,-0.39788 -2.1641,0.39648 -0.7214,0.79465 -1.082,1.72358 -1.082,2.78321 0,1.05963 0.119,1.72142 0.3594,1.98633 14.6676,18.80847 34.5081,28.21289 59.5156,28.21289 23.3243,0 42.0787,-7.81576 56.2656,-23.44532 8.5408,-9.72835 14.4916,-21.10109 17.8906,-34.09375 3.2942,0.22791 8.435,0.56168 11.0821,2.18164 1.821,1.11436 5.3867,5.97657 5.3867,5.97657 0,0 0,0.001 0.033,0.0449 -7.9884,15.01202 -11.9824,31.97347 -11.9824,50.88672 0,7.16772 0.5971,13.95743 1.748,20.39453 0.3868,1.85548 1.2269,5.52867 1.6406,7.5 3.399,12.99265 9.3499,24.3654 17.8907,34.09375 14.1869,15.62956 32.9413,23.44531 56.2656,23.44531 23.4149,0 42.2393,-8.35464 56.5898,-24.84375 3.9366,-1.05247 9.1624,-3.00081 12.8008,-3.91992 12.1858,0 36.0403,26.9791 42.9805,19.82617 9.0487,-9.32607 -19.2491,-52.86395 -19.1407,-82.06054 V 518.84764 504.791 c -0.5297,-13.38373 -0.9245,-21.01107 -1.1894,-22.88477 0.2653,-0.80304 0.3965,-2.4073 0.3965,-4.81641 v -8.83593 c 0,-8.29788 1.9852,-14.32092 5.959,-18.06836 0.2653,-0.803 0.3964,-1.87253 0.3964,-3.21094 0,-2.40903 -4.1042,-4.95221 -12.3164,-7.62891 -1.3245,-0.26797 -3.1783,-0.66779 -5.5625,-1.20312 -2.1191,-0.80308 -4.6348,-1.8725 -7.5488,-3.21094 -6.0929,-2.40899 -10.7313,-3.61523 -13.9101,-3.61523 v -0.002 c -4.2385,0 -8.0777,1.60821 -11.5215,4.82032 0,-10e-4 -0.012,-0.002 -0.012,-0.004 0.8835,5.30596 0.859,11.64018 1.1992,16.86719 1.0597,10.17161 1.7215,20.47669 1.9864,30.91601 0.2653,10.43921 0.3984,21.1484 0.3984,32.12305 v 52.5957 c 0.4346,7.6411 -1.8345,11.43524 -1.1309,17.01953 -5.8764,3.68185 -13.2717,5.55664 -22.2422,5.55664 -6.2519,0 -12.6249,-1.45711 -19.1171,-4.37109 -12.9846,-5.03327 -23.0812,-14.17453 -30.295,-27.41992 -3.3664,-6.35773 -5.8929,-12.97761 -7.5761,-19.86524 -1.6832,-7.15245 -2.5235,-14.70317 -2.5235,-22.65039 0,-27.81535 8.6539,-49.93705 25.9668,-66.36132 16.1105,-15.36469 36.9101,-23.04688 62.3985,-23.04688 20.6593,0.008 49.7533,12.4138 60.6015,47.53906 h 0.3613 c 5.0497,-20.92773 12.8613,-33.90813 23.4415,-38.9414 -0.1528,-0.44875 -0.2031,-0.73227 -0.2129,-0.9375 -24.4753,-12.4249 -55.3063,-22.62431 -75.5313,-22.75977 -45.6867,0 -81.7529,12.05369 -108.2031,36.16016 -7.065,6.33914 -13.0553,13.20372 -17.9805,20.58789 -1.1523,-1.34795 -4.092,-4.73943 -5.7226,-5.75977 -4.163,-2.60353 -13.5938,-2.44531 -13.5938,-2.44531 -0.2484,0.0114 -0.414,-0.004 -0.414,-0.004 1.0482,-6.16915 1.5917,-12.65965 1.5917,-19.49414 0,-32.31877 -11.6639,-58.94137 -34.9882,-79.86914 -26.4502,-24.10646 -62.5165,-36.16015 -108.2032,-36.16015 z m 363.0489,109.74414 c 0.6834,-0.0777 -0.038,-0.79757 0,0 z"
           transform="scale(0.26458333)"
           sodipodi:nodetypes="ccccsccscscccsccscsccsccscccsccsccccsscscccccccccsccscccsccccccccccccsccccc" />
        <path
           style="font-size:78.1108px;line-height:1.25;font-family:'Argos George';-inkscape-font-specification:'Argos George, Normal';stroke-width:2.50417"
           d="m 370.00952,93.457727 c -25.36152,0.914295 -17.27337,30.168693 -17.27337,51.516133 0,0.14019 0.0641,0.56084 0.19128,1.26175 v 1.15669 c 0,8.55101 -4.38994,15.52528 -13.1696,20.92224 0,0.0701 -0.0316,0.13996 -0.0953,0.21006 v 0.21005 c 0,0.8411 0.85857,1.26174 2.57632,1.26174 5.40777,0 11.07007,-2.94385 16.9868,-8.83144 4.38984,-3.36434 6.58481,-9.14654 6.58481,-17.3471 0,-1.3317 -0.0957,-3.46989 -0.28657,-6.41369 -0.0636,-1.40181 -0.0953,-2.62812 -0.0953,-3.67947 v -2.83856 -1.47178 l 0.0953,-1.89261 c 0.0636,-0.49063 0.096,-0.87634 0.096,-1.1567 0,-0.28036 0.0317,-0.52563 0.0953,-0.7359 v -2.52346 c 0,-1.33173 -0.0957,-3.32875 -0.28657,-5.99219 0,-1.40181 -0.0317,-2.59387 -0.0953,-3.57514 v -2.6278 c 0,-7.63984 1.78117,-13.212404 5.34393,-16.716927 -0.19086,-0.07013 -0.41325,-0.315357 -0.66773,-0.735896 z"
           id="path1173" />
      </g>
      <path
         id="path932"
         style="font-size:78.1108px;line-height:1.25;font-family:'Argos George';-inkscape-font-specification:'Argos George, Normal';stroke-width:9.46458"
         d="m 835.51562,363.32227 c -29.40483,5.5631 -49.93588,19.3349 -61.59179,41.32226 -6.88759,13.24543 -10.33008,27.55328 -10.33008,42.91797 0,17.48398 4.90149,33.64372 14.70313,48.47852 7.41739,10.33141 17.61518,18.14514 30.5957,23.44336 12.45059,5.03327 25.29953,7.55078 38.54492,7.55078 1.3245,0 3.17834,-0.132 5.5625,-0.39649 2.38416,-0.26494 4.23796,-0.39648 5.5625,-0.39648 15.36476,-2.38413 28.8771,-8.47969 40.5332,-18.28125 12.71554,-9.53662 21.05765,-21.19159 25.03125,-34.9668 3.4438,-8.21216 5.16602,-16.9547 5.16602,-26.22656 0,-17.219 -4.63447,-32.71495 -13.90625,-46.49024 -17.21896,-24.63635 -43.84354,-36.95507 -79.8711,-36.95507 z m 18.67579,14.69921 v 0.002 c 1.05966,0 2.12197,0.13123 3.18164,0.39648 1.32449,0 2.91116,0.13199 4.76562,0.39649 -0.52985,1.05959 -3.31051,4.10742 -8.34375,9.14062 -6.35784,7.15249 -9.53515,11.92244 -9.53515,14.30664 0,2.91398 1.5867,4.36914 4.76562,4.36914 0.26532,0 0.92865,-0.26484 1.98828,-0.79492 1.32458,-0.79472 2.65008,-1.45655 3.97461,-1.98633 1.58944,-0.79472 3.04461,-1.32302 4.36914,-1.58789 1.58941,-0.52985 2.91487,-0.66511 3.97461,-0.40039 9.80153,2.38417 16.55693,7.5508 20.26563,15.49805 6.62279,13.24539 9.93554,26.88766 9.93554,40.92773 0,18.01384 -4.9016,32.31973 -14.70312,42.91602 -7.94733,6.62271 -16.68995,9.93554 -26.22656,9.93554 -14.30506,0 -25.83037,-6.36059 -34.57227,-19.07617 -7.94725,-11.39104 -11.91992,-24.3714 -11.91992,-38.9414 v -7.94727 c 0,-23.31197 6.88889,-42.12072 20.66406,-56.42578 9.27175,-7.15249 18.4091,-10.72855 27.41602,-10.72852 z"
         transform="scale(0.26458333)" />
      <path
         style="font-size:78.1108px;line-height:1.25;font-family:'Argos George';-inkscape-font-specification:'Argos George, Normal';stroke-width:2.50417"
         d="m 271.7896,95.498186 c -2.87368,0 -6.69379,2.172428 -11.45993,6.518024 -0.14017,0 -0.24571,-0.035 -0.31578,-0.10498 0,-3.714778 -1.85728,-5.572073 -5.57208,-5.572073 l -2.83855,0.315087 c -1.82236,0.21028 -3.29394,0.315788 -4.41537,0.315788 -0.91117,0 -1.71755,-0.105553 -2.41844,-0.315788 -1.12146,0 -1.50717,0.455592 -1.1567,1.366764 2.73353,2.453162 4.20581,4.871542 4.41607,7.254602 l -0.10498,12.19585 c -0.0701,4.13531 -0.14066,7.5697 -0.21074,10.30322 v 5.99289 c 0.21026,2.03263 1.01662,3.57408 2.41843,4.62542 2.31298,0.77101 4.48541,1.3321 6.51803,1.68255 2.10273,0.28036 4.06551,0.42011 5.88785,0.42011 1.19153,0 1.78758,-0.41995 1.78758,-1.26103 -2.94378,-3.43442 -4.76615,-7.49979 -5.46704,-12.19584 l -0.21075,-4.52108 c -0.0702,-0.771 -0.10498,-1.5068 -0.10498,-2.20769 v -2.3127 c 0,-6.09786 1.22701,-10.26874 3.68016,-12.51163 1.54198,-1.542 3.11909,-2.31271 4.73116,-2.31271 1.26163,0 2.34749,0.31513 3.25866,0.94595 0.98126,0.63081 1.33202,1.542 1.05168,2.73353 -0.0701,0.14018 -0.21051,0.38543 -0.4208,0.7359 -0.21026,0.28035 -0.52545,0.66607 -0.94595,1.1567 -0.84109,0.98126 -1.08637,1.5773 -0.7359,1.78756 0.42053,0.14019 0.73569,0.21007 0.94595,0.21007 1.82235,0 3.60973,-1.08657 5.36203,-3.25936 1.68212,-2.10272 2.52346,-4.1354 2.52346,-6.09792 0,-1.471894 -0.42065,-2.663282 -1.26174,-3.574443 -1.47189,-1.541989 -3.11886,-2.312714 -4.94121,-2.312714 z"
         id="path930" />
      <path
         style="font-size:78.1108px;line-height:1.25;font-family:'Argos George';-inkscape-font-specification:'Argos George, Normal';stroke-width:2.50417"
         d="m 145.62879,73.314218 c -2.31297,8.270654 -4.06545,13.001929 -5.257,14.193457 -0.56073,0.350451 -1.12182,0.735469 -1.68254,1.156008 -0.49064,0.350451 -1.01611,0.701222 -1.57683,1.051676 -1.47188,1.051357 -2.20768,1.892649 -2.20768,2.523466 l 2.83856,1.997632 c 0.91117,0.700905 1.36676,1.612077 1.36676,2.733518 v 7.148895 c 0,6.44831 -0.10486,12.2305 -0.31509,17.3471 -0.14018,5.11657 -0.42109,9.63753 -0.84162,13.56259 l -0.73588,2.3134 c 0,0.35046 0.24524,0.63066 0.73588,0.84093 1.4719,-0.21027 2.52352,-0.31578 3.15434,-0.31578 h 2.31271 l 4.62613,0.21075 c 1.54199,0 2.80393,0.0349 3.78519,0.10498 h 2.10267 c 0.0701,-0.0701 0.10498,-0.14066 0.10498,-0.21076 l 0.21006,-0.21005 c 0.0701,-0.0702 0.0701,-0.28041 0,-0.63087 -3.50452,-3.08398 -5.25629,-6.34297 -5.25629,-9.77738 v -15.56023 c 0.16648,-3.99112 -0.88969,-14.505996 0.52513,-18.293043 0.49064,-0.07012 0.87635,-0.105726 1.15671,-0.105726 h 1.05168 1.68184 c 0.49065,0 0.91129,0.07066 1.26174,0.21075 0.42055,0.140185 1.01588,0.630715 1.78686,1.471796 0.8411,0.911172 1.36724,1.366763 1.57753,1.366763 0.42053,0 0.73567,-0.175398 0.94596,-0.525849 0,-0.420549 0.0698,-1.016565 0.21005,-1.787568 0.14019,-0.841072 0.21075,-1.471366 0.21075,-1.891904 0,-1.051354 -0.35077,-1.822774 -1.05167,-2.313408 h -1.47179 c -0.56072,0 -1.3664,0.0349 -2.41775,0.105025 h -2.41844 c -1.68216,0 -2.90848,-0.13976 -3.67947,-0.420115 l -0.94666,-14.088414 c -0.14018,-1.471896 -0.73551,-2.207685 -1.78686,-2.207685 z"
         id="path928" />
      <path
         style="font-size:78.1108px;line-height:1.25;font-family:'Argos George';-inkscape-font-specification:'Argos George, Normal';stroke-width:2.50417"
         d="m 175.66625,63.010988 c -1.61209,0.420537 -3.53994,1.401602 -5.78284,2.94358 -0.7009,0.490635 -2.52323,1.857404 -5.46704,4.100285 -2.8737,1.401813 -4.31034,4.06547 -4.31034,7.990514 0,0.490639 0.0348,1.121614 0.10498,1.892603 0.0702,0.771004 0.10498,1.576654 0.10498,2.417742 0.0701,0.770975 0.14064,1.542419 0.21075,2.313409 0.0702,0.771003 0.10498,1.401965 0.10498,1.892603 0,0.280351 -0.035,0.630441 -0.10498,1.050979 v 1.261734 9.0415 c 0.0702,2.032624 0.10498,3.785103 0.10498,5.256983 v 3.57445 c 0,11.84524 -0.66591,20.46649 -1.99763,25.86344 -0.35045,1.33172 -0.63065,2.41828 -0.84092,3.25937 -0.21027,0.77099 -0.35071,1.26151 -0.42082,1.47178 0,0.56073 0.28021,1.01632 0.84093,1.36676 h 9.4623 1.78758 c 0.56072,0 1.12114,0.035 1.68186,0.10498 0.42053,-0.14017 0.77131,-0.42037 1.05166,-0.84091 -1.05135,-3.7849 -1.50695,-8.20102 -1.36676,-13.24752 l 0.21005,-6.72877 c 0.0702,-2.2429 0.10498,-4.06526 0.10498,-5.46705 v -3.36369 c 0.14018,-0.91117 0.42037,-1.57709 0.84091,-1.99764 1.82234,-0.49062 3.39945,-1.08665 4.73117,-1.78756 1.33169,-0.77099 2.48814,-1.64724 3.4694,-2.62851 0.63082,-1.2616 1.40222,-1.89259 2.31342,-1.89259 2.38306,0 4.38011,2.55883 5.99219,7.67542 0.63081,2.03262 1.08639,3.92486 1.36676,5.67711 0.28035,1.75226 0.4208,3.43417 0.4208,5.04624 0,8.41083 -2.45333,16.01608 -7.35964,22.81483 -0.35047,0.70091 -1.12118,1.54151 -2.31271,2.52278 -1.26164,1.19154 -1.89261,2.17328 -1.89261,2.94427 0.0702,0.0702 0.31534,0.10498 0.7359,0.10498 0.77099,0 1.75275,-0.35079 2.94428,-1.05167 l 0.21005,-0.10498 2.52348,-1.26174 c 4.55588,-2.31299 8.20057,-5.43154 10.93408,-9.35658 3.08396,-4.34559 4.62543,-9.00698 4.62543,-13.9834 v -0.63087 c 0.0701,-0.35044 0.10498,-0.70053 0.10498,-1.05098 v -1.68254 c 0,-8.97155 -3.29395,-15.59506 -9.88241,-19.870551 -4.34561,-1.682183 -6.93868,-2.522776 -7.77977,-2.522776 -0.6308,0 -1.15697,0.06983 -1.57751,0.210051 -3.01388,4.275506 -5.9221,6.412996 -8.72571,6.412996 h -0.42081 c -0.21027,0 -0.42061,-0.0348 -0.63088,-0.10498 -0.14018,-1.12142 -0.24498,-2.06755 -0.31507,-2.838543 -0.0702,-0.771 -0.10579,-1.401967 -0.10579,-1.892602 v -3.469413 c 0,-2.383067 0.10556,-5.957906 0.31578,-10.724038 0.14017,-2.383081 0.245,-4.450682 0.31509,-6.202944 0.0701,-1.822346 0.10578,-3.328858 0.10578,-4.5204 0,-1.261613 0.52546,-2.80378 1.57683,-4.626123 0.77098,-1.331711 1.33138,-2.34772 1.68183,-3.04861 0.42054,-0.770988 0.6658,-1.262204 0.73591,-1.472488 0.0702,-0.07012 -0.0697,-0.350285 -0.42013,-0.840921 z"
         id="path3703" />
    </g>
    <path
       id="path3544"
       style="font-size:78.1108px;line-height:1.25;font-family:'Argos George';-inkscape-font-specification:'Argos George, Normal';stroke-width:2.4632"
       d="m 106.28004,32.31194 c -9.637288,0 -17.584761,1.965104 -23.842717,5.89485 -4.505773,2.895637 -6.945699,4.894958 -7.321167,5.998058 2.753526,1.309916 4.786541,4.688112 6.100741,10.13465 h 0.09403 c 0.250312,0 0.500963,-0.757933 0.751275,-2.274696 0.750967,-3.240339 3.84898,-6.998257 9.293392,-11.272737 5.444433,-3.033525 11.170666,-4.550379 17.178306,-4.550379 6.63346,0 12.04661,1.999321 16.23942,5.998027 4.50575,4.27448 6.75797,10.031751 6.75797,17.270796 0,2.068311 -0.21856,4.033415 -0.65674,5.89485 -0.43806,1.792536 -1.0956,3.515374 -1.97172,5.170024 -1.87741,3.447156 -4.5051,5.826199 -7.88437,7.136146 -1.68964,0.758365 -3.34823,1.137563 -4.97532,1.137563 -3.25415,0 -5.72608,-0.931148 -7.41575,-2.792645 -0.18773,-0.137794 -0.37543,-0.103576 -0.56317,0.103273 -0.18774,0.206847 -0.28175,0.448558 -0.28175,0.724333 0,0.275898 0.0308,0.448003 0.0934,0.516931 3.81738,4.894989 8.98087,7.34253 15.48917,7.34253 6.07025,0 10.95119,-2.034094 14.64339,-6.101728 2.22278,-2.531851 3.77148,-5.491638 4.65611,-8.87304 l 0.46764,-2.186224 c 0.27282,-1.605542 0.41428,-3.294717 0.41428,-5.073443 0,-3.639669 -0.56964,-7.00131 -1.70641,-10.085853 a 16.562448,16.725602 0 0 1 6.59989,-1.391235 16.562448,16.725602 0 0 1 6.70306,1.437507 c -1.12548,3.071903 -1.68961,6.41807 -1.68961,10.039581 0,1.778726 0.1415,3.467901 0.41425,5.073443 0,0 0.33228,1.526288 0.46764,2.186224 0.8846,3.381402 2.43333,6.341189 4.65612,8.87304 3.69219,4.067634 8.5731,6.101728 14.64335,6.101728 6.50829,0 11.67182,-2.447541 15.48917,-7.34253 0.0626,-0.06905 0.0934,-0.241064 0.0934,-0.516931 0,-0.275898 -0.0937,-0.517517 -0.28145,-0.724333 -0.18773,-0.206846 -0.37546,-0.241064 -0.56322,-0.103273 -1.68964,1.861497 -4.16157,2.792645 -7.41569,2.792645 -1.62709,0 -3.28569,-0.379198 -4.97536,-1.137563 -3.37927,-1.309947 -6.00699,-3.68899 -7.88436,-7.136146 -0.87613,-1.65465 -1.53366,-3.377488 -1.97174,-5.170024 -0.43804,-1.861435 -0.65672,-3.826539 -0.65672,-5.89485 0,-7.239045 2.25222,-12.996316 6.75797,-17.270796 4.19281,-3.998706 9.606,-5.998027 16.23942,-5.998027 6.00768,0 11.73384,1.516854 17.17828,4.550379 5.44445,4.27448 8.54246,8.032398 9.29339,11.272737 0.25032,1.516763 0.50094,2.274696 0.75128,2.274696 h 0.094 c 1.31418,-5.446538 3.34719,-8.824734 6.10072,-10.13465 -0.37551,-1.1031 -2.81544,-3.102421 -7.32117,-5.998058 -6.25796,-3.929746 -14.20546,-5.89485 -23.84273,-5.89485 h -4.9e-4 c -11.89017,0 -21.27656,3.13704 -28.16033,9.410842 -2.24458,2.013933 -4.073,4.230922 -5.48765,6.650194 a 16.562448,16.725602 0 0 0 -8.63161,-2.452103 16.562448,16.725602 0 0 0 -8.54313,2.399728 c -1.41042,-2.398772 -3.2279,-4.598498 -5.4562,-6.597819 -6.88377,-6.273802 -16.27014,-9.410842 -28.16027,-9.410842 z" />
  </g>
</svg>
