<svg width="189" height="79" viewBox="0 0 189 79" fill="#ffffff" xmlns="http://www.w3.org/2000/svg">
<path d="M163.859 69.9303C163.936 69.5794 164.05 69.2983 164.052 69.0162C164.067 67.4457 164.131 65.8698 164.03 64.3053C163.934 62.8125 163.62 61.3337 162.946 59.979C162.65 59.3857 162.28 58.7941 161.818 58.3283C160.849 57.353 159.638 57.5089 158.889 58.6726C158.612 59.103 158.373 59.6105 158.299 60.1101C157.924 62.6443 158.308 65.0389 159.847 67.1517C160.839 68.513 162.127 69.4721 163.859 69.9303ZM184.619 69.9372C184.689 69.1874 184.769 68.56 184.801 67.9304C184.934 65.3385 184.749 62.7854 183.797 60.3378C183.468 59.4946 183.035 58.7157 182.306 58.1459C181.443 57.4712 180.377 57.5348 179.762 58.4359C179.356 59.0305 179.022 59.7621 178.929 60.4689C178.611 62.881 179.071 65.1581 180.531 67.1524C181.522 68.5064 182.796 69.489 184.619 69.9372ZM79.9499 45.7037L80.0181 45.6772C80.1138 45.3557 80.2105 45.034 80.2916 44.7085C81.8922 38.2959 83.3307 31.8465 84.2246 25.2942C84.5973 22.561 84.7291 19.7933 84.9214 17.0379C84.9595 16.4963 84.8526 15.9093 84.6678 15.3952C84.4411 14.7639 83.8187 14.7188 83.4952 15.3084C83.1758 15.8904 82.9447 16.5327 82.7523 17.172C81.9316 19.8996 81.4811 22.7093 81.2076 25.5309C80.7176 30.5855 80.3293 35.6514 79.9681 40.7173C79.8503 42.3749 79.9499 44.0481 79.9499 45.7037ZM58.3281 67.5278C58.3949 67.5328 58.2612 67.5232 58.3281 67.5278C58.3281 66.6687 58.244 65.8351 58.1821 64.9558C58.1308 62.3702 56.9505 60.265 55.0804 58.5567C53.9316 57.5073 52.564 57.1733 51.0332 57.4378C48.3969 57.894 46.8545 59.5714 46.2947 62.0567C45.2423 66.7296 46.3484 70.8732 49.7854 74.2798C50.327 74.8167 51.0328 75.2421 51.7367 75.5484C53.6909 76.3979 55.5492 75.8913 56.7618 74.1463C57.2607 73.4286 57.6958 72.5844 57.8676 71.7382C58.1473 70.3607 58.187 68.9341 58.3281 67.5278ZM62.8732 58.9576C63.5856 57.6837 64.8294 57.1683 66.1037 56.6075C65.9716 56.8478 65.8405 57.0885 65.7081 57.3285C62.9762 62.2726 62.3293 67.49 63.7369 72.9492C63.9273 73.6865 64.3153 74.4135 64.7662 75.0323C65.4154 75.9235 66.7214 76.5723 68.2725 75.7533C69.2203 75.2527 70.0085 74.5519 70.5617 73.654C71.2454 72.5447 71.8539 71.3833 72.4233 70.2097C72.8629 69.3039 73.137 68.3167 73.5876 67.4179C73.9796 66.6359 73.9693 65.8741 73.9097 65.0356C73.6863 61.9011 73.4429 58.7633 73.3787 55.6229C73.2589 49.7466 73.339 43.8703 73.7852 38.0036C74.1776 32.85 74.8056 27.7328 76.0341 22.704C76.5764 20.4842 77.2885 18.3201 78.2754 16.2549C78.9733 14.795 79.8092 13.4274 81.007 12.315C81.8124 11.5665 82.7136 10.9861 83.8031 10.7405C85.3968 10.3806 86.8634 11.0808 87.4213 12.6186C87.709 13.4111 87.8454 14.2894 87.8834 15.1366C88.0201 18.1807 87.5772 21.1841 87.1064 24.1792C85.5591 34.0269 82.9543 43.6197 80.1568 53.1671C79.9406 53.905 79.8109 54.7102 79.8476 55.4739C80.0681 60.0316 80.2273 64.5996 81.1765 69.0848C81.3377 69.8472 81.5748 70.6106 81.8972 71.3187C82.658 72.9883 83.9842 73.2939 85.2634 72.004C86.2556 71.0039 87.1419 69.87 87.9255 68.6951C90.0237 65.5487 91.73 62.1765 93.3694 58.7729C94.1408 57.1713 95.036 56.141 96.4168 55.4186C96.3897 55.6663 96.385 55.8854 96.3393 56.096C95.6438 59.3096 96.1824 62.3166 98.1343 64.9409C100.051 67.5185 102.152 69.9581 104.177 72.4549C104.266 72.5645 104.398 72.6397 104.547 72.7608C107.053 70.6788 108.78 68.1975 108.909 64.8595C108.955 63.6706 108.903 62.4583 108.718 61.2847C108.398 59.2513 107.429 58.6071 105.463 58.0651C104.848 57.8953 104.507 58.0909 103.699 58.8047C103.036 57.9936 102.989 57.3497 103.53 56.5009C104.64 54.7595 106.423 54.1212 108.384 54.835C110.254 55.516 111.669 56.7766 112.508 58.5799C113.039 59.7231 113.382 60.9536 113.837 62.2216C113.941 62.0262 114.088 61.8402 114.144 61.63C114.563 60.0405 114.964 58.4462 115.371 56.8531C115.76 55.3309 116.471 54.7088 117.991 54.5602C118.944 54.4672 119.334 54.7784 119.315 55.7371C119.299 56.5581 119.161 57.3755 119.113 58.1969C118.89 62.006 118.638 65.8149 118.491 69.6274C118.443 70.8483 118.678 72.0808 118.799 73.3068C118.821 73.5256 118.903 73.7434 118.986 73.95C119.452 75.1034 120.377 75.4418 121.398 74.7168C122.025 74.2715 122.607 73.6951 123.046 73.0638C123.985 71.7167 124.805 70.2868 125.698 68.907C126.431 67.7748 126.732 66.5803 126.689 65.2061C126.601 62.401 126.658 59.5913 126.67 56.7839C126.675 55.5414 126.909 55.1965 128.1 54.8588C128.701 54.6883 129.344 54.6198 129.971 54.6029C130.623 54.5853 130.846 54.8207 130.891 55.4719C130.919 55.8791 130.855 56.2923 130.832 56.7025C130.753 58.1148 130.673 59.5267 130.795 61.0301C131.011 60.7583 131.236 60.4931 131.441 60.213C132.73 58.4538 134.148 56.8256 135.996 55.6226C137.194 54.8426 138.483 54.4768 139.925 54.6138C141.316 54.7462 142.348 55.4018 142.891 56.6714C143.194 57.3785 143.451 58.1783 143.442 58.9328C143.418 60.9109 143.276 62.8903 143.108 64.8628C142.873 67.6192 142.561 70.369 142.31 73.1244C142.263 73.6398 142.286 74.1824 142.396 74.6866C142.589 75.5735 143.345 75.8735 144.108 75.3729C144.474 75.1326 144.8 74.7972 145.071 74.4483C146.708 72.3424 147.962 70.0011 149.139 67.6192C149.31 67.2725 149.309 66.8246 149.328 66.4207C149.491 62.938 150.552 59.7959 152.988 57.2527C153.827 56.3757 154.885 55.6994 155.884 54.9902C156.226 54.7476 156.695 54.6847 157.16 54.5205C157.313 54.881 157.425 55.1482 157.531 55.3981C157.491 55.4944 157.482 55.5842 157.433 55.6265C155.597 57.205 154.606 59.3 154.042 61.575C153.163 65.1223 153.192 68.6918 154.219 72.2212C154.555 73.3779 155.061 74.4632 155.831 75.4027C157.76 77.7545 160.639 77.6043 162.287 75.0574C162.569 74.6211 162.805 74.1467 163.001 73.665C163.239 73.0826 163.413 72.4735 163.638 71.8028C163.316 71.6723 163.053 71.5548 162.783 71.4594C159.059 70.1428 156.359 66.4631 156.263 62.4815C156.241 61.5538 156.263 60.5861 156.503 59.7022C156.753 58.7872 157.166 57.8559 157.731 57.0997C159.042 55.3451 161.156 54.9035 163.147 55.8109C164.713 56.524 165.787 57.74 166.568 59.2361C167.908 61.8051 168.249 64.5599 168.013 67.4093C167.952 68.1465 167.826 68.8785 167.728 69.6204C168.668 69.5469 169.14 69.3145 169.942 68.5951C170.084 66.8819 170.068 65.2547 170.378 63.6935C171.053 60.3011 172.78 57.5169 175.652 55.5163C176.529 54.9052 176.909 54.7658 177.81 54.6294C178.094 55.0214 178.411 55.3928 177.887 55.8682C175.909 57.6619 174.991 60.0313 174.499 62.5556C173.883 65.7133 173.94 68.8851 174.834 72.004C175.208 73.3078 175.751 74.5357 176.659 75.5696C178.52 77.6893 181.225 77.5539 182.849 75.2531C183.569 74.2318 183.984 73.0807 184.288 71.8147C184.061 71.7015 183.879 71.5836 183.68 71.5154C179.327 70.024 176.539 65.7186 176.948 61.1294C177.046 60.0386 177.253 58.9835 177.772 58.0075C179.128 55.4577 181.83 54.6585 184.336 56.0711C185.579 56.7717 186.463 57.8195 187.151 59.0474C187.966 60.5027 188.446 62.0746 188.619 63.7259C189.01 67.4675 188.51 71.0466 186.503 74.3056C185.349 76.179 183.805 77.6423 181.641 78.2167C178.108 79.1549 174.796 78.0254 172.504 75.0289C171.702 73.9801 171.132 72.8075 170.741 71.5449C170.634 71.1986 170.5 70.8602 170.389 70.5477C169.359 70.9443 168.383 71.2866 167.439 71.7058C167.18 71.821 166.985 72.1424 166.822 72.4069C166.196 73.4203 165.692 74.5251 164.967 75.4586C161.688 79.6823 155.665 79.3754 152.406 75.7404C151.261 74.4632 150.501 72.9797 149.987 71.3568C149.875 71.0029 149.781 70.6434 149.635 70.1342C149.393 70.5103 149.222 70.7828 149.045 71.0513C147.894 72.7969 146.773 74.5638 145.572 76.2734C145.172 76.8421 144.6 77.3096 144.043 77.741C143.034 78.5233 141.852 78.6696 140.636 78.4137C139.266 78.1253 138.328 76.9021 138.341 75.2176C138.355 73.3511 138.473 71.4793 138.661 69.6217C138.981 66.4591 139.409 63.3078 139.752 60.1475C139.823 59.488 139.807 58.7924 139.68 58.1429C139.424 56.8296 138.385 56.2708 137.152 56.8035C136.515 57.0789 135.909 57.5003 135.391 57.9688C133.428 59.7446 131.936 61.8902 130.738 64.2387C130.545 64.6171 130.492 65.0978 130.482 65.5342C130.396 69.0513 130.289 72.5695 130.294 76.087C130.295 77.1891 129.821 77.7777 128.897 78.1015C128.34 78.2965 127.747 78.4422 127.161 78.4865C126.168 78.5613 125.721 78.1816 125.791 77.1904C125.885 75.8529 126.131 74.5257 126.327 73.1965C126.44 72.4311 126.583 71.6703 126.712 70.9076C126.639 70.8791 126.566 70.8503 126.493 70.8215C126.291 71.1585 126.084 71.4926 125.888 71.8329C124.766 73.7815 123.584 75.6861 121.948 77.2596C121.111 78.0654 120.169 78.565 118.948 78.5183C117.313 78.4557 116.192 77.6877 115.525 76.2297C114.895 74.8498 114.624 73.3726 114.585 71.8703C114.535 69.8922 114.573 67.9118 114.573 65.9069C113.606 65.8311 113.035 66.0791 112.569 66.8859C112.072 67.7446 111.375 68.51 110.666 69.2162C109.581 70.2974 108.431 71.3148 107.275 72.3192C105.213 74.1096 103.438 76.0953 102.654 79C100.862 76.6227 99.1696 74.3791 97.4782 72.1348C95.7726 69.8717 94.1901 67.5308 93.0112 64.7568C92.3534 65.9808 91.823 67.0501 91.2185 68.0754C90.0429 70.0713 88.9107 72.102 87.5951 74.0033C86.7542 75.2186 85.6905 76.3091 84.5923 77.3076C83.4472 78.3488 82.027 78.7842 80.4395 78.5421C78.775 78.2882 77.5458 77.4185 76.6694 76.0039C75.6501 74.3582 75.1019 72.5371 74.7079 70.6629C74.5083 69.7135 74.3573 68.7537 74.0547 67.7576C73.968 68.08 73.8776 68.4015 73.7949 68.7249C73.244 70.8791 72.3958 72.9088 71.2023 74.783C69.4477 77.538 66.7747 78.4263 63.6906 78.3488C62.4534 78.318 61.3732 77.7605 60.5174 76.8627C59.7208 76.0271 58.9839 75.1345 58.0861 74.1139C57.9013 74.3665 57.7491 74.6797 57.5067 74.8866C56.489 75.7569 55.5028 76.6832 54.3954 77.4245C52.7719 78.511 50.9057 78.6799 49.0078 78.4326C47.9368 78.2929 47.0489 77.7486 46.2808 76.9948C44.6259 75.3709 43.6784 73.3511 43.1235 71.1463C42.2124 67.5268 42.4816 63.9235 43.6496 60.4189C45.1648 55.8715 48.6893 54.1861 53.2791 54.5155C56.539 54.7496 59.3246 56.0255 61.7658 58.1482C62.0475 58.3932 62.3501 58.6137 62.6441 58.8438C62.6726 58.8663 62.7096 58.8772 62.8732 58.9576Z" fill="#ffffff"/>
<path d="M35.7079 26.5496C35.2365 25.8964 34.825 25.3256 34.4056 24.7446C34.8346 24.3096 35.2382 23.9296 35.609 23.5197C39.0235 19.747 39.8753 14.0554 37.646 9.4808C35.9923 6.08777 33.1657 4.01367 29.5665 3.30322C21.8505 1.78035 14.9853 3.66308 9.26291 9.16662C7.01237 11.3311 5.46599 13.9862 4.91312 17.1091C4.30066 20.5677 4.85453 23.8044 6.96735 26.7005C8.4154 28.6856 10.176 30.3339 12.16 31.7661C14.8363 33.6975 17.7774 35.1637 20.6755 36.7081C24.0676 38.5151 27.4722 40.2998 30.8387 42.1537C33.5339 43.6382 35.9989 45.4567 38.125 47.6986C40.318 50.0111 42.0372 52.6069 42.6678 55.8023C43.4283 59.6552 42.9022 63.3247 41.0095 66.7707C38.4124 71.4998 34.4377 74.6317 29.5142 76.6455C25.6444 78.2283 21.623 78.7656 17.4593 78.5348C14.4165 78.3663 11.4463 77.9313 8.63721 76.7041C7.7172 76.3022 6.81009 75.8466 5.95794 75.3173C-0.014702 71.6061 -0.492419 63.9427 3.50248 59.2195C5.64576 56.6856 8.37998 55.0806 11.44 53.9679C12.5143 53.5773 13.624 53.2843 14.8585 52.9032C15.0488 53.7795 15.2024 54.4873 15.3673 55.2485C14.7039 55.5782 14.108 55.8705 13.5157 56.1695C11.2671 57.305 9.46453 58.9328 8.05123 61.0264C5.79539 64.3678 5.74507 69.9485 9.9919 73.3415C12.167 75.0793 14.6718 75.988 17.408 76.1621C21.0486 76.3939 24.6155 76.0029 28.0754 74.7022C34.8684 72.1484 37.4563 66.0575 36.8114 60.2508C36.5002 57.4503 35.0975 55.1746 33.1936 53.1936C31.0489 50.9619 28.512 49.2483 25.7742 47.842C21.6915 45.7447 17.5804 43.7031 13.4935 41.6141C10.6262 40.1488 7.87975 38.4873 5.51201 36.2725C2.64967 33.5949 0.562001 30.4524 0.136921 26.4559C-0.308023 22.2766 0.319006 18.2466 2.20075 14.455C5.27 8.27143 10.2468 4.27158 16.6058 1.87935C20.5345 0.401496 24.6079 -0.123897 28.7941 0.0240869C31.8077 0.130688 34.7148 0.638535 37.4765 1.88795C39.1632 2.65105 40.6801 3.66673 41.9348 5.02706C44.1331 7.41003 45.1276 10.2982 44.8227 13.4823C44.2817 19.1285 41.375 23.3264 36.5174 26.1881C36.2972 26.3178 36.0486 26.3993 35.7079 26.5496Z" fill="#ffffff"/>
<path d="M119.949 49.4625C119.928 50.8033 118.926 51.7643 117.576 51.7395C116.271 51.7157 115.233 50.646 115.267 49.3605C115.3 48.0879 116.406 47.0302 117.678 47.0537C118.967 47.0772 119.97 48.1416 119.949 49.4625Z" fill="#ffffff"/>
<path d="M160.228 11.4086C158.912 11.4304 157.635 11.6453 156.378 12.0028C154.016 12.6752 152.07 13.9713 150.635 15.9643C149.728 17.2236 148.886 18.5333 148.076 19.8579C145.961 23.3141 143.93 26.8224 141.765 30.2465C140.651 32.0084 139.363 33.6657 138.086 35.3173C135.609 38.5187 132.285 40.3756 128.379 41.2638C122.058 42.7016 116.501 41.2076 111.763 36.8141C108.952 34.2086 107.157 30.9887 106.529 27.1849C106.309 25.856 106.239 24.4996 106.151 23.1526C105.956 20.1886 104.695 17.7275 102.674 15.6124C102.569 15.5018 102.469 15.3654 102.337 15.3038C101.537 14.9284 101.39 14.2699 101.466 13.4714C101.511 12.991 101.505 12.5004 101.466 12.0194C101.425 11.5238 101.621 11.2288 102.029 10.9586C103.909 9.71287 105.918 8.73559 108.041 7.98839C111.109 6.90913 114.263 6.29535 117.515 6.10201C122.952 5.7789 128.17 6.65852 133.169 8.80312C135.672 9.87642 137.94 11.3321 139.921 13.2112C140.949 14.1865 140.831 14.6721 139.518 15.2253C137.625 16.0232 135.805 15.998 134.054 14.8347C133.609 14.5387 133.143 14.2735 132.685 13.9964C132.205 13.7064 131.729 13.4105 131.243 13.1317C126.244 10.2704 119.065 10.8918 114.696 15.85C109.973 21.2112 110.621 29.3165 116.143 33.8557C121.619 38.3565 129.759 37.8235 134.454 32.595C135.418 31.5217 136.232 30.2942 136.994 29.063C138.778 26.1817 140.476 23.2469 142.235 20.3498C143.532 18.2125 144.951 16.1593 146.584 14.257C149.696 10.6332 153.611 8.34924 158.223 7.21934C161.833 6.33474 165.498 5.95733 169.21 6.16192C171.3 6.27713 173.351 6.67274 175.335 7.35803C177.997 8.27771 180.487 9.54005 182.822 11.1175C183.18 11.3599 183.339 11.6194 183.318 12.0528C183.287 12.7397 183.304 13.4293 183.312 14.1179C183.315 14.4126 183.244 14.6324 183.001 14.8456C180.944 16.6469 179.733 18.9441 179.291 21.6111C178.991 23.4174 178.867 25.2535 178.677 27.0779C178.439 29.3689 177.762 31.4873 176.491 33.4412C173.686 37.7533 169.717 40.363 164.77 41.4916C161.609 42.213 158.434 41.9524 155.307 41.1341C152.069 40.2862 149.059 38.9491 146.405 36.8813C145.844 36.4449 145.288 35.9808 144.827 35.4458C143.94 34.4159 144.164 33.572 145.451 33.0999C147.058 32.511 148.7 32.406 150.285 33.1588C151.178 33.5829 152.049 34.0822 152.858 34.6489C154.507 35.8027 156.328 36.4426 158.303 36.7095C160.351 36.9862 162.376 36.923 164.347 36.2648C169.126 34.6691 172.174 31.4125 173.118 26.4728C174.557 18.9514 169.11 12.6444 162.354 11.6244C161.651 11.5181 160.937 11.4791 160.228 11.4086Z" fill="#ffffff"/>
</svg>
